<svg width="194" height="94" viewBox="0 0 194 94" fill="none" xmlns="http://www.w3.org/2000/svg">
<g clip-path="url(#clip0_775_417)">
<mask id="mask0_775_417" style="mask-type:luminance" maskUnits="userSpaceOnUse" x="0" y="0" width="194" height="94">
<path d="M0.489258 0.135254V93.5595H193.385V0.135254H0.489258Z" fill="white"/>
</mask>
<g mask="url(#mask0_775_417)">
<path fill-rule="evenodd" clip-rule="evenodd" d="M77.9353 28.1696C77.515 29.3398 75.5111 29.8074 74.5009 29.2761C73.8361 28.9255 73.1586 28.3607 72.482 28.0764C71.6484 27.7266 70.9631 28.5918 70.1193 28.7304C69.5539 28.822 68.2605 28.45 67.8694 28.015C67.6036 27.7187 67.5216 27.3021 67.2819 26.9842C66.979 26.5811 66.539 26.2712 66.1179 26.0044C65.6762 25.7248 65.2401 25.438 64.7788 25.1902C63.9988 24.7736 62.9847 24.3299 62.1345 24.7983C61.4185 25.1934 60.9516 26.276 61.5218 26.9898C61.6417 27.1395 61.8081 27.3252 62.0013 27.3315C62.0636 27.3339 62.1345 27.279 62.2071 27.2774C62.2907 27.2774 62.3632 27.3252 62.4453 27.3339C62.8128 27.3833 63.1747 27.2789 63.5383 27.2797C63.8506 27.2813 64.2331 27.2096 64.4917 27.4239C64.7023 27.5992 64.7393 27.8414 64.7338 28.0971C64.7204 28.6531 64.1905 28.8053 63.7473 28.9088C62.9894 29.0873 62.2386 29.527 61.5336 29.8632C61.2899 29.9795 61.0281 30.1762 60.7529 30.2208C60.4911 30.2615 60.2143 30.2344 59.9516 30.2734C59.5408 30.334 59.204 30.3196 58.8026 30.1834C58.5235 30.0918 58.2664 29.8568 58.0006 29.7229C57.6607 29.5517 57.7467 29.3207 57.6126 28.9941C57.4778 28.6658 57.339 28.2428 57.3989 27.8692C57.4904 27.3044 57.9265 26.7006 58.2238 26.2075C58.3894 25.9351 58.5519 25.6722 58.6425 25.3655C58.8405 24.686 59.3491 23.5755 58.6694 23.0027C58.1568 22.5718 57.4226 22.9358 56.9186 23.2027C55.2744 24.0726 54.0126 25.0142 53.832 26.9906C53.7681 27.6876 53.8249 28.3265 53.0118 28.5479C52.2571 28.7543 51.8391 28.2938 51.2918 29.1C50.9859 29.5501 50.7311 30.2607 51.1767 30.6964C51.75 31.2524 52.7397 30.5753 53.3052 31.1959C53.7326 31.6651 53.5418 32.4944 53.3154 33.0002C52.9329 33.8613 52.2737 33.8829 51.4701 34.1417C49.9236 34.6372 48.1311 35.4777 46.5065 34.6882C45.8354 34.3632 44.4277 32.7166 43.9506 34.1234C43.4396 35.6282 45.5617 36.009 45.5886 37.3186C45.6083 38.3024 44.311 38.2451 43.6549 38.4395C42.7677 38.7015 41.9073 39.0568 41.0059 39.2791C40.1171 39.499 39.2457 39.9578 38.2583 39.8797C36.6598 39.7531 36.8767 38.5741 37.4792 37.4118C37.9918 36.4224 39.3277 36.3754 39.8348 35.3343C40.1368 34.7137 40.1195 34.1521 40.2346 33.4909C40.4783 32.0761 41.5769 30.8255 42.9199 30.3738C44.3867 29.8815 46.6185 30.6813 47.691 29.2203C48.6586 27.9035 45.3638 28.1696 44.8883 27.1953C44.5594 26.523 45.0996 25.6276 45.6091 25.1847C46.3488 24.5426 47.1208 24.5036 48.0277 24.6326C49.31 24.8174 50.493 23.2585 49.3006 22.2348C47.7281 20.8846 46.1611 23.0051 44.9364 23.6257C44.1651 24.016 43.177 24.2869 42.3497 24.5569C41.2898 24.9043 40.6463 24.6469 39.7654 24.0774C38.0643 22.9765 36.5415 21.8716 34.8137 23.6416C34.2206 24.2502 33.8634 24.6637 33.0227 24.9369C32.1103 25.2341 31.5701 25.5758 30.843 26.2091C30.2176 26.7532 29.3659 27.4741 28.5047 27.5371C28.045 27.5721 27.6112 27.3514 27.1459 27.3881C26.6247 27.4271 26.146 27.686 25.6815 27.9186C25.0742 28.2229 24.4023 28.5264 24.381 29.2522C24.3534 30.1961 25.2327 30.4606 26.0024 30.2216C26.933 29.9341 27.3817 29.4943 28.3328 30.0663C29.0702 30.51 29.6593 31.1728 30.4408 31.5464C32.0354 32.3072 33.3539 30.6797 34.9761 30.7219C36.3862 30.7593 39.006 30.6701 37.7568 32.8512C37.3719 33.5212 36.7489 34.278 35.9761 34.5066C35.2616 34.7169 34.6094 34.2987 33.8374 34.5249C33.0109 34.7695 33.0203 35.2929 32.5267 35.88C31.9423 36.5754 31.1371 36.53 30.3225 36.5571C29.6072 36.581 28.9527 36.6128 28.4393 37.1928C28.235 37.4246 28.0978 37.8229 28.0134 38.1065C27.9298 38.3885 27.3723 39.8957 27.2224 40.1028C26.6389 40.9153 24.4473 41.2826 23.7896 40.619C22.2289 39.0417 23.8779 38.2061 23.9796 37.834C24.1815 37.0972 24.2351 36.3635 23.5546 35.876C22.4765 35.1072 20.8575 35.9437 19.8283 36.4177C19.2282 36.6941 18.699 37.0087 18.0366 37.1107C17.1778 37.2453 16.2291 37.2374 15.7488 38.1264C14.9563 39.5914 16.5477 41.3543 17.707 42.0489C18.5011 42.5229 22.6989 43.7791 21.0002 45.2401C20.7266 45.4751 20.464 45.4313 20.1659 45.5667C19.7952 45.734 19.5105 46.0391 19.1935 46.294C18.6912 46.6971 17.8749 47.1759 18.0918 47.9605C18.3655 48.9491 20.046 49.079 20.8591 48.9834C22.3835 48.8034 24.1058 47.5057 25.5624 48.3684C26.2177 48.7564 26.4472 49.5036 26.1065 50.2189C25.6933 51.0912 24.6657 51.0179 24.1579 51.7492C23.0901 53.2859 25.9961 53.8945 26.9874 53.5958C27.5607 53.4245 28.1617 52.5267 28.8131 52.7044C29.5662 52.9075 29.3864 54.1183 29.2981 54.7174C29.0907 56.1274 27.6002 58.2671 26.1539 56.8929C25.6444 56.4094 25.5774 56.2047 24.8203 56.317C23.9071 56.4524 23.1137 56.5607 22.1871 56.4405C20.9892 56.2851 18.99 55.9736 18.8749 54.4402C18.8213 53.7208 19.2645 52.9879 18.882 52.3132C18.4688 51.5891 17.5761 51.7452 16.8797 51.6879C15.711 51.5915 14.0399 51.0896 13.771 49.7465C13.4713 48.2513 14.9815 47.7694 15.4775 46.6246C15.7654 45.9611 15.4894 45.4026 15.2449 44.7805C14.8703 43.8285 14.9902 42.8431 14.696 41.8784C14.2528 40.4246 12.674 39.2576 13.1708 37.5966C13.3932 36.8526 13.9713 36.3093 14.3301 35.641C14.6668 35.0172 14.8033 34.2987 15.0288 33.6327C15.4365 32.429 15.9515 31.2365 17.4207 31.6938C18.7992 32.1223 20.0176 33.0655 21.143 31.5488C21.9292 30.4909 20.8898 29.8974 19.9719 29.578C18.8631 29.19 17.6557 29.0195 17.0753 27.8167C16.2993 26.2083 18.5058 25.8658 19.5003 25.3703C20.1162 25.0636 20.7534 24.6238 21.221 24.1092C21.807 23.468 21.7786 22.618 21.8985 21.7927C22.1414 20.1166 22.3835 18.6764 23.6295 17.401C24.7753 16.226 26.3518 16.0499 27.8391 15.6126C28.8493 15.3147 28.5457 15.0805 29.0859 14.4503C29.5055 13.962 30.3193 13.8967 30.9187 13.9604C31.5362 14.0249 32.1221 14.0377 32.7223 14.1978C33.3823 14.3739 34.1181 14.8702 34.82 14.7124C35.4659 14.5682 36.0053 14.0393 36.3207 13.4729C36.7434 12.7121 36.3751 12.6715 36.3775 11.9936C36.3791 11.0616 37.3704 10.1303 38.1479 9.7368C39.6282 8.99037 41.0469 9.40222 42.5224 9.5719C43.214 9.65236 43.5839 9.66191 44.2053 9.93197C44.9214 10.2442 45.3638 10.6832 46.0183 11.0663C46.93 11.5985 48.1508 11.8367 49.1381 12.1641C50.2075 12.5162 51.2784 12.078 52.3825 12.2995C53.2374 12.4708 54.0433 12.9177 54.8769 13.1248C55.3327 13.2371 55.7294 13.2427 56.2341 13.3192C56.8705 13.4155 57.0858 13.7469 57.5487 14.1612C58.2403 14.7777 59.1725 15.1872 59.9777 15.6373C60.3499 15.8468 60.9493 16.3622 61.3412 16.4275C61.5439 16.4626 61.8396 16.308 61.9248 16.3208C62.0943 16.3455 62.4382 16.461 62.5636 16.4729C63.0399 16.5247 63.3427 16.5502 63.9271 16.4745C64.8229 16.3542 65.6439 16.1838 66.4301 16.7892C67.2282 17.4034 67.7243 18.043 68.7298 18.3322C69.602 18.5832 70.3606 18.5768 71.1989 18.235C72.008 17.9036 72.8014 17.5858 73.6192 18.1012C74.2122 18.478 74.6964 19.2013 74.6144 19.9302C74.5032 20.914 73.519 20.789 73.2501 21.5513C72.6318 23.3023 75.8478 23.3134 76.6554 24.0479C77.6774 24.9783 78.4313 26.7882 77.9353 28.1696ZM72.717 56.1903C72.6318 56.7798 72.4339 57.1064 72.1602 57.2689C71.6713 57.5597 70.9418 57.3327 70.1942 57.1582C69.5515 57.0053 68.8891 56.7503 68.2219 56.7503C67.9474 56.7503 67.6904 56.7599 67.453 56.7766C67.0311 56.8053 66.6652 56.8531 66.3529 56.8969C66.0406 56.9439 65.7827 56.9845 65.5705 56.9981C65.5209 57.0021 65.4712 57.0029 65.4239 57.0029C64.8963 57.0029 64.7267 56.7583 64.7977 55.7793C64.7504 56.4293 64.2236 56.7551 64.5383 57.5063C64.7275 57.9596 65.1802 58.4129 65.5579 58.7172C66.442 59.427 67.5949 59.6922 68.4277 60.4809C69.5988 61.5818 68.6217 63.4259 67.1604 62.4525C66.6644 62.1243 66.3852 61.7021 65.7724 61.5364C64.9278 61.3077 64.0745 61.5595 63.4436 62.1522C63.4594 61.9418 62.8774 61.8311 63.3064 61.3101L63.1243 61.3117C62.342 61.3683 62.0076 62.5799 62.5281 63.3367C62.8743 63.8378 63.8127 63.8059 64.3348 63.8896C64.5674 63.9278 64.8545 63.9326 65.1644 63.9326H65.3624H65.5587C66.3749 63.9326 67.2574 63.9668 67.7006 64.4528C68.0736 64.859 68.3 65.7305 67.617 66.0747C67.4238 66.1758 67.2677 66.222 67.1367 66.2308C67.1202 66.2324 67.1044 66.2324 67.0894 66.2324C66.6486 66.2324 66.4838 65.7966 65.9246 65.6071C65.5989 65.4955 65.2417 65.4278 64.9168 65.4278C64.8671 65.4278 64.8174 65.4278 64.7709 65.4326C64.17 65.4748 63.7346 65.7735 63.9421 66.4841C64.1313 67.1326 64.4838 67.2584 64.9081 67.2584C64.9807 67.2584 65.054 67.2536 65.1297 67.2497L65.3111 67.2353L65.5012 67.2202C65.5863 67.213 65.6699 67.2106 65.7559 67.2106C66.4459 67.2106 67.4932 67.9531 67.7495 68.6087C67.9474 69.1121 67.9758 69.8689 67.9072 70.4234C67.7944 71.3267 67.4751 72.3878 66.7275 73.0155C65.9341 73.6783 64.9034 74.0925 63.8608 74.0248C62.2449 73.9213 60.5975 73.3453 59.3113 72.3631C57.8587 71.2518 56.2933 70.3533 54.9763 69.0914C53.7996 67.965 52.7666 66.7542 51.8896 65.3728C51.0978 64.1254 50.0884 62.8149 48.5309 62.5799C47.5735 62.4342 46.5791 62.4565 45.6272 62.3378C44.7439 62.2302 43.9955 61.8375 43.1454 61.5085C42.3915 61.2153 41.4854 60.9963 40.9609 60.3168C40.584 59.8253 40.4207 59.1521 40.1502 58.6096C39.696 57.7031 39.2733 56.9487 39.0911 55.9187C38.9034 54.8552 39.4665 50.4261 40.3143 49.7728C40.7038 49.4701 41.0643 49.3307 41.4034 49.3084C41.4388 49.3068 41.4735 49.3036 41.5067 49.3036C42.6273 49.3036 43.4372 50.4109 44.2503 51.0291C44.6603 51.3414 44.9561 51.4672 45.4553 51.5126C45.7684 51.5405 46.0594 51.515 46.3385 51.6823C46.553 51.8098 46.6745 52.0583 46.9008 52.177C47.2754 52.3769 48.2139 52.8844 48.6255 52.7458C48.8274 52.6797 49.0995 52.4901 49.3219 52.412C49.6334 52.2989 49.5821 52.3499 49.7698 52.0766C50.0805 51.625 50.0403 51.0793 49.7461 50.6443C49.4575 50.2173 49.1097 49.8947 48.6476 49.6892C48.217 49.498 47.7273 49.5115 47.262 49.3889C46.7738 49.2582 46.2068 49.2789 45.818 48.9045C45.531 48.6265 45.2242 47.6769 45.1722 47.2946C45.1162 46.8772 45.2013 46.2176 45.2629 45.7515C45.3969 44.7247 45.4655 44.2523 46.2541 43.5864C47.4071 42.6113 49.0813 42.3492 50.1539 41.2794C50.5773 40.8572 50.9417 40.2278 51.1073 39.6583C51.3045 38.9796 51.3589 38.5725 52.041 38.2379C52.6167 37.9551 53.2673 37.8978 53.8793 37.736C54.7484 37.5026 55.7388 37.5536 56.5251 37.1314C56.9178 36.9219 57.2901 36.6407 57.7183 36.4862C58.126 36.3388 58.8247 35.7891 58.652 35.2482C58.4761 34.6922 57.5219 35.0435 57.2278 34.5361C57.0077 34.1569 57.3074 33.749 57.5929 33.5292C58.2711 33.0074 59.5637 32.9197 60.4075 33.1189C61.3593 33.3443 62.2552 33.4431 63.1187 33.9059C63.8939 34.3242 64.6171 34.2971 65.3048 34.873C65.9112 35.3805 66.468 35.9357 67.3268 35.8449C67.7456 35.8035 68.1966 35.5406 68.5484 35.296C68.9648 35.0053 69.117 34.5775 69.3275 34.137C69.5215 33.7291 69.7731 33.2679 70.3346 33.7355C70.6832 34.0262 70.6138 34.6492 70.6098 35.0626C70.6027 35.59 70.4324 36.0321 70.4671 36.5618C70.5002 37.0629 70.4395 37.6452 70.6185 38.1208C70.7944 38.586 71.038 38.8258 71.0956 39.3699C71.1784 40.1546 71.5499 41.0189 71.2123 41.8171C70.8914 42.5755 70.1154 42.8806 70.0034 43.6939C69.9016 44.4379 69.9348 45.3238 70.1737 46.0447C70.374 46.6485 70.4529 47.207 70.6082 47.8355C70.7289 48.3246 70.7999 48.7229 70.9016 49.1985C71.0901 50.0716 71.4868 50.9797 71.6492 51.8384C71.8361 52.831 72.0443 53.9726 72.4094 54.9181C72.5861 55.3746 72.7943 55.6439 72.717 56.1903ZM31.936 49.498C32.7238 49.6964 33.6268 49.6159 34.4422 49.694C35.2245 49.7681 36.0423 50.1409 36.8144 50.1289C37.1953 50.8889 37.2742 52.5785 36.6511 53.207C35.9296 53.9383 35.372 53.4771 34.857 52.8868C34.5242 52.506 34.2096 52.0718 33.8784 51.8655C33.1457 51.4099 32.1757 51.5716 31.4597 51.2705C29.996 50.6547 29.4361 49.3801 29.0552 47.9518C28.6782 46.5418 28.8281 44.8976 29.5749 43.6676C30.3493 42.3906 33.4643 40.145 33.9178 42.8463C34.3626 45.4974 30.5252 44.007 29.7783 46.1984C29.3296 47.5128 30.6364 49.1722 31.936 49.498ZM51.7847 87.6915C49.0056 88.2969 44.7771 86.2751 42.3205 85.2108C40.599 84.466 40.1581 84.1362 38.7244 82.5263C37.6763 81.3489 36.6874 79.672 35.6015 78.6731C33.8926 77.1133 33.0913 75.2883 30.899 74.1029C28.7453 72.9391 26.0056 73.5246 24.1137 72.0907C18.7763 68.0447 28.0757 67.2728 29.6088 65.1546C30.8099 63.4944 30.0031 58.5738 33.0393 60.0308C34.413 60.6928 35.137 64.5595 35.5534 65.9719C36.1031 67.8368 36.8767 69.5264 37.5959 71.2956C38.5699 73.6942 38.9232 77.079 40.6061 79.0745C43.9932 83.0942 48.5948 74.9075 50.4196 80.099C50.978 81.6834 49.799 82.9572 50.9811 84.6476C52.0805 86.2209 55.2704 86.9339 51.7847 87.6915ZM46.7328 0.135254C21.1934 0.135254 0.488281 21.0487 0.488281 46.8493C0.488281 72.6459 21.1934 93.5593 46.7328 93.5593C72.273 93.5593 92.9774 72.6459 92.9774 46.8493C92.9774 21.0487 72.273 0.135254 46.7328 0.135254Z" fill="#475A65"/>
</g>
<mask id="mask1_775_417" style="mask-type:luminance" maskUnits="userSpaceOnUse" x="0" y="0" width="194" height="94">
<path d="M0.489258 0.135254V93.5595H193.385V0.135254H0.489258Z" fill="white"/>
</mask>
<g mask="url(#mask1_775_417)">
<path fill-rule="evenodd" clip-rule="evenodd" d="M68.8764 43.2965C68.3583 43.7068 67.2006 43.7761 67.057 44.5711C66.9979 44.9057 67.311 45.245 67.2621 45.6545C67.2006 46.1739 66.8504 46.0926 66.4372 46.2766C66.0594 46.4439 65.7913 46.7323 65.4002 46.9028C64.998 47.078 64.8371 47.2811 64.5216 47.587C64.2535 47.8475 63.8829 48.0546 63.5729 48.2347C63.1455 48.4832 62.9176 48.433 62.4444 48.3605C61.89 48.2769 61.4279 48.0021 61.0462 47.5918C60.7923 47.3202 60.1637 46.6996 60.0786 46.3507C59.9484 45.8194 60.3987 45.8393 60.7615 45.6489C60.6779 45.6935 61.7023 46.1444 61.9523 46.0727C62.3096 45.9707 62.5643 45.6592 62.7646 45.3549C63.0264 44.9582 63.6502 43.608 63.0856 43.2224C62.6897 42.9508 62.0462 42.8034 61.5643 42.8034C61.5146 42.8034 61.4673 42.8058 61.4192 42.8082C60.9934 42.8376 60.3948 42.9595 59.939 43.0934C59.4816 43.2248 59.0258 43.3554 58.6078 43.3865C58.5526 43.3889 58.5005 43.3905 58.4469 43.3905C58.051 43.3905 57.7947 43.2017 57.8105 42.7867C57.8381 42.104 58.4012 42.2569 58.8444 42.241C59.0313 42.2338 59.312 42.0849 59.4792 42.0466C59.9358 41.9447 60.3467 41.8992 60.7733 41.6873C61.032 41.5567 60.6022 40.9497 60.4942 40.8581C60.1929 40.6032 59.8341 40.5944 59.439 40.729C58.8885 40.9154 58.3389 41.3408 57.8349 41.5599C57.4122 41.7447 56.5913 41.6826 56.2869 41.2444C55.876 40.6533 56.4454 40.0758 56.9525 39.7986C57.6031 39.4417 58.6031 39.4425 59.3365 39.5389C59.6385 39.5779 59.8238 39.7484 60.1109 39.8583C60.394 39.9651 60.7489 39.9906 61.0486 40.0551C61.4105 40.1348 61.7205 40.2232 62.0832 40.2622C62.4736 40.3068 62.8584 40.3753 63.2094 40.5498C63.4909 40.6892 63.6494 40.8413 63.9996 40.7999C64.6991 40.7187 65.1833 39.981 64.7724 39.3493C64.5532 39.0123 64.0816 38.8339 63.774 38.6308C63.442 38.4117 62.7125 38.2962 62.5375 37.9568C62.3103 37.5147 62.8017 37.0033 63.2157 36.9117C63.5587 36.8368 64.069 36.8814 64.4254 36.9587C64.4562 36.9658 64.4861 36.973 64.5145 36.981C65.5216 37.2359 66.3268 38.1759 67.2187 38.6817C67.6091 38.9 67.9143 39.1764 68.1627 39.5556C68.4876 40.0503 68.8212 40.6016 69.1122 41.1162C69.4765 41.7559 69.4931 42.8082 68.8764 43.2965ZM71.6499 51.8385C71.4875 50.9798 71.0908 50.0717 70.9023 49.1986C70.8006 48.7238 70.7296 48.3255 70.609 47.8364C70.4536 47.2071 70.3747 46.6494 70.1737 46.0456C69.9355 45.3239 69.9024 44.4388 70.0041 43.694C70.1161 42.8815 70.8921 42.5756 71.2131 41.818C71.5506 41.019 71.1791 40.1547 71.0963 39.3708C71.0388 38.8267 70.7951 38.5861 70.6192 38.1209C70.4402 37.6453 70.5009 37.063 70.467 36.562C70.4331 36.0322 70.6034 35.5901 70.6105 35.0635C70.6145 34.6493 70.6839 34.0263 70.3353 33.7356C69.7738 33.268 69.5223 33.73 69.3283 34.1371C69.1177 34.5784 68.9655 35.0054 68.5491 35.2961C68.1974 35.5415 67.7463 35.8044 67.3275 35.8458C66.4687 35.9358 65.912 35.3814 65.3055 34.8731C64.6178 34.2972 63.8947 34.3243 63.1187 33.9069C62.2559 33.444 61.3601 33.3444 60.4082 33.1198C59.5644 32.9199 58.2718 33.0075 57.5936 33.5293C57.3081 33.7491 57.0085 34.1578 57.2285 34.5362C57.5226 35.0436 58.4769 34.6931 58.6527 35.2483C58.8254 35.7892 58.1267 36.3397 57.719 36.4863C57.2908 36.6416 56.9186 36.922 56.5258 37.1315C55.7396 37.5537 54.7491 37.5028 53.88 37.7362C53.2681 37.8987 52.6174 37.9552 52.0418 38.2388C51.3596 38.5734 51.3052 38.9797 51.108 39.6592C50.9424 40.228 50.5781 40.8581 50.1546 41.2795C49.0821 42.3493 47.4078 42.6114 46.2549 43.5873C45.4663 44.2532 45.3976 44.7248 45.2636 45.7517C45.2021 46.2177 45.1169 46.8773 45.1729 47.2947C45.2249 47.6771 45.5317 48.6274 45.8188 48.9046C46.2076 49.279 46.7746 49.2583 47.2627 49.389C47.728 49.5124 48.2177 49.4981 48.6483 49.6893C49.1105 49.8948 49.4582 50.2174 49.7461 50.6444C50.041 51.0794 50.0812 51.6251 49.7705 52.0767C49.5828 52.35 49.6341 52.2998 49.3226 52.4129C49.1002 52.4902 48.8281 52.6798 48.6262 52.7459C48.2146 52.8845 47.2761 52.3779 46.9015 52.1771C46.6752 52.0584 46.5538 51.8107 46.3393 51.6824C46.0601 51.5159 45.7691 51.5406 45.456 51.5127C44.9568 51.4673 44.6611 51.3415 44.251 51.0292C43.4379 50.411 42.628 49.3045 41.5074 49.3045C41.4743 49.3045 41.4396 49.3069 41.4041 49.3093C41.065 49.3316 40.7046 49.471 40.315 49.7729C39.4665 50.4262 38.9042 54.8553 39.0919 55.9188C39.274 56.9488 39.6967 57.704 40.1502 58.6097C40.4215 59.1522 40.5847 59.8254 40.9617 60.3169C41.4861 60.9972 42.3922 61.2154 43.1461 61.5094C43.9963 61.8384 44.7447 62.2303 45.6279 62.3387C46.5798 62.4566 47.5742 62.4343 48.5316 62.58C50.0891 62.815 51.0986 64.1255 51.8903 65.3738C52.7673 66.7543 53.8004 67.9651 54.977 69.0923C56.294 70.3542 57.8594 71.2519 59.312 72.3632C60.5983 73.3454 62.2457 73.9214 63.8616 74.0249C64.9033 74.0927 65.9348 73.6792 66.7282 73.0156C67.4758 72.3879 67.7952 71.3276 67.908 70.4243C67.9766 69.869 67.9482 69.1122 67.7502 68.6088C67.4939 67.9532 66.4466 67.2107 65.7566 67.2107C65.6706 67.2107 65.5871 67.2139 65.5019 67.2203L65.3118 67.2362L65.1304 67.2498C65.0547 67.2546 64.9806 67.2593 64.9088 67.2593C64.4846 67.2593 64.1321 67.1335 63.9428 66.4842C63.7354 65.7737 64.1707 65.4749 64.7708 65.4335C64.8181 65.4279 64.8678 65.4279 64.9175 65.4279C65.2424 65.4279 65.5997 65.4956 65.9254 65.6072C66.4845 65.7975 66.6493 66.2325 67.0902 66.2325C67.1051 66.2325 67.1209 66.2325 67.1375 66.2309C67.2684 66.2221 67.4245 66.1759 67.6177 66.0748C68.3007 65.7306 68.0744 64.8599 67.7013 64.4537C67.2581 63.9669 66.3757 63.9327 65.5595 63.9327H65.3631H65.1651C64.8552 63.9327 64.5682 63.9279 64.3355 63.8897C63.8134 63.806 62.8742 63.8379 62.5288 63.3368C62.0083 62.58 62.3427 61.3684 63.125 61.3118L63.3072 61.3102C62.8782 61.832 63.4602 61.942 63.4444 62.1523C64.0753 61.5596 64.9286 61.3079 65.7732 61.5365C66.3859 61.7022 66.6651 62.1244 67.1611 62.4534C68.6224 63.4268 69.5995 61.5819 68.4284 60.481C67.5957 59.6923 66.4427 59.4271 65.5587 58.7173C65.1809 58.4138 64.7282 57.9597 64.539 57.5064C64.2243 56.7552 64.7511 56.4302 64.7984 55.7802C64.7275 56.7592 64.897 57.003 65.4246 57.003C65.4719 57.003 65.5216 57.0022 65.5713 56.9982C65.7834 56.9846 66.0413 56.944 66.3536 56.897C66.6659 56.854 67.0318 56.8054 67.4537 56.7767C67.6911 56.76 67.9482 56.7504 68.2226 56.7504C68.8898 56.7504 69.5522 57.0062 70.1949 57.1583C70.9426 57.3328 71.672 57.5598 72.161 57.2698C72.4346 57.1073 72.6326 56.7799 72.7177 56.1912C72.795 55.644 72.5868 55.3747 72.4102 54.9182C72.045 53.9727 71.8368 52.8311 71.6499 51.8385Z" fill="white"/>
</g>
<mask id="mask2_775_417" style="mask-type:luminance" maskUnits="userSpaceOnUse" x="0" y="0" width="194" height="94">
<path d="M0.489258 0.135254V93.5595H193.385V0.135254H0.489258Z" fill="white"/>
</mask>
<g mask="url(#mask2_775_417)">
<path fill-rule="evenodd" clip-rule="evenodd" d="M33.9183 42.8467C33.4648 40.1446 30.3498 42.3902 29.5753 43.6672C28.8285 44.8979 28.6787 46.5421 29.0556 47.9513C29.4365 49.3805 29.9965 50.655 31.4601 51.27C32.1762 51.5719 33.1462 51.4094 33.8788 51.8651C34.2101 52.0722 34.5247 52.5063 34.8575 52.8871C35.3725 53.4774 35.93 53.9387 36.6516 53.2074C37.2746 52.578 37.1958 50.8892 36.8149 50.1293C36.0428 50.1412 35.225 49.7676 34.4427 49.6935C33.6273 49.6155 32.7243 49.6967 31.9365 49.4976C30.6368 49.1717 29.3301 47.5132 29.7788 46.1988C30.5256 44.0073 34.363 45.4978 33.9183 42.8467Z" fill="white"/>
</g>
<mask id="mask3_775_417" style="mask-type:luminance" maskUnits="userSpaceOnUse" x="0" y="0" width="194" height="94">
<path d="M0.489258 0.135254V93.5595H193.385V0.135254H0.489258Z" fill="white"/>
</mask>
<g mask="url(#mask3_775_417)">
<path fill-rule="evenodd" clip-rule="evenodd" d="M76.6563 24.0476C75.8488 23.3131 72.6328 23.302 73.2511 21.5518C73.52 20.7895 74.5042 20.9137 74.6154 19.9307C74.6974 19.201 74.2132 18.4777 73.6202 18.1017C72.8024 17.5855 72.009 17.9041 71.1999 18.2347C70.3616 18.5773 69.6029 18.5836 68.7307 18.3319C67.7252 18.0427 67.2292 17.4031 66.4311 16.7889C65.6457 16.1835 64.8239 16.3547 63.9281 16.4742C63.3437 16.5507 63.0416 16.5244 62.5645 16.4734C62.4391 16.4607 62.0953 16.3452 61.9258 16.3205C61.8406 16.3085 61.5448 16.4623 61.3422 16.428C60.9502 16.3627 60.3509 15.8473 59.9787 15.637C59.1735 15.1877 58.2413 14.7782 57.5497 14.1609C57.0868 13.7474 56.8715 13.4152 56.2351 13.3188C55.7304 13.2424 55.3337 13.2368 54.8779 13.1253C54.0443 12.9174 53.2383 12.4705 52.3835 12.3C51.2794 12.0785 50.2085 12.5167 49.1399 12.1646C48.1525 11.8364 46.931 11.599 46.0193 11.066C45.3648 10.6837 44.9224 10.2447 44.2063 9.93166C43.5849 9.66161 43.215 9.65205 42.5234 9.57239C41.0479 9.40192 39.6292 8.99086 38.1489 9.73729C37.3713 10.13 36.3801 11.0613 36.3793 11.9933C36.3761 12.6712 36.7444 12.7118 36.3217 13.4734C36.0062 14.0398 35.4676 14.5679 34.821 14.7129C34.1191 14.8698 33.3833 14.3744 32.724 14.1975C32.1231 14.0374 31.5371 14.0246 30.9197 13.9601C30.3203 13.8964 29.5065 13.9617 29.0869 14.45C28.5467 15.0802 28.8503 15.3144 27.8401 15.6123C26.3536 16.0504 24.7763 16.2257 23.6305 17.4015C22.3844 18.6768 22.1423 20.1163 21.8994 21.7924C21.7796 22.6177 21.808 23.4677 21.222 24.1097C20.7544 24.6235 20.1172 25.0633 19.5013 25.37C18.5068 25.8663 16.3011 26.2088 17.0763 27.8164C17.6567 29.0192 18.8641 29.1897 19.9729 29.5777C20.8916 29.8971 21.931 30.4906 21.144 31.5493C20.0186 33.0652 18.8002 32.122 17.4217 31.6935C15.9525 31.2362 15.4375 32.4295 15.0298 33.6324C14.805 34.2992 14.6678 35.0177 14.3311 35.6415C13.9723 36.309 13.3942 36.8523 13.1718 37.5971C12.675 39.2573 14.2538 40.4243 14.697 41.8781C14.9912 42.8436 14.8713 43.829 15.2459 44.781C15.4904 45.4031 15.7672 45.9607 15.4793 46.6243C14.9825 47.769 13.4723 48.251 13.7727 49.7462C14.0409 51.0893 15.7127 51.5912 16.8807 51.6884C17.5778 51.7457 18.4697 51.5896 18.883 52.3129C19.2663 52.9884 18.8223 53.7213 18.8759 54.4399C18.991 55.9733 20.9902 56.2848 22.1889 56.4402C23.1147 56.5612 23.9081 56.4529 24.8213 56.3167C25.5784 56.2052 25.6454 56.4091 26.1548 56.8926C27.6012 58.2676 29.0916 56.1279 29.2991 54.7179C29.3874 54.118 29.5672 52.908 28.814 52.7048C28.1627 52.5264 27.5617 53.4242 26.9884 53.5963C25.9971 53.8942 23.0918 53.2856 24.1588 51.7497C24.6667 51.0176 25.6951 51.0917 26.1075 50.2194C26.449 49.5033 26.2187 48.756 25.5634 48.3681C24.1068 47.5062 22.3844 48.8031 20.8601 48.9839C20.0478 49.0795 18.3664 48.9496 18.0928 47.961C17.8759 47.1756 18.6921 46.6976 19.1945 46.2937C19.5115 46.0388 19.7962 45.7337 20.1669 45.5672C20.465 45.431 20.7276 45.4756 21.0012 45.2406C22.7007 43.7796 18.5021 42.5226 17.7079 42.0486C16.5487 41.3539 14.9572 39.591 15.7498 38.1261C16.2309 37.2379 17.1796 37.245 18.0376 37.1112C18.7008 37.0084 19.2292 36.6938 19.8293 36.4174C20.8585 35.9434 22.4775 35.1069 23.5555 35.8765C24.2361 36.3632 24.1825 37.0977 23.9806 37.8337C23.8789 38.2065 22.2299 39.0422 23.7913 40.6195C24.4483 41.2831 26.6398 40.915 27.2234 40.1033C27.3732 39.8962 27.9308 38.3882 28.0144 38.107C28.0988 37.8234 28.236 37.4243 28.441 37.1933C28.9536 36.6133 29.609 36.5815 30.3235 36.5568C31.1381 36.5305 31.9433 36.5751 32.5277 35.8796C33.0213 35.2925 33.0119 34.7692 33.8383 34.5246C34.6104 34.2992 35.2634 34.7166 35.9771 34.5063C36.7499 34.2777 37.3729 33.5217 37.7578 32.8509C39.0077 30.6698 36.3871 30.7598 34.9771 30.7224C33.3549 30.6794 32.0363 32.3068 30.4418 31.5461C29.661 31.1725 29.0711 30.5097 28.3338 30.066C27.3827 29.4948 26.934 29.9337 26.0034 30.2221C25.2337 30.4603 24.3544 30.1966 24.382 29.2518C24.4033 28.5261 25.0752 28.2234 25.6824 27.9183C26.1469 27.6865 26.6256 27.4268 27.1469 27.3886C27.6122 27.3519 28.0459 27.5718 28.5057 27.5367C29.3669 27.4738 30.2186 26.7537 30.8447 26.2096C31.5711 25.5755 32.1113 25.2345 33.0237 24.9374C33.8644 24.6642 34.2224 24.2499 34.8154 23.6413C36.5425 21.8713 38.0661 22.9762 39.7664 24.0779C40.6473 24.6466 41.2916 24.9039 42.3507 24.5566C43.1779 24.2866 44.1661 24.0157 44.9381 23.6254C46.1629 23.0048 47.7291 20.8843 49.3016 22.2353C50.4939 23.2589 49.3118 24.8171 48.0287 24.6323C47.1226 24.5041 46.3498 24.5431 45.61 25.1844C45.1006 25.6281 44.5604 26.5227 44.8892 27.195C45.3648 28.1693 48.6596 27.9032 47.692 29.22C46.6203 30.6818 44.3885 29.882 42.9208 30.3735C41.5778 30.8252 40.4793 32.0766 40.2356 33.4906C40.1213 34.1526 40.1378 34.7134 39.8358 35.334C39.3295 36.3759 37.9928 36.4221 37.4802 37.4115C36.8777 38.5746 36.6608 39.7528 38.2593 39.8794C39.2467 39.9583 40.1189 39.4994 41.0069 39.2788C41.9083 39.0565 42.7686 38.7012 43.6558 38.4392C44.312 38.2456 45.6092 38.3029 45.5903 37.3183C45.5635 36.0095 43.4405 35.6279 43.9516 34.1231C44.4287 32.7171 45.8364 34.3637 46.5075 34.6879C48.132 35.4774 49.9246 34.6377 51.471 34.1414C52.2746 33.8825 52.9339 33.861 53.3164 33.0007C53.5427 32.494 53.7336 31.6656 53.3062 31.1956C52.7407 30.575 51.751 31.2521 51.1777 30.6961C50.7329 30.2612 50.9876 29.5498 51.2928 29.0997C51.8401 28.2943 52.2589 28.7548 53.0128 28.5484C53.8259 28.327 53.7691 27.6873 53.8337 26.9911C54.0135 25.0139 55.2753 24.0731 56.9196 23.2024C57.4235 22.9355 58.1585 22.5715 58.6703 23.0032C59.3501 23.576 58.8415 24.6857 58.6435 25.366C58.5536 25.6719 58.3904 25.9348 58.2248 26.2072C57.9275 26.7003 57.4914 27.3041 57.4007 27.8697C57.3399 28.2425 57.4787 28.6655 57.6136 28.9945C57.7477 29.3204 57.6617 29.5522 58.0016 29.7226C58.2674 29.8565 58.5244 30.0923 58.8044 30.1839C59.205 30.3201 59.5418 30.3336 59.9526 30.2731C60.2152 30.2341 60.492 30.2619 60.7539 30.2205C61.0291 30.1759 61.2909 29.9792 61.5346 29.8636C62.2396 29.5267 62.9904 29.0869 63.749 28.9093C64.1915 28.8049 64.7214 28.6536 64.7348 28.0976C64.7411 27.8418 64.7033 27.5997 64.4927 27.4236C64.234 27.2093 63.8516 27.281 63.5393 27.2802C63.1757 27.2794 62.8137 27.383 62.447 27.3344C62.3642 27.3256 62.2925 27.2778 62.2089 27.2778C62.1355 27.2794 62.0645 27.3344 62.0022 27.332C61.809 27.3256 61.6426 27.14 61.5228 26.9895C60.9526 26.2757 61.4195 25.1931 62.1355 24.7988C62.9857 24.3304 63.9998 24.7733 64.7798 25.1899C65.2411 25.4377 65.678 25.7253 66.1188 26.0041C66.54 26.2717 66.98 26.5808 67.2828 26.9839C67.5226 27.3017 67.6054 27.7192 67.8703 28.0155C68.2615 28.4505 69.5548 28.8217 70.1203 28.7309C70.9649 28.5923 71.6494 27.7271 72.483 28.076C73.1596 28.3612 73.837 28.9252 74.5018 29.2757C75.5121 29.8079 77.5159 29.3395 77.9363 28.1693C78.4323 26.7879 77.6784 24.9788 76.6563 24.0476Z" fill="white"/>
</g>
<mask id="mask4_775_417" style="mask-type:luminance" maskUnits="userSpaceOnUse" x="0" y="0" width="194" height="94">
<path d="M0.489258 0.135254V93.5595H193.385V0.135254H0.489258Z" fill="white"/>
</mask>
<g mask="url(#mask4_775_417)">
<path fill-rule="evenodd" clip-rule="evenodd" d="M68.1632 39.5555C67.9148 39.1763 67.6096 38.8999 67.2193 38.6816C66.3265 38.1757 65.5222 37.2357 64.5151 36.9808C64.4867 36.9728 64.4559 36.9657 64.426 36.9585C64.0695 36.8812 63.5585 36.8366 63.2162 36.9115C62.8014 37.0031 62.3109 37.5145 62.538 37.9567C62.7131 38.296 63.4426 38.4115 63.7746 38.6306C64.0821 38.8337 64.5537 39.0122 64.7722 39.3491C65.1831 39.9808 64.6996 40.7185 64.0001 40.7998C63.6492 40.8412 63.4907 40.689 63.2099 40.5496C62.859 40.3752 62.4741 40.3067 62.0838 40.2621C61.721 40.223 61.4111 40.1346 61.0483 40.0549C60.7487 39.9904 60.3938 39.9649 60.1114 39.8582C59.8236 39.7482 59.6383 39.5778 59.3362 39.5387C58.6036 39.4423 57.6029 39.4415 56.953 39.7984C56.4452 40.0756 55.8766 40.6532 56.2874 41.2443C56.5911 41.6824 57.412 41.7445 57.8355 41.5597C58.3394 41.3407 58.8883 40.9153 59.4395 40.7289C59.8339 40.5942 60.1927 40.603 60.4939 40.8579C60.602 40.9495 61.0326 41.5565 60.7739 41.6872C60.3472 41.8991 59.9356 41.9445 59.4798 42.0465C59.3118 42.0847 59.0318 42.2337 58.8441 42.2408C58.4017 42.2568 57.8379 42.1038 57.811 42.7865C57.7953 43.2015 58.0516 43.3903 58.4475 43.3903C58.5011 43.3903 58.5531 43.3887 58.6076 43.3864C59.0263 43.3553 59.4821 43.2246 59.9395 43.0932C60.3953 42.9594 60.9931 42.8375 61.419 42.808C61.4671 42.8056 61.5152 42.8032 61.5641 42.8032C62.0467 42.8032 62.6902 42.9506 63.0853 43.2223C63.65 43.6078 63.027 44.9581 62.7651 45.3548C62.564 45.6591 62.3093 45.9706 61.9529 46.0725C61.7021 46.1442 60.6785 45.6933 60.7621 45.6487C60.3993 45.8391 59.949 45.8192 60.0783 46.3505C60.1635 46.6995 60.792 47.32 61.046 47.5917C61.4284 48.0019 61.8898 48.2767 62.4442 48.3604C62.9181 48.4329 63.146 48.4831 63.5735 48.2345C63.8834 48.0545 64.2533 47.8474 64.5222 47.5869C64.8368 47.281 64.9977 47.0779 65.3999 46.9026C65.7911 46.7321 66.0592 46.4437 66.4377 46.2765C66.851 46.0924 67.2011 46.1737 67.2626 45.6543C67.3107 45.2449 66.9984 44.9055 67.0576 44.5709C67.2003 43.7759 68.358 43.7066 68.8769 43.2963C69.4936 42.808 69.4771 41.7557 69.1127 41.116C68.8217 40.6014 68.4881 40.0502 68.1632 39.5555Z" fill="#475A65"/>
</g>
<mask id="mask5_775_417" style="mask-type:luminance" maskUnits="userSpaceOnUse" x="0" y="0" width="194" height="94">
<path d="M0.489258 0.135254V93.5595H193.385V0.135254H0.489258Z" fill="white"/>
</mask>
<g mask="url(#mask5_775_417)">
<path fill-rule="evenodd" clip-rule="evenodd" d="M50.9819 84.6475C49.7998 82.9571 50.9788 81.6834 50.4212 80.0989C48.5956 74.9082 43.994 83.0949 40.6077 79.0753C38.924 77.0789 38.5707 73.6942 37.5967 71.2956C36.8775 69.5263 36.1046 67.8375 35.5542 65.9726C35.1386 64.5594 34.4138 60.6927 33.0401 60.0307C30.0039 58.5745 30.8106 63.4944 29.6096 65.1545C28.0765 67.2727 18.7771 68.0446 24.1145 72.0906C26.0064 73.5245 28.746 72.939 30.8998 74.1036C33.0921 75.289 33.8941 77.1132 35.6031 78.673C36.6882 79.6719 37.6771 81.3488 38.726 82.5262C40.1589 84.1361 40.6006 84.4659 42.3213 85.2107C44.7779 86.275 49.0072 88.2968 51.7855 87.6922C55.2712 86.9338 52.0813 86.2208 50.9819 84.6475Z" fill="white"/>
</g>
<mask id="mask6_775_417" style="mask-type:luminance" maskUnits="userSpaceOnUse" x="0" y="0" width="194" height="94">
<path d="M0.489258 0.135254V93.5595H193.385V0.135254H0.489258Z" fill="white"/>
</mask>
<g mask="url(#mask6_775_417)">
<path fill-rule="evenodd" clip-rule="evenodd" d="M128.235 40.7863C126.582 40.7863 124.82 42.456 124.067 45.9069L131.65 44.8442C131.501 43.2112 130.976 40.7863 128.235 40.7863ZM171.484 16.9158C171.484 14.021 168.655 12.0892 163.569 12.0892C158.522 12.0892 155.653 14.021 155.653 16.9158C155.653 19.8131 158.522 22.132 163.569 22.132C168.655 22.132 171.484 19.8131 171.484 16.9158ZM157.949 80.5037C157.949 82.0204 158.693 82.8186 160.565 82.8186C162.125 82.8186 164.817 81.4158 165.287 80.9593L165.223 74.2415C163.451 75.6794 157.949 77.8509 157.949 80.5037ZM183.096 41.1742C182.095 41.1742 181.203 42.0776 181.203 43.161C181.203 44.2061 182.095 45.072 183.096 45.072C184.204 45.072 185.064 44.2061 185.064 43.161C185.064 42.0776 184.204 41.1742 183.096 41.1742ZM187.632 64.4934V63.9875L184.778 63.6617V48.7205H179.667L181.775 51.7891V63.6617L179.711 63.9278L175.558 63.6203V32.053L184.27 33.6072L184.684 30.6892H162.72L163.171 33.6072L171.844 32.053V63.6203L167.264 63.962V64.4918H179.237V64.4934H187.632ZM171.692 82.8186L171.148 82.1232C171.148 82.1232 168.564 83.8964 168.564 82.0371V74.7035C168.564 68.2183 164.778 67.6472 163.295 67.6472C161.033 67.6472 158.264 67.8758 155.064 69.0898L156.155 71.4016L163.295 68.6366C164.505 69.1663 165.895 72.7192 165.347 73.1263C163.33 74.6247 154.671 76.7301 154.477 80.9235C154.339 83.953 156.897 85.1678 159.745 85.1678L165.287 81.983C165.287 81.983 165.475 83.7172 166.031 84.2541C167.932 86.1038 171.692 82.8186 171.692 82.8186ZM142.875 63.0858V42.8383L160.968 64.4153L162.058 64.1508V38.3239L165.475 37.9448V37.415H156.203V37.9448L160.107 38.3239V57.4768L142.875 37.415H137.506V37.9448L140.923 38.3239V63.0858L137.506 63.4291V63.9589H146.78V63.4291L142.875 63.0858ZM163.569 25.7622C169.537 25.7622 172.517 21.7067 172.517 16.9158C172.517 12.1266 169.537 8.45505 163.569 8.45505C158.444 8.45505 154.62 12.1266 154.62 16.9158C154.62 21.7067 158.444 25.7622 163.569 25.7622ZM135.067 54.8353L134.767 54.0379C133.642 54.57 131.726 55.2519 130.223 55.2519C126.845 55.2519 123.767 53.7352 123.767 49.3753C123.767 48.464 123.842 47.6682 123.955 46.9106H134.844C134.844 41.4849 131.577 40.1203 128.122 40.1203C124.479 40.1203 120.575 43.2677 120.575 49.3753C120.575 55.745 125.194 57.8305 128.91 57.8305L135.067 54.8353ZM193.385 46.8493C193.385 72.3041 173.227 93.0017 148.154 93.5466V68.3155L151.57 67.9363V67.4058H142.296V67.9363L146.2 68.3155V87.4684L129.443 67.4058H124.075V67.9363L127.492 68.3155V89.1421C112.932 82.2291 102.525 67.8726 101.073 50.9263C103.112 50.8817 105.794 50.7383 107.111 51.8647C108.605 53.1425 109.21 54.3653 111.163 58.6614C114.322 65.6015 114.229 72.814 120.637 72.9582C121.896 72.9884 124.638 71.925 123.895 70.891C123.244 71.1722 120.914 72.4579 119.179 69.9295C117.759 67.8567 114.942 57.4705 113.655 55.4096C112.07 52.8685 109.016 51.1398 109.395 50.9606C109.663 50.8347 110.732 50.708 111.614 50.2157C114.393 48.6687 116.504 47.2014 116.504 43.6118C116.504 38.3024 111.512 36.2177 107.871 36.2177H102.1C104.777 24.5968 111.748 14.6415 121.232 8.15074V32.7007L117.815 33.0432V33.6096H128.401V33.0432L124.984 32.7007V20.0744C124.984 20.0744 127.463 18.4756 128.65 19.2165C129.879 19.986 131.421 20.7643 132.805 21.4637C134.328 22.2316 137.448 17.6543 137.448 17.6543C137.448 17.6543 135.328 19.6171 133.917 18.901C131.975 17.6543 131.975 17.8447 129.504 16.2276C128.258 15.415 124.984 19.0492 124.984 19.0492V8.39052L136.57 10.0236L136.946 7.06576H122.896C128.462 3.59652 134.81 1.28715 141.613 0.468237V32.7692L138.236 33.1109V33.6789H156.706L157.159 30.001L145.37 32.3518V0.172695C145.958 0.149593 146.548 0.135254 147.141 0.135254C172.681 0.135254 193.385 21.0487 193.385 46.8493ZM129.443 90.0136C134.629 92.1851 140.29 93.431 146.225 93.5481L129.443 72.9972V90.0136ZM105.279 49.7346C105.059 49.7346 102.46 49.7139 100.984 49.6884C100.927 48.7492 100.896 47.8028 100.896 46.8493C100.896 43.8556 101.179 40.9289 101.711 38.0913H106.443C110.61 38.0913 112.562 40.744 112.562 43.7807C112.562 47.1169 109.822 49.7346 106.107 49.7346H105.279Z" fill="#BFA602"/>
</g>
<mask id="mask7_775_417" style="mask-type:luminance" maskUnits="userSpaceOnUse" x="0" y="0" width="194" height="94">
<path d="M0.489258 0.135254V93.5595H193.385V0.135254H0.489258Z" fill="white"/>
</mask>
<g mask="url(#mask7_775_417)">
<path fill-rule="evenodd" clip-rule="evenodd" d="M165.287 80.959L165.224 74.2412C163.451 75.6791 157.949 77.8506 157.949 80.5033C157.949 82.0201 158.692 82.8183 160.566 82.8183C162.126 82.8183 164.817 81.4155 165.287 80.959ZM171.148 82.1228L171.693 82.8183C171.693 82.8183 167.933 86.1043 166.03 84.2546C165.474 83.7169 165.287 81.9826 165.287 81.9826L159.746 85.1683C156.897 85.1683 154.34 83.9527 154.477 80.9231C154.671 76.7298 163.331 74.6244 165.347 73.1259C165.896 72.7197 164.506 69.166 163.295 68.6362L156.155 71.4013L155.065 69.0895C158.265 67.8755 161.033 67.6468 163.295 67.6468C164.779 67.6468 168.564 68.218 168.564 74.7032V82.0368C168.564 83.8961 171.148 82.1228 171.148 82.1228ZM183.097 41.1747C182.095 41.1747 181.203 42.078 181.203 43.1606C181.203 44.2058 182.095 45.0717 183.097 45.0717C184.205 45.0717 185.064 44.2058 185.064 43.1606C185.064 42.078 184.205 41.1747 183.097 41.1747ZM157.158 30.0006L145.371 32.3514V0.172363C144.104 0.22016 142.852 0.31894 141.614 0.467906V32.7689L138.236 33.1106V33.6794H156.707L157.158 30.0006ZM128.401 33.0429L124.984 32.7003V20.0741C124.984 20.0741 127.463 18.4753 128.651 19.2169C129.879 19.9857 131.421 20.7639 132.806 21.4634C134.329 22.2313 137.448 17.6548 137.448 17.6548C137.448 17.6548 135.329 19.6168 133.917 18.9015C131.975 17.6548 131.975 17.8452 129.504 16.228C128.259 15.4147 124.984 19.0488 124.984 19.0488V8.39019L136.571 10.0232L136.947 7.06543H122.895C122.333 7.41594 121.777 7.7768 121.232 8.15041V32.7003L117.816 33.0429V33.6093H128.401V33.0429ZM146.78 63.4288L142.875 63.0854V42.838L160.969 64.415L162.059 64.1505V38.3236L165.474 37.9444V37.4147H156.203V37.9444L160.107 38.3236V57.4765L142.875 37.4147H137.506V37.9444L140.923 38.3236V63.0854L137.506 63.4288V63.9593H146.78V63.4288ZM142.297 67.936L146.201 68.3152V87.4681L129.444 67.4055H124.076V67.936L127.493 68.3152V89.1418C128.136 89.4469 128.786 89.7384 129.444 90.0133V72.9977L146.226 93.5478C146.53 93.5542 146.835 93.559 147.141 93.559C147.479 93.559 147.817 93.5542 148.155 93.5462V68.3152L151.569 67.936V67.4055H142.297V67.936ZM163.57 22.1325C168.656 22.1325 171.484 19.8128 171.484 16.9155C171.484 14.0206 168.656 12.0889 163.57 12.0889C158.523 12.0889 155.654 14.0206 155.654 16.9155C155.654 19.8128 158.523 22.1325 163.57 22.1325ZM154.621 16.9155C154.621 12.1263 158.444 8.45472 163.57 8.45472C169.537 8.45472 172.518 12.1263 172.518 16.9155C172.518 21.7063 169.537 25.7619 163.57 25.7619C158.444 25.7619 154.621 21.7063 154.621 16.9155ZM119.179 69.9291C117.76 67.8563 114.942 57.4709 113.656 55.4093C112.071 52.8681 109.016 51.1395 109.396 50.9602C109.663 50.8344 110.732 50.7085 111.613 50.2154C114.393 48.6684 116.504 47.2018 116.504 43.6115C116.504 38.3029 111.512 36.2174 107.871 36.2174H102.1C101.957 36.8371 101.829 37.4625 101.711 38.091H106.442C110.611 38.091 112.563 40.7445 112.563 43.7812C112.563 47.1174 109.822 49.7351 106.107 49.7351H105.279C105.06 49.7351 102.46 49.7143 100.984 49.6881C101.009 50.1031 101.038 50.5157 101.073 50.9268C103.113 50.8814 105.794 50.738 107.111 51.8652C108.606 53.143 109.21 54.365 111.164 58.6611C114.322 65.6011 114.229 72.8145 120.638 72.9578C121.897 72.9881 124.637 71.9246 123.895 70.8906C123.244 71.1726 120.914 72.4584 119.179 69.9291ZM124.068 45.9066L131.651 44.8447C131.501 43.2116 130.976 40.7859 128.235 40.7859C126.582 40.7859 124.82 42.4556 124.068 45.9066ZM123.954 46.9103C123.842 47.6679 123.768 48.4637 123.768 49.375C123.768 53.7356 126.846 55.2524 130.224 55.2524C131.726 55.2524 133.642 54.5697 134.766 54.0383L135.068 54.835L128.91 57.8302C125.195 57.8302 120.576 55.7447 120.576 49.375C120.576 43.2674 124.48 40.1208 128.122 40.1208C131.577 40.1208 134.844 41.4846 134.844 46.9103H123.954ZM187.633 63.9872V64.4931H179.237V64.4915H167.265V63.9617L171.844 63.62V32.0535L163.172 33.6069L162.721 30.6889H184.684L184.27 33.6069L175.558 32.0535V63.62L179.711 63.9275L181.775 63.6614V51.7887L179.667 48.7202H184.777V63.6614L187.633 63.9872Z" fill="white"/>
</g>
</g>
<defs>
<clipPath id="clip0_775_417">
<rect width="194" height="94" fill="white"/>
</clipPath>
</defs>
</svg>
