<svg width="256" height="107" viewBox="0 0 256 107" fill="none" xmlns="http://www.w3.org/2000/svg">
<g clip-path="url(#clip0_775_455)">
<path fill-rule="evenodd" clip-rule="evenodd" d="M9.99023 93.37L46.2402 93.49L91.0402 51.81H77.6002L133.78 0H110.78L9.99023 93.37Z" fill="#E20042"/>
<path fill-rule="evenodd" clip-rule="evenodd" d="M19.5801 72.32H27.1701L105.15 0H97.5601L19.5801 72.32Z" fill="#EE7E33"/>
<path fill-rule="evenodd" clip-rule="evenodd" d="M11.4004 57.02H29.2504L90.3304 0H72.4804L11.4004 57.02Z" fill="#FDC800"/>
<path fill-rule="evenodd" clip-rule="evenodd" d="M12.08 34.2202L0 45.4702H13.08L25.16 34.2202H12.08Z" fill="#FFEA00"/>
<path fill-rule="evenodd" clip-rule="evenodd" d="M114.16 51.81H91.04L147.22 0H170.34L114.16 51.81Z" fill="#B0C907"/>
<path fill-rule="evenodd" clip-rule="evenodd" d="M126.7 44.62L174.83 0H179.41L131.28 44.62H126.7Z" fill="#0D9BD7"/>
<path fill-rule="evenodd" clip-rule="evenodd" d="M168.78 34.9399H150.34L134.33 50.4699H152.78L168.78 34.9399Z" fill="#004387"/>
<path d="M225.12 71.4599V72.7299C225.12 73.5599 225.54 73.9899 226.38 73.9899H229.81C230.66 73.9899 231.08 74.4199 231.08 75.2599V87.2099C231.08 88.0499 231.5 88.4699 232.34 88.4699H233.61C234.46 88.4699 234.87 88.0499 234.87 87.2099V75.2699C234.87 74.4199 235.29 73.9999 236.14 73.9999H239.57C240.41 73.9999 240.83 73.5799 240.83 72.7399V71.4699C240.83 70.6299 240.4 70.2099 239.57 70.2099H226.37C225.56 70.1999 225.12 70.6199 225.12 71.4599ZM208.58 84.6799C208.58 87.2199 211.12 88.4799 216.19 88.4799C221.26 88.4799 223.8 87.2199 223.8 84.6799V81.2399C223.8 78.6999 221.26 77.4399 216.19 77.4399C213.65 77.4399 212.38 77.0199 212.38 76.1699V75.2799C212.38 74.4299 213.65 74.0099 216.19 74.0099C218.73 74.0099 219.99 74.4299 219.99 75.2799C219.99 76.1199 220.41 76.5399 221.26 76.5399H222.52C223.37 76.5399 223.79 76.1199 223.79 75.2799V73.9999C223.79 71.4599 221.25 70.1999 216.18 70.1999C211.11 70.1999 208.57 71.4699 208.57 73.9999V77.4399C208.57 79.9799 211.11 81.2399 216.18 81.2399C218.72 81.2399 219.98 81.6699 219.98 82.5099V83.3999C219.98 84.2499 218.72 84.6699 216.18 84.6699C213.64 84.6699 212.37 84.2499 212.37 83.3999C212.37 82.5499 211.95 82.1399 211.11 82.1399H209.84C209 82.1399 208.58 82.5599 208.58 83.3999V84.6799ZM179.43 70.1999H178.16C177.32 70.1999 176.9 70.6299 176.9 71.4599V84.6799C176.9 87.2199 179.44 88.4799 184.51 88.4799H187.05C187.9 88.4799 188.31 88.0599 188.31 87.2199V85.9499C188.31 85.0999 187.89 84.6899 187.05 84.6899H184.51C181.97 84.6899 180.7 84.2699 180.7 83.4199V71.4599C180.69 70.6199 180.28 70.1999 179.43 70.1999ZM149.01 84.6799C146.47 84.6799 145.2 84.2599 145.2 83.4099V75.2699C145.2 74.5099 146.47 74.0399 149.01 73.9999C151.55 73.9599 152.81 74.4299 152.81 75.2699V83.4099C152.82 84.2599 151.55 84.6799 149.01 84.6799ZM141.4 84.6799C141.4 87.2199 143.94 88.4799 149.01 88.4799C154.08 88.4799 156.62 87.2199 156.62 84.6799V73.9999C156.62 71.4599 154.08 70.1999 149.01 70.1999C143.94 70.1999 141.4 71.4699 141.4 73.9999V84.6799ZM130 70.1999H128.73C127.89 70.1999 127.47 70.6299 127.47 71.4599V84.6799C127.47 87.2199 130.01 88.4799 135.08 88.4799H137.62C138.47 88.4799 138.88 88.0599 138.88 87.2199V85.9499C138.88 85.0999 138.46 84.6899 137.62 84.6899H135.08C132.54 84.6899 131.27 84.2699 131.27 83.4199V71.4599C131.26 70.6199 130.85 70.1999 130 70.1999ZM117.49 77.0599H117.33C112.26 77.0599 109.72 78.3199 109.72 80.8599V84.6699C109.72 87.2099 112.26 88.4699 117.33 88.4699H123.67C124.52 88.4699 124.94 88.0499 124.94 87.2099V73.9999C124.94 71.4599 122.4 70.1999 117.33 70.1999H110.98C110.14 70.1999 109.72 70.6299 109.72 71.4599V72.7299C109.72 73.5699 110.14 73.9899 110.98 73.9899H118.59C120.29 73.9899 121.13 74.4099 121.13 75.2599C121.13 78.2199 121.13 80.4399 121.13 83.3999C121.13 84.2499 120.71 84.6699 119.87 84.6699H117.33C114.79 84.6699 113.52 84.2499 113.52 83.3999V82.1399C113.52 81.2899 114.79 80.8699 117.33 80.8699H117.98V80.8599C118.78 80.8399 119.18 80.4199 119.18 79.5999V78.3299C119.18 77.4899 118.76 77.0699 117.92 77.0699H117.49V77.0599ZM166.59 77.7999H166.76C169.3 77.7999 170.56 77.3799 170.56 76.5299V75.2699C170.56 74.4199 169.29 73.9999 166.76 73.9999H164.22C163.37 73.9999 162.95 74.4199 162.95 75.2699C162.95 79.4999 162.95 82.9899 162.95 87.2199C162.95 88.0599 162.53 88.4799 161.69 88.4799H160.42C159.58 88.4799 159.16 88.0599 159.16 87.2199V71.4599C159.16 70.6199 159.58 70.1999 160.42 70.1999H166.77C171.84 70.1999 174.38 71.4699 174.38 73.9999V77.8099C174.38 80.3499 171.84 81.6099 166.77 81.6099H166.29H166.17C165.33 81.6099 164.91 81.1899 164.91 80.3499V79.0799C164.91 78.2399 165.33 77.8199 166.17 77.8199H166.59V77.7999ZM198.6 77.0599H198.44C193.37 77.0599 190.83 78.3199 190.83 80.8599V84.6699C190.83 87.2099 193.37 88.4699 198.44 88.4699H204.78C205.63 88.4699 206.05 88.0499 206.05 87.2099V73.9999C206.05 71.4599 203.51 70.1999 198.44 70.1999H192.09C191.25 70.1999 190.83 70.6299 190.83 71.4599V72.7299C190.83 73.5699 191.25 73.9899 192.09 73.9899H199.7C201.4 73.9899 202.24 74.4099 202.24 75.2599C202.24 78.2199 202.24 80.4399 202.24 83.3999C202.24 84.2499 201.82 84.6699 200.98 84.6699H198.44C195.9 84.6699 194.63 84.2499 194.63 83.3999V82.1399C194.63 81.2899 195.9 80.8699 198.44 80.8699H199.09V80.8599C199.89 80.8399 200.29 80.4199 200.29 79.5999V78.3299C200.29 77.4899 199.87 77.0699 199.03 77.0699H198.6V77.0599ZM99.5797 70.1999C94.5097 70.1999 91.9697 71.4699 91.9697 73.9999V84.6799C91.9697 87.2199 94.5097 88.4799 99.5797 88.4799C104.65 88.4799 107.19 87.2199 107.19 84.6799V78.3299C107.19 77.4799 106.77 77.0699 105.92 77.0699H100.85C100.01 77.0699 99.5897 77.4899 99.5897 78.3299V79.5999C99.5897 80.4399 100.01 80.8599 100.85 80.8599H102.12C102.97 80.8599 103.38 81.2799 103.38 82.1299V83.3899C103.38 84.2399 102.12 84.6599 99.5797 84.6599C97.0397 84.6599 95.7697 84.2399 95.7697 83.3899V75.2499C95.7697 74.3999 97.0397 73.9799 99.5797 73.9799H105.92C106.77 73.9799 107.19 73.5599 107.19 72.7199V71.4499C107.19 70.6099 106.76 70.1899 105.92 70.1899H99.5797V70.1999Z" fill="#1D1D1B"/>
<path d="M184.51 100.7H183.82C183.53 100.7 183.28 100.72 183.07 100.76C182.86 100.8 182.7 100.87 182.56 100.95C182.43 101.04 182.34 101.14 182.27 101.27C182.21 101.39 182.18 101.53 182.18 101.69C182.18 101.96 182.26 102.17 182.44 102.33C182.61 102.49 182.85 102.56 183.15 102.56C183.41 102.56 183.64 102.5 183.86 102.37C184.07 102.24 184.29 102.05 184.51 101.8V100.7ZM186.3 103.46C186.3 103.53 186.28 103.58 186.23 103.62C186.18 103.66 186.11 103.68 186 103.7C185.9 103.72 185.74 103.73 185.54 103.73C185.32 103.73 185.17 103.72 185.07 103.7C184.97 103.68 184.9 103.66 184.86 103.62C184.82 103.58 184.8 103.53 184.8 103.46V102.95C184.54 103.23 184.23 103.45 183.9 103.62C183.56 103.78 183.18 103.86 182.77 103.86C182.43 103.86 182.11 103.82 181.83 103.73C181.54 103.64 181.3 103.51 181.09 103.33C180.88 103.15 180.72 102.94 180.6 102.68C180.48 102.42 180.43 102.12 180.43 101.77C180.43 101.39 180.5 101.07 180.65 100.79C180.8 100.51 181.02 100.29 181.31 100.1C181.6 99.9198 181.96 99.7898 182.4 99.6998C182.83 99.6098 183.34 99.5698 183.91 99.5698H184.54V99.1798C184.54 98.9798 184.52 98.7998 184.48 98.6498C184.44 98.4998 184.37 98.3698 184.28 98.2698C184.19 98.1698 184.06 98.0898 183.91 98.0498C183.75 97.9998 183.56 97.9798 183.33 97.9798C183.03 97.9798 182.76 98.0098 182.52 98.0798C182.28 98.1498 182.07 98.2198 181.89 98.2998C181.71 98.3798 181.56 98.4598 181.43 98.5198C181.31 98.5898 181.21 98.6198 181.13 98.6198C181.08 98.6198 181.03 98.5998 180.99 98.5698C180.95 98.5398 180.92 98.4898 180.89 98.4198C180.87 98.3598 180.84 98.2798 180.83 98.1898C180.81 98.0998 180.81 97.9998 180.81 97.8798C180.81 97.7298 180.82 97.6098 180.84 97.5298C180.86 97.4398 180.91 97.3598 180.98 97.2998C181.05 97.2298 181.16 97.1498 181.33 97.0698C181.5 96.9898 181.7 96.9098 181.92 96.8398C182.14 96.7698 182.39 96.7098 182.66 96.6598C182.93 96.6098 183.2 96.5898 183.49 96.5898C184 96.5898 184.43 96.6398 184.79 96.7398C185.15 96.8398 185.44 96.9898 185.67 97.1998C185.9 97.3998 186.07 97.6698 186.18 97.9898C186.29 98.3098 186.34 98.6998 186.34 99.1398V103.46H186.3ZM179.35 103.4C179.36 103.52 179.3 103.6 179.18 103.65C179.06 103.7 178.85 103.72 178.54 103.72C178.35 103.72 178.2 103.72 178.09 103.71C177.98 103.71 177.89 103.69 177.83 103.67C177.77 103.65 177.73 103.62 177.71 103.59C177.69 103.56 177.68 103.51 177.67 103.45L177.29 99.9898C177.28 99.8598 177.26 99.7198 177.25 99.5698C177.24 99.4098 177.22 99.2598 177.21 99.0998C177.2 98.9398 177.19 98.7798 177.18 98.6298C177.17 98.4698 177.16 98.3298 177.14 98.2098L177.15 98.0298C177.12 98.1598 177.08 98.2998 177.04 98.4598C177 98.6098 176.95 98.7698 176.91 98.9298C176.86 99.0898 176.81 99.2498 176.77 99.3998C176.73 99.5598 176.69 99.6998 176.65 99.8198L175.52 103.39C175.5 103.45 175.47 103.5 175.43 103.54C175.39 103.58 175.34 103.62 175.27 103.65C175.2 103.68 175.11 103.69 175 103.71C174.89 103.72 174.76 103.73 174.59 103.73C174.44 103.73 174.31 103.72 174.21 103.71C174.11 103.7 174.02 103.68 173.95 103.65C173.88 103.62 173.83 103.59 173.79 103.54C173.75 103.5 173.73 103.44 173.71 103.38L172.6 99.8198C172.56 99.6898 172.52 99.5498 172.47 99.3998C172.43 99.2398 172.38 99.0898 172.33 98.9298C172.28 98.7698 172.24 98.6098 172.2 98.4598C172.16 98.2998 172.12 98.1598 172.09 98.0298L172.1 98.2098C172.09 98.3398 172.08 98.4798 172.07 98.6298C172.06 98.7898 172.05 98.9398 172.03 99.0998C172.01 99.2598 172 99.4098 171.99 99.5698C171.98 99.7198 171.97 99.8598 171.96 99.9898L171.59 103.41C171.58 103.47 171.56 103.52 171.54 103.57C171.52 103.61 171.47 103.64 171.4 103.67C171.33 103.7 171.24 103.71 171.13 103.72C171.01 103.73 170.86 103.73 170.67 103.73C170.5 103.73 170.37 103.72 170.27 103.72C170.17 103.71 170.09 103.69 170.04 103.67C169.98 103.64 169.95 103.61 169.93 103.57C169.91 103.53 169.91 103.48 169.91 103.41L170.54 97.3798C170.56 97.1698 170.63 97.0198 170.74 96.9098C170.85 96.8098 171.02 96.7498 171.25 96.7498H172.17C172.36 96.7498 172.52 96.7598 172.66 96.7898C172.79 96.8198 172.91 96.8698 173.01 96.9398C173.11 97.0098 173.2 97.1098 173.26 97.2398C173.33 97.3598 173.39 97.5198 173.44 97.7098L174.16 99.9198C174.2 100.06 174.25 100.21 174.29 100.37C174.33 100.53 174.38 100.68 174.42 100.84C174.46 101 174.5 101.15 174.54 101.3C174.58 101.45 174.61 101.58 174.64 101.71H174.65C174.68 101.58 174.71 101.44 174.75 101.28C174.79 101.13 174.83 100.97 174.87 100.81C174.91 100.65 174.95 100.49 175 100.34C175.05 100.19 175.09 100.04 175.13 99.9098L175.85 97.7098C175.9 97.5398 175.95 97.3898 176.01 97.2698C176.07 97.1498 176.14 97.0498 176.23 96.9698C176.32 96.8998 176.43 96.8398 176.57 96.7998C176.7 96.7698 176.87 96.7498 177.07 96.7498H177.98C178.21 96.7498 178.38 96.7998 178.49 96.9098C178.6 97.0098 178.67 97.1698 178.69 97.3798L179.35 103.4ZM163.66 99.5098C163.68 98.9998 163.57 98.5998 163.35 98.3098C163.13 98.0198 162.79 97.8698 162.34 97.8698C162.11 97.8698 161.91 97.9098 161.74 97.9998C161.57 98.0898 161.43 98.1998 161.31 98.3498C161.2 98.4998 161.11 98.6698 161.05 98.8698C160.99 99.0698 160.96 99.2798 160.95 99.5098H163.66ZM165.42 100.03C165.42 100.25 165.37 100.41 165.27 100.52C165.17 100.63 165.04 100.68 164.86 100.68H160.94C160.94 100.96 160.97 101.2 161.04 101.43C161.11 101.65 161.21 101.84 161.35 102C161.49 102.16 161.68 102.28 161.9 102.36C162.12 102.44 162.39 102.48 162.71 102.48C163.03 102.48 163.31 102.46 163.55 102.41C163.79 102.36 164 102.31 164.18 102.26C164.35 102.21 164.5 102.15 164.62 102.11C164.74 102.06 164.83 102.04 164.9 102.04C164.94 102.04 164.98 102.05 165.01 102.06C165.04 102.08 165.06 102.11 165.08 102.15C165.1 102.19 165.11 102.25 165.12 102.33C165.13 102.41 165.13 102.51 165.13 102.63C165.13 102.74 165.13 102.83 165.12 102.9C165.11 102.97 165.11 103.04 165.1 103.09C165.09 103.14 165.08 103.19 165.06 103.22C165.04 103.26 165.02 103.29 164.98 103.32C164.95 103.35 164.86 103.4 164.72 103.46C164.58 103.52 164.4 103.57 164.19 103.63C163.97 103.68 163.73 103.73 163.45 103.77C163.17 103.81 162.87 103.83 162.55 103.83C161.98 103.83 161.48 103.76 161.04 103.61C160.61 103.47 160.25 103.25 159.96 102.95C159.67 102.66 159.46 102.28 159.31 101.84C159.17 101.39 159.1 100.87 159.1 100.27C159.1 99.6998 159.17 99.1798 159.32 98.7198C159.47 98.2598 159.68 97.8698 159.97 97.5498C160.26 97.2298 160.6 96.9898 161.01 96.8198C161.42 96.6498 161.88 96.5698 162.39 96.5698C162.93 96.5698 163.39 96.6498 163.77 96.8098C164.15 96.9698 164.47 97.1898 164.71 97.4698C164.96 97.7498 165.14 98.0798 165.25 98.4698C165.37 98.8498 165.42 99.2698 165.42 99.7198V100.03ZM153.04 101.37C153.04 101.2 153.02 101.05 152.97 100.92C152.92 100.79 152.84 100.68 152.72 100.58C152.61 100.49 152.46 100.41 152.28 100.37C152.1 100.32 151.87 100.3 151.61 100.3C151.45 100.3 151.3 100.3 151.16 100.31C151.02 100.32 150.89 100.33 150.77 100.34V102.42C150.91 102.43 151.05 102.45 151.18 102.46C151.32 102.47 151.47 102.47 151.65 102.47C152.13 102.47 152.48 102.37 152.71 102.18C152.93 101.98 153.04 101.72 153.04 101.37ZM150.77 98.9798C150.94 98.9598 151.1 98.9498 151.27 98.9398C151.44 98.9298 151.62 98.9298 151.83 98.9298C152.36 98.9298 152.82 98.9798 153.2 99.0898C153.58 99.1998 153.9 99.3498 154.15 99.5598C154.4 99.7598 154.59 100.01 154.71 100.29C154.83 100.58 154.89 100.9 154.89 101.27C154.89 101.65 154.82 102 154.69 102.31C154.55 102.63 154.34 102.89 154.06 103.12C153.78 103.34 153.42 103.52 152.99 103.64C152.56 103.76 152.04 103.82 151.44 103.82C151.28 103.82 151.12 103.82 150.95 103.82C150.79 103.82 150.63 103.81 150.47 103.81C150.31 103.8 150.16 103.8 150.01 103.79C149.86 103.78 149.72 103.77 149.58 103.75C149.35 103.73 149.18 103.66 149.08 103.54C148.98 103.43 148.92 103.25 148.92 103.02V96.9998C148.92 96.9498 148.93 96.9098 148.96 96.8698C148.99 96.8298 149.04 96.7998 149.1 96.7798C149.17 96.7598 149.26 96.7398 149.37 96.7298C149.48 96.7198 149.62 96.7098 149.78 96.7098C150.13 96.7098 150.37 96.7298 150.52 96.7798C150.66 96.8298 150.73 96.8998 150.73 96.9998V98.9798H150.77ZM157.65 103.44C157.65 103.49 157.64 103.53 157.61 103.57C157.58 103.6 157.53 103.64 157.46 103.66C157.39 103.68 157.3 103.7 157.19 103.71C157.07 103.72 156.93 103.73 156.74 103.73C156.57 103.73 156.42 103.72 156.31 103.71C156.19 103.7 156.1 103.68 156.03 103.66C155.96 103.64 155.91 103.61 155.88 103.57C155.85 103.53 155.84 103.49 155.84 103.44V96.9998C155.84 96.9498 155.85 96.9098 155.88 96.8698C155.91 96.8298 155.96 96.7998 156.03 96.7798C156.1 96.7598 156.19 96.7398 156.31 96.7298C156.42 96.7198 156.57 96.7098 156.74 96.7098C156.92 96.7098 157.07 96.7198 157.19 96.7298C157.31 96.7398 157.4 96.7598 157.46 96.7798C157.53 96.7998 157.58 96.8298 157.61 96.8698C157.64 96.8998 157.65 96.9498 157.65 96.9998V103.44ZM147.12 103.44C147.12 103.49 147.11 103.53 147.08 103.57C147.05 103.6 147 103.64 146.93 103.66C146.86 103.68 146.77 103.7 146.65 103.71C146.53 103.72 146.39 103.73 146.21 103.73C146.03 103.73 145.89 103.72 145.77 103.71C145.65 103.7 145.56 103.68 145.49 103.66C145.42 103.64 145.37 103.61 145.35 103.57C145.32 103.53 145.31 103.49 145.31 103.44V100.91H142.7V103.44C142.7 103.49 142.69 103.53 142.66 103.57C142.63 103.6 142.58 103.64 142.51 103.66C142.44 103.68 142.35 103.7 142.23 103.71C142.11 103.72 141.97 103.73 141.79 103.73C141.61 103.73 141.46 103.72 141.35 103.71C141.23 103.7 141.14 103.68 141.07 103.66C141 103.64 140.95 103.61 140.92 103.57C140.89 103.53 140.88 103.49 140.88 103.44V96.9998C140.88 96.9498 140.89 96.9098 140.92 96.8698C140.95 96.8298 141 96.7998 141.07 96.7798C141.14 96.7598 141.23 96.7398 141.35 96.7298C141.46 96.7198 141.61 96.7098 141.79 96.7098C141.97 96.7098 142.12 96.7198 142.23 96.7298C142.35 96.7398 142.44 96.7598 142.51 96.7798C142.58 96.7998 142.63 96.8298 142.66 96.8698C142.69 96.8998 142.7 96.9498 142.7 96.9998V99.4098H145.31V96.9998C145.31 96.9498 145.32 96.9098 145.35 96.8698C145.38 96.8298 145.43 96.7998 145.49 96.7798C145.56 96.7598 145.65 96.7398 145.77 96.7298C145.89 96.7198 146.04 96.7098 146.21 96.7098C146.39 96.7098 146.53 96.7198 146.65 96.7298C146.77 96.7398 146.86 96.7598 146.93 96.7798C147 96.7998 147.05 96.8298 147.08 96.8698C147.11 96.8998 147.12 96.9498 147.12 96.9998V103.44ZM139.07 103.44C139.07 103.49 139.06 103.53 139.03 103.57C139 103.6 138.95 103.64 138.88 103.66C138.81 103.68 138.72 103.7 138.6 103.71C138.48 103.72 138.34 103.73 138.16 103.73C137.98 103.73 137.84 103.72 137.72 103.71C137.6 103.7 137.51 103.68 137.44 103.66C137.37 103.64 137.32 103.61 137.29 103.57C137.27 103.53 137.25 103.49 137.25 103.44V101.22C137.01 101.32 136.76 101.4 136.5 101.45C136.23 101.5 135.94 101.53 135.62 101.53C135.13 101.53 134.73 101.47 134.41 101.36C134.09 101.24 133.83 101.08 133.64 100.87C133.45 100.66 133.31 100.42 133.23 100.14C133.15 99.8598 133.11 99.4998 133.11 99.0698V96.9998C133.11 96.9498 133.12 96.9098 133.15 96.8698C133.17 96.8298 133.22 96.7998 133.29 96.7798C133.36 96.7598 133.45 96.7398 133.57 96.7298C133.69 96.7198 133.83 96.7098 134.01 96.7098C134.19 96.7098 134.34 96.7198 134.45 96.7298C134.56 96.7398 134.66 96.7598 134.73 96.7798C134.8 96.7998 134.85 96.8298 134.88 96.8698C134.91 96.8998 134.92 96.9498 134.92 96.9998V98.7998C134.92 99.1198 134.94 99.3498 134.99 99.4998C135.04 99.6498 135.11 99.7698 135.19 99.8498C135.28 99.9398 135.38 99.9998 135.51 100.04C135.64 100.08 135.78 100.09 135.94 100.09C136.17 100.09 136.4 100.06 136.62 100.01C136.84 99.9598 137.05 99.8698 137.27 99.7698V96.9998C137.27 96.9498 137.28 96.9098 137.31 96.8698C137.34 96.8298 137.39 96.7998 137.46 96.7798C137.53 96.7598 137.62 96.7398 137.74 96.7298C137.86 96.7198 138.01 96.7098 138.18 96.7098C138.36 96.7098 138.5 96.7198 138.62 96.7298C138.74 96.7398 138.83 96.7598 138.9 96.7798C138.97 96.7998 139.02 96.8298 139.05 96.8698C139.08 96.8998 139.09 96.9498 139.09 96.9998V103.44H139.07ZM130.36 100.23C130.36 99.9098 130.34 99.6198 130.28 99.3498C130.23 99.0798 130.14 98.8498 130.02 98.6498C129.9 98.4498 129.74 98.2998 129.54 98.1898C129.34 98.0798 129.09 98.0198 128.79 98.0198C128.52 98.0198 128.28 98.0698 128.08 98.1698C127.88 98.2698 127.71 98.4098 127.58 98.5998C127.45 98.7898 127.35 99.0198 127.29 99.2898C127.23 99.5598 127.19 99.8598 127.19 100.2C127.19 100.52 127.21 100.81 127.27 101.08C127.32 101.35 127.41 101.58 127.53 101.78C127.65 101.98 127.81 102.13 128.01 102.24C128.21 102.35 128.46 102.4 128.76 102.4C129.04 102.4 129.27 102.35 129.48 102.25C129.68 102.15 129.85 102.01 129.98 101.82C130.11 101.63 130.2 101.41 130.27 101.14C130.32 100.87 130.36 100.57 130.36 100.23ZM132.23 100.15C132.23 100.7 132.16 101.2 132.01 101.65C131.86 102.1 131.64 102.49 131.35 102.82C131.06 103.15 130.69 103.4 130.25 103.58C129.81 103.76 129.29 103.85 128.7 103.85C128.13 103.85 127.63 103.77 127.21 103.61C126.79 103.45 126.43 103.22 126.16 102.92C125.88 102.62 125.67 102.24 125.54 101.8C125.4 101.36 125.34 100.85 125.34 100.28C125.34 99.7298 125.41 99.2298 125.56 98.7698C125.71 98.3198 125.93 97.9298 126.22 97.5998C126.52 97.2798 126.88 97.0198 127.32 96.8498C127.76 96.6698 128.28 96.5798 128.87 96.5798C129.45 96.5798 129.95 96.6598 130.37 96.8098C130.79 96.9698 131.14 97.1998 131.42 97.4998C131.7 97.7998 131.9 98.1798 132.04 98.6198C132.16 99.0698 132.23 99.5798 132.23 100.15ZM124.25 103.4C124.26 103.52 124.2 103.6 124.08 103.65C123.96 103.7 123.75 103.72 123.44 103.72C123.25 103.72 123.1 103.72 122.99 103.71C122.88 103.71 122.79 103.69 122.73 103.67C122.67 103.65 122.63 103.62 122.61 103.59C122.59 103.56 122.58 103.51 122.57 103.45L122.19 99.9898C122.18 99.8598 122.16 99.7198 122.15 99.5698C122.14 99.4098 122.12 99.2598 122.11 99.0998C122.1 98.9398 122.09 98.7798 122.08 98.6298C122.07 98.4698 122.06 98.3298 122.04 98.2098L122.05 98.0298C122.02 98.1598 121.98 98.2998 121.94 98.4598C121.9 98.6098 121.85 98.7698 121.81 98.9298C121.76 99.0898 121.71 99.2498 121.67 99.3998C121.63 99.5598 121.59 99.6998 121.55 99.8198L120.42 103.39C120.4 103.45 120.37 103.5 120.33 103.54C120.29 103.58 120.24 103.62 120.17 103.65C120.1 103.68 120.01 103.69 119.9 103.71C119.79 103.72 119.66 103.73 119.49 103.73C119.34 103.73 119.21 103.72 119.11 103.71C119.01 103.7 118.92 103.68 118.85 103.65C118.78 103.62 118.73 103.59 118.69 103.54C118.65 103.5 118.63 103.44 118.61 103.38L117.5 99.8198C117.46 99.6898 117.42 99.5498 117.37 99.3998C117.33 99.2398 117.28 99.0898 117.23 98.9298C117.18 98.7698 117.14 98.6098 117.1 98.4598C117.06 98.2998 117.02 98.1598 116.99 98.0298L117 98.2098C116.99 98.3398 116.98 98.4798 116.97 98.6298C116.96 98.7898 116.95 98.9398 116.93 99.0998C116.91 99.2598 116.9 99.4098 116.89 99.5698C116.88 99.7198 116.87 99.8598 116.86 99.9898L116.49 103.41C116.48 103.47 116.46 103.52 116.44 103.57C116.42 103.61 116.37 103.64 116.3 103.67C116.23 103.7 116.14 103.71 116.03 103.72C115.91 103.73 115.76 103.73 115.57 103.73C115.4 103.73 115.27 103.72 115.17 103.72C115.07 103.71 114.99 103.69 114.94 103.67C114.88 103.64 114.85 103.61 114.83 103.57C114.81 103.53 114.81 103.48 114.81 103.41L115.44 97.3798C115.46 97.1698 115.53 97.0198 115.64 96.9098C115.75 96.8098 115.92 96.7498 116.15 96.7498H117.07C117.26 96.7498 117.42 96.7598 117.56 96.7898C117.69 96.8198 117.81 96.8698 117.91 96.9398C118.01 97.0098 118.1 97.1098 118.16 97.2398C118.23 97.3598 118.29 97.5198 118.34 97.7098L119.06 99.9198C119.1 100.06 119.15 100.21 119.19 100.37C119.23 100.53 119.28 100.68 119.32 100.84C119.36 101 119.4 101.15 119.44 101.3C119.48 101.45 119.51 101.58 119.54 101.71H119.55C119.58 101.58 119.61 101.44 119.65 101.28C119.69 101.13 119.73 100.97 119.77 100.81C119.81 100.65 119.85 100.49 119.9 100.34C119.95 100.19 119.99 100.04 120.04 99.9098L120.76 97.7098C120.81 97.5398 120.86 97.3898 120.92 97.2698C120.98 97.1498 121.05 97.0498 121.14 96.9698C121.23 96.8998 121.34 96.8398 121.48 96.7998C121.61 96.7698 121.78 96.7498 121.98 96.7498H122.89C123.12 96.7498 123.29 96.7998 123.4 96.9098C123.51 97.0098 123.58 97.1698 123.6 97.3798L124.25 103.4ZM111.86 100.23C111.86 99.9098 111.84 99.6198 111.78 99.3498C111.73 99.0798 111.64 98.8498 111.52 98.6498C111.4 98.4498 111.24 98.2998 111.04 98.1898C110.84 98.0798 110.59 98.0198 110.29 98.0198C110.02 98.0198 109.78 98.0698 109.58 98.1698C109.38 98.2698 109.21 98.4098 109.08 98.5998C108.95 98.7898 108.85 99.0198 108.79 99.2898C108.73 99.5598 108.69 99.8598 108.69 100.2C108.69 100.52 108.71 100.81 108.77 101.08C108.82 101.35 108.91 101.58 109.03 101.78C109.15 101.98 109.31 102.13 109.51 102.24C109.71 102.35 109.96 102.4 110.26 102.4C110.54 102.4 110.77 102.35 110.98 102.25C111.18 102.15 111.35 102.01 111.48 101.82C111.61 101.63 111.7 101.41 111.77 101.14C111.82 100.87 111.86 100.57 111.86 100.23ZM113.73 100.15C113.73 100.7 113.66 101.2 113.51 101.65C113.36 102.1 113.15 102.49 112.85 102.82C112.56 103.15 112.19 103.4 111.75 103.58C111.31 103.76 110.79 103.85 110.2 103.85C109.63 103.85 109.13 103.77 108.71 103.61C108.29 103.45 107.93 103.22 107.65 102.92C107.37 102.62 107.16 102.24 107.03 101.8C106.89 101.36 106.83 100.85 106.83 100.28C106.83 99.7298 106.9 99.2298 107.05 98.7698C107.2 98.3198 107.42 97.9298 107.71 97.5998C108.01 97.2798 108.37 97.0198 108.81 96.8498C109.25 96.6698 109.77 96.5798 110.36 96.5798C110.94 96.5798 111.44 96.6598 111.86 96.8098C112.28 96.9698 112.63 97.1998 112.91 97.4998C113.19 97.7998 113.39 98.1798 113.53 98.6198C113.66 99.0698 113.73 99.5798 113.73 100.15ZM103.87 100.25C103.87 99.9798 103.85 99.7098 103.81 99.4598C103.77 99.2098 103.7 98.9798 103.6 98.7798C103.5 98.5798 103.37 98.4298 103.21 98.3098C103.05 98.1898 102.85 98.1298 102.61 98.1298C102.49 98.1298 102.37 98.1498 102.25 98.1798C102.13 98.2198 102.01 98.2798 101.89 98.3598C101.77 98.4398 101.64 98.5498 101.51 98.6798C101.38 98.8098 101.24 98.9698 101.1 99.1598V101.28C101.36 101.6 101.6 101.85 101.83 102.03C102.06 102.21 102.3 102.29 102.55 102.29C102.79 102.29 102.99 102.23 103.15 102.11C103.32 101.99 103.45 101.83 103.56 101.64C103.67 101.45 103.74 101.23 103.8 100.98C103.84 100.75 103.87 100.5 103.87 100.25ZM105.76 100.13C105.76 100.7 105.7 101.22 105.57 101.68C105.45 102.14 105.27 102.53 105.03 102.85C104.79 103.17 104.5 103.42 104.15 103.59C103.8 103.76 103.4 103.85 102.94 103.85C102.75 103.85 102.58 103.83 102.42 103.8C102.26 103.77 102.11 103.71 101.96 103.64C101.81 103.57 101.67 103.47 101.52 103.36C101.38 103.25 101.23 103.12 101.07 102.97V106C101.07 106.05 101.06 106.09 101.03 106.13C101 106.17 100.95 106.2 100.88 106.23C100.81 106.26 100.72 106.28 100.6 106.29C100.48 106.31 100.34 106.31 100.16 106.31C99.9802 106.31 99.8302 106.3 99.7202 106.29C99.6002 106.28 99.5102 106.26 99.4402 106.23C99.3702 106.2 99.3202 106.17 99.2902 106.13C99.2602 106.09 99.2502 106.05 99.2502 106V96.9998C99.2502 96.9498 99.2602 96.9098 99.2902 96.8698C99.3102 96.8298 99.3602 96.7998 99.4202 96.7798C99.4802 96.7598 99.5602 96.7398 99.6602 96.7298C99.7602 96.7198 99.8802 96.7098 100.03 96.7098C100.17 96.7098 100.3 96.7198 100.39 96.7298C100.49 96.7398 100.57 96.7598 100.63 96.7798C100.69 96.7998 100.73 96.8298 100.76 96.8698C100.78 96.8998 100.79 96.9498 100.79 96.9998V97.7598C100.98 97.5698 101.16 97.3998 101.34 97.2498C101.52 97.0998 101.7 96.9798 101.89 96.8798C102.08 96.7798 102.27 96.7098 102.47 96.6598C102.67 96.6098 102.88 96.5898 103.11 96.5898C103.58 96.5898 103.98 96.6798 104.32 96.8698C104.65 97.0498 104.92 97.3098 105.13 97.6298C105.34 97.9498 105.49 98.3298 105.59 98.7598C105.71 99.1798 105.76 99.6398 105.76 100.13ZM98.0102 103.51C98.0102 103.55 98.0002 103.58 97.9702 103.61C97.9402 103.64 97.9002 103.66 97.8302 103.68C97.7602 103.7 97.6702 103.71 97.5502 103.72C97.4302 103.73 97.2802 103.73 97.1102 103.73C96.9102 103.73 96.7402 103.72 96.6102 103.72C96.4802 103.71 96.3802 103.7 96.3002 103.68C96.2202 103.66 96.1702 103.64 96.1402 103.6C96.1102 103.57 96.0802 103.53 96.0602 103.48L95.4602 101.94C95.3902 101.73 95.3102 101.56 95.2302 101.42C95.1502 101.28 95.0502 101.17 94.9502 101.09C94.8502 101.01 94.7302 100.94 94.6002 100.91C94.4702 100.87 94.3202 100.86 94.1502 100.86H93.7802V103.49C93.7802 103.52 93.7702 103.56 93.7302 103.59C93.7002 103.62 93.6402 103.65 93.5702 103.67C93.5002 103.69 93.4002 103.71 93.2902 103.72C93.1702 103.73 93.0402 103.74 92.8702 103.74C92.7002 103.74 92.5602 103.73 92.4402 103.72C92.3302 103.71 92.2302 103.69 92.1602 103.67C92.0902 103.65 92.0402 103.62 92.0002 103.59C91.9702 103.56 91.9502 103.53 91.9502 103.49V96.9698C91.9502 96.9398 91.9602 96.8998 92.0002 96.8698C92.0302 96.8398 92.0802 96.8098 92.1602 96.7898C92.2302 96.7698 92.3302 96.7498 92.4402 96.7398C92.5602 96.7298 92.7002 96.7198 92.8702 96.7198C93.0302 96.7198 93.1702 96.7298 93.2902 96.7398C93.4102 96.7498 93.5002 96.7698 93.5702 96.7898C93.6402 96.8098 93.7002 96.8398 93.7302 96.8698C93.7602 96.8998 93.7802 96.9298 93.7802 96.9698V99.4698H94.1502C94.3002 99.4698 94.4302 99.4498 94.5502 99.4198C94.6702 99.3898 94.7802 99.3198 94.8802 99.2398C94.9802 99.1598 95.0702 99.0398 95.1602 98.8998C95.2402 98.7598 95.3202 98.5898 95.4002 98.3798L95.9402 96.9898C95.9502 96.9398 95.9802 96.8998 96.0102 96.8598C96.0402 96.8198 96.0902 96.7998 96.1702 96.7698C96.2402 96.7498 96.3302 96.7298 96.4602 96.7198C96.5802 96.7098 96.7502 96.6998 96.9502 96.6998C97.1302 96.6998 97.2702 96.7098 97.3902 96.7198C97.5002 96.7298 97.5902 96.7398 97.6602 96.7598C97.7302 96.7798 97.7702 96.7998 97.7902 96.8298C97.8102 96.8598 97.8302 96.8898 97.8302 96.9298C97.8302 96.9798 97.8202 97.0398 97.8002 97.0998C97.7802 97.1698 97.7502 97.2598 97.7002 97.3698L97.1902 98.5998C97.0902 98.8498 96.9802 99.0598 96.8702 99.2298C96.7602 99.3998 96.6402 99.5398 96.5202 99.6498C96.4002 99.7598 96.2802 99.8498 96.1602 99.9198C96.0402 99.9898 95.9302 100.04 95.8102 100.08V100.09C95.9602 100.15 96.1002 100.22 96.2302 100.29C96.3602 100.36 96.4802 100.45 96.6002 100.57C96.7202 100.69 96.8302 100.83 96.9402 101C97.0502 101.17 97.1602 101.37 97.2602 101.62L97.8902 103.06C97.9202 103.12 97.9402 103.18 97.9602 103.22C97.9802 103.26 97.9902 103.31 98.0002 103.34C98.0102 103.37 98.0202 103.41 98.0202 103.43C98.0102 103.47 98.0102 103.49 98.0102 103.51Z" fill="#1D1D1B"/>
<path d="M236.51 101.37C236.51 101.2 236.49 101.05 236.44 100.92C236.39 100.79 236.31 100.68 236.19 100.58C236.08 100.49 235.93 100.41 235.75 100.37C235.57 100.32 235.34 100.3 235.08 100.3C234.92 100.3 234.77 100.3 234.63 100.31C234.49 100.32 234.36 100.33 234.24 100.34V102.42C234.38 102.43 234.52 102.45 234.65 102.46C234.79 102.47 234.94 102.47 235.12 102.47C235.6 102.47 235.95 102.37 236.18 102.18C236.4 101.98 236.51 101.72 236.51 101.37ZM234.24 98.9798C234.41 98.9598 234.57 98.9498 234.74 98.9398C234.91 98.9298 235.1 98.9298 235.3 98.9298C235.83 98.9298 236.29 98.9798 236.67 99.0898C237.05 99.1998 237.37 99.3498 237.62 99.5598C237.87 99.7598 238.06 100.01 238.18 100.29C238.3 100.58 238.36 100.9 238.36 101.27C238.36 101.65 238.29 102 238.16 102.31C238.02 102.63 237.81 102.89 237.53 103.12C237.25 103.34 236.89 103.52 236.46 103.64C236.03 103.76 235.51 103.82 234.91 103.82C234.75 103.82 234.59 103.82 234.42 103.82C234.26 103.82 234.1 103.81 233.94 103.81C233.78 103.8 233.63 103.8 233.48 103.79C233.33 103.78 233.19 103.77 233.05 103.75C232.82 103.73 232.65 103.66 232.55 103.54C232.45 103.43 232.39 103.25 232.39 103.02V96.9998C232.39 96.9498 232.4 96.9098 232.43 96.8698C232.46 96.8298 232.51 96.7998 232.57 96.7798C232.64 96.7598 232.73 96.7398 232.84 96.7298C232.95 96.7198 233.09 96.7098 233.25 96.7098C233.6 96.7098 233.84 96.7298 233.99 96.7798C234.13 96.8298 234.2 96.8998 234.2 96.9998V98.9798H234.24ZM241.12 103.44C241.12 103.49 241.11 103.53 241.08 103.57C241.05 103.6 241 103.64 240.93 103.66C240.86 103.68 240.77 103.7 240.66 103.71C240.54 103.72 240.4 103.73 240.21 103.73C240.04 103.73 239.89 103.72 239.78 103.71C239.66 103.7 239.57 103.68 239.5 103.66C239.43 103.64 239.38 103.61 239.35 103.57C239.32 103.53 239.31 103.49 239.31 103.44V96.9998C239.31 96.9498 239.32 96.9098 239.35 96.8698C239.38 96.8298 239.43 96.7998 239.5 96.7798C239.57 96.7598 239.66 96.7398 239.78 96.7298C239.89 96.7198 240.04 96.7098 240.21 96.7098C240.39 96.7098 240.54 96.7198 240.66 96.7298C240.78 96.7398 240.87 96.7598 240.93 96.7798C241 96.7998 241.05 96.8298 241.08 96.8698C241.11 96.8998 241.12 96.9498 241.12 96.9998V103.44ZM230.6 103.44C230.6 103.49 230.59 103.53 230.56 103.57C230.53 103.6 230.48 103.64 230.41 103.66C230.34 103.68 230.25 103.7 230.13 103.71C230.01 103.72 229.87 103.73 229.69 103.73C229.51 103.73 229.36 103.72 229.25 103.71C229.13 103.7 229.04 103.68 228.97 103.66C228.9 103.64 228.85 103.61 228.83 103.57C228.8 103.53 228.79 103.49 228.79 103.44V98.2298H227.48C227.4 98.9898 227.31 99.6498 227.19 100.22C227.08 100.79 226.95 101.28 226.8 101.7C226.65 102.11 226.49 102.46 226.3 102.73C226.12 103 225.92 103.22 225.71 103.38C225.49 103.54 225.26 103.65 225.01 103.72C224.76 103.79 224.49 103.82 224.21 103.82C224.14 103.82 224.09 103.81 224.04 103.79C224 103.77 223.96 103.73 223.94 103.68C223.92 103.62 223.9 103.54 223.89 103.44C223.88 103.33 223.88 103.2 223.88 103.02C223.88 102.84 223.88 102.7 223.89 102.59C223.9 102.48 223.91 102.39 223.93 102.33C223.95 102.27 223.98 102.23 224.01 102.21C224.04 102.19 224.09 102.18 224.13 102.18C224.27 102.18 224.39 102.15 224.52 102.1C224.64 102.05 224.76 101.95 224.87 101.8C224.98 101.66 225.08 101.47 225.18 101.24C225.28 101.01 225.36 100.71 225.45 100.36C225.53 100.01 225.61 99.5798 225.68 99.0898C225.75 98.5998 225.82 98.0198 225.89 97.3698C225.9 97.1698 225.94 97.0198 226.02 96.9298C226.1 96.8298 226.22 96.7798 226.38 96.7798H230.11C230.28 96.7798 230.4 96.8298 230.48 96.9298C230.56 97.0298 230.6 97.1698 230.6 97.3698V103.44ZM221.05 100.7H220.36C220.07 100.7 219.82 100.72 219.61 100.76C219.4 100.8 219.24 100.87 219.1 100.95C218.97 101.04 218.88 101.14 218.81 101.27C218.75 101.39 218.72 101.53 218.72 101.69C218.72 101.96 218.8 102.17 218.98 102.33C219.15 102.49 219.39 102.56 219.69 102.56C219.95 102.56 220.18 102.5 220.4 102.37C220.61 102.24 220.83 102.05 221.05 101.8V100.7ZM222.83 103.46C222.83 103.53 222.81 103.58 222.76 103.62C222.71 103.66 222.64 103.68 222.53 103.7C222.43 103.72 222.27 103.73 222.07 103.73C221.85 103.73 221.7 103.72 221.6 103.7C221.5 103.68 221.43 103.66 221.39 103.62C221.35 103.58 221.33 103.53 221.33 103.46V102.95C221.07 103.23 220.76 103.45 220.43 103.62C220.09 103.78 219.71 103.86 219.3 103.86C218.96 103.86 218.64 103.82 218.36 103.73C218.07 103.64 217.83 103.51 217.62 103.33C217.41 103.15 217.25 102.94 217.13 102.68C217.01 102.42 216.96 102.12 216.96 101.77C216.96 101.39 217.03 101.07 217.18 100.79C217.33 100.51 217.55 100.29 217.84 100.1C218.13 99.9198 218.49 99.7898 218.93 99.6998C219.36 99.6098 219.87 99.5698 220.44 99.5698H221.07V99.1798C221.07 98.9798 221.05 98.7998 221.01 98.6498C220.97 98.4998 220.9 98.3698 220.81 98.2698C220.72 98.1698 220.59 98.0898 220.44 98.0498C220.28 97.9998 220.09 97.9798 219.86 97.9798C219.56 97.9798 219.29 98.0098 219.05 98.0798C218.81 98.1498 218.6 98.2198 218.42 98.2998C218.24 98.3798 218.08 98.4598 217.96 98.5198C217.84 98.5898 217.74 98.6198 217.66 98.6198C217.61 98.6198 217.56 98.5998 217.52 98.5698C217.48 98.5398 217.45 98.4898 217.42 98.4198C217.39 98.3598 217.37 98.2798 217.36 98.1898C217.34 98.0998 217.34 97.9998 217.34 97.8798C217.34 97.7298 217.35 97.6098 217.37 97.5298C217.39 97.4398 217.44 97.3598 217.51 97.2998C217.58 97.2298 217.69 97.1498 217.86 97.0698C218.03 96.9898 218.23 96.9098 218.45 96.8398C218.67 96.7698 218.92 96.7098 219.19 96.6598C219.46 96.6098 219.73 96.5898 220.02 96.5898C220.53 96.5898 220.96 96.6398 221.32 96.7398C221.68 96.8398 221.97 96.9898 222.2 97.1998C222.43 97.3998 222.6 97.6698 222.71 97.9898C222.82 98.3098 222.87 98.6998 222.87 99.1398V103.46H222.83ZM215.52 103.46C215.52 103.51 215.51 103.55 215.48 103.58C215.45 103.61 215.41 103.64 215.34 103.66C215.27 103.68 215.18 103.7 215.07 103.71C214.96 103.72 214.81 103.72 214.64 103.72C214.47 103.72 214.32 103.71 214.2 103.71C214.08 103.7 213.99 103.68 213.91 103.66C213.84 103.64 213.78 103.61 213.75 103.58C213.72 103.55 213.7 103.51 213.7 103.46V100.59C213.7 100.39 213.71 100.18 213.72 99.9598C213.73 99.7398 213.75 99.5298 213.77 99.3198C213.65 99.5198 213.53 99.7198 213.39 99.9198C213.26 100.11 213.12 100.31 212.98 100.5L210.81 103.45C210.77 103.5 210.73 103.55 210.69 103.58C210.65 103.62 210.6 103.65 210.54 103.67C210.48 103.69 210.4 103.7 210.31 103.71C210.22 103.72 210.1 103.72 209.96 103.72C209.78 103.72 209.64 103.71 209.54 103.71C209.43 103.7 209.35 103.68 209.28 103.66C209.22 103.64 209.17 103.61 209.14 103.57C209.11 103.53 209.1 103.49 209.1 103.44V96.9798C209.1 96.9398 209.11 96.8998 209.14 96.8598C209.17 96.8198 209.22 96.7898 209.29 96.7698C209.36 96.7498 209.45 96.7298 209.56 96.7198C209.67 96.7098 209.82 96.6998 209.99 96.6998C210.33 96.6998 210.57 96.7198 210.71 96.7698C210.85 96.8198 210.92 96.8898 210.92 96.9798V99.8398C210.92 100.04 210.91 100.24 210.9 100.45C210.89 100.66 210.87 100.87 210.84 101.06C210.96 100.87 211.07 100.68 211.19 100.49C211.31 100.3 211.44 100.12 211.57 99.9398L213.77 96.9798C213.81 96.9298 213.85 96.8798 213.89 96.8498C213.93 96.8098 213.99 96.7898 214.05 96.7598C214.12 96.7398 214.19 96.7198 214.29 96.7098C214.38 96.6998 214.5 96.6898 214.65 96.6898C214.82 96.6898 214.96 96.6998 215.07 96.7098C215.18 96.7198 215.27 96.7398 215.33 96.7598C215.39 96.7798 215.44 96.8198 215.46 96.8498C215.48 96.8898 215.5 96.9298 215.5 96.9798V103.46H215.52ZM205.76 100.25C205.76 99.9798 205.74 99.7098 205.7 99.4598C205.66 99.2098 205.59 98.9798 205.49 98.7798C205.39 98.5798 205.26 98.4298 205.1 98.3098C204.94 98.1898 204.74 98.1298 204.5 98.1298C204.38 98.1298 204.26 98.1498 204.14 98.1798C204.02 98.2198 203.9 98.2798 203.78 98.3598C203.66 98.4398 203.53 98.5498 203.4 98.6798C203.27 98.8098 203.13 98.9698 202.99 99.1598V101.28C203.25 101.6 203.49 101.85 203.72 102.03C203.95 102.21 204.19 102.29 204.44 102.29C204.68 102.29 204.88 102.23 205.04 102.11C205.21 101.99 205.34 101.83 205.45 101.64C205.56 101.45 205.63 101.23 205.69 100.98C205.74 100.75 205.76 100.5 205.76 100.25ZM207.66 100.13C207.66 100.7 207.6 101.22 207.47 101.68C207.35 102.14 207.17 102.53 206.93 102.85C206.69 103.17 206.4 103.42 206.05 103.59C205.7 103.76 205.3 103.85 204.84 103.85C204.65 103.85 204.48 103.83 204.32 103.8C204.16 103.77 204.01 103.71 203.86 103.64C203.71 103.57 203.57 103.47 203.42 103.36C203.27 103.25 203.13 103.12 202.97 102.97V106C202.97 106.05 202.96 106.09 202.93 106.13C202.9 106.17 202.85 106.2 202.78 106.23C202.71 106.26 202.62 106.28 202.5 106.29C202.38 106.31 202.24 106.31 202.06 106.31C201.88 106.31 201.73 106.3 201.62 106.29C201.5 106.28 201.41 106.26 201.34 106.23C201.27 106.2 201.22 106.17 201.19 106.13C201.16 106.09 201.15 106.05 201.15 106V96.9998C201.15 96.9498 201.16 96.9098 201.19 96.8698C201.21 96.8298 201.26 96.7998 201.32 96.7798C201.38 96.7598 201.46 96.7398 201.56 96.7298C201.66 96.7198 201.78 96.7098 201.93 96.7098C202.07 96.7098 202.2 96.7198 202.29 96.7298C202.39 96.7398 202.47 96.7598 202.53 96.7798C202.59 96.7998 202.63 96.8298 202.66 96.8698C202.68 96.8998 202.69 96.9498 202.69 96.9998V97.7598C202.88 97.5698 203.06 97.3998 203.24 97.2498C203.42 97.0998 203.6 96.9798 203.79 96.8798C203.98 96.7798 204.17 96.7098 204.37 96.6598C204.57 96.6098 204.78 96.5898 205.01 96.5898C205.48 96.5898 205.88 96.6798 206.22 96.8698C206.55 97.0498 206.82 97.3098 207.03 97.6298C207.24 97.9498 207.39 98.3298 207.49 98.7598C207.61 99.1798 207.66 99.6398 207.66 100.13ZM197.92 99.5098C197.94 98.9998 197.83 98.5998 197.61 98.3098C197.39 98.0198 197.05 97.8698 196.59 97.8698C196.36 97.8698 196.16 97.9098 195.99 97.9998C195.82 98.0898 195.68 98.1998 195.56 98.3498C195.45 98.4998 195.36 98.6698 195.3 98.8698C195.24 99.0698 195.21 99.2798 195.2 99.5098H197.92ZM199.68 100.03C199.68 100.25 199.63 100.41 199.53 100.52C199.43 100.63 199.3 100.68 199.12 100.68H195.2C195.2 100.96 195.23 101.2 195.3 101.43C195.37 101.65 195.47 101.84 195.61 102C195.75 102.16 195.94 102.28 196.16 102.36C196.38 102.44 196.65 102.48 196.97 102.48C197.29 102.48 197.57 102.46 197.81 102.41C198.05 102.36 198.26 102.31 198.44 102.26C198.61 102.21 198.76 102.15 198.88 102.11C199 102.06 199.09 102.04 199.16 102.04C199.2 102.04 199.24 102.05 199.27 102.06C199.3 102.08 199.32 102.11 199.34 102.15C199.36 102.19 199.37 102.25 199.38 102.33C199.39 102.41 199.39 102.51 199.39 102.63C199.39 102.74 199.39 102.83 199.38 102.9C199.37 102.97 199.37 103.04 199.36 103.09C199.35 103.14 199.34 103.19 199.32 103.22C199.3 103.26 199.28 103.29 199.24 103.32C199.21 103.35 199.12 103.4 198.98 103.46C198.84 103.52 198.66 103.57 198.45 103.63C198.23 103.68 197.99 103.73 197.71 103.77C197.43 103.81 197.13 103.83 196.81 103.83C196.24 103.83 195.74 103.76 195.3 103.61C194.87 103.47 194.51 103.25 194.22 102.95C193.93 102.66 193.72 102.28 193.57 101.84C193.43 101.39 193.36 100.87 193.36 100.27C193.36 99.6998 193.43 99.1798 193.58 98.7198C193.73 98.2598 193.94 97.8698 194.23 97.5498C194.52 97.2298 194.86 96.9898 195.27 96.8198C195.68 96.6498 196.14 96.5698 196.65 96.5698C197.19 96.5698 197.65 96.6498 198.03 96.8098C198.41 96.9698 198.73 97.1898 198.97 97.4698C199.22 97.7498 199.4 98.0798 199.51 98.4698C199.63 98.8498 199.68 99.2698 199.68 99.7198V100.03ZM192.84 97.5598C192.84 97.7198 192.83 97.8498 192.82 97.9598C192.81 98.0698 192.79 98.1498 192.77 98.2098C192.75 98.2698 192.72 98.3198 192.68 98.3398C192.64 98.3598 192.6 98.3798 192.56 98.3798H190.94V103.45C190.94 103.5 190.93 103.54 190.9 103.58C190.87 103.61 190.82 103.65 190.75 103.67C190.68 103.69 190.59 103.71 190.47 103.72C190.35 103.73 190.2 103.74 190.03 103.74C189.86 103.74 189.71 103.73 189.6 103.72C189.48 103.71 189.39 103.69 189.32 103.67C189.25 103.65 189.2 103.62 189.18 103.58C189.15 103.54 189.14 103.5 189.14 103.45V98.3798H187.52C187.47 98.3798 187.43 98.3698 187.39 98.3398C187.36 98.3098 187.32 98.2698 187.3 98.1998C187.27 98.1398 187.26 98.0498 187.25 97.9398C187.24 97.8298 187.23 97.6898 187.23 97.5398C187.23 97.3898 187.24 97.2698 187.25 97.1798C187.26 97.0798 187.28 96.9998 187.31 96.9398C187.33 96.8798 187.36 96.8298 187.4 96.8098C187.43 96.7798 187.47 96.7698 187.52 96.7698H192.57C192.61 96.7698 192.65 96.7798 192.69 96.8098C192.72 96.8298 192.76 96.8798 192.78 96.9398C192.8 96.9998 192.82 97.0898 192.83 97.1898C192.83 97.2798 192.84 97.3998 192.84 97.5598Z" fill="#1D1D1B"/>
<path d="M253.75 65.6901C253.01 64.9501 251.98 64.4901 250.85 64.4901C249.72 64.4901 248.69 64.9501 247.95 65.6901C247.21 66.4301 246.75 67.4601 246.75 68.5901C246.75 69.7201 247.21 70.7501 247.95 71.4901C248.69 72.2301 249.72 72.6901 250.85 72.6901C251.98 72.6901 253.01 72.2301 253.75 71.4901C254.49 70.7501 254.95 69.7201 254.95 68.5901C254.95 67.4601 254.49 66.4301 253.75 65.6901ZM250.85 63.5801C252.23 63.5801 253.49 64.1401 254.39 65.0501C255.3 65.9601 255.86 67.2101 255.86 68.5901C255.86 69.9701 255.3 71.2201 254.39 72.1301C253.48 73.0401 252.23 73.6001 250.85 73.6001C249.47 73.6001 248.22 73.0401 247.31 72.1301C246.4 71.2201 245.84 69.9701 245.84 68.5901C245.84 67.2101 246.4 65.9601 247.31 65.0501C248.22 64.1401 249.47 63.5801 250.85 63.5801Z" fill="#1D1D1B"/>
<path d="M251.77 67.36C251.77 67.18 251.73 67.02 251.65 66.9C251.57 66.77 251.43 66.68 251.24 66.63C251.18 66.62 251.12 66.6 251.05 66.6C250.98 66.59 250.88 66.59 250.75 66.59H250.24V68.16H250.81C250.97 68.16 251.11 68.14 251.23 68.1C251.35 68.06 251.45 68.01 251.53 67.94C251.61 67.87 251.67 67.79 251.71 67.69C251.75 67.59 251.77 67.48 251.77 67.36ZM253.23 71.13C253.23 71.16 253.22 71.19 253.21 71.21C253.2 71.23 253.17 71.25 253.13 71.26C253.09 71.27 253.02 71.28 252.94 71.29C252.86 71.3 252.74 71.3 252.6 71.3C252.48 71.3 252.38 71.3 252.31 71.29C252.24 71.28 252.18 71.27 252.14 71.26C252.1 71.24 252.07 71.22 252.05 71.2C252.03 71.18 252.02 71.15 252.01 71.11L251.51 69.87C251.45 69.73 251.39 69.61 251.33 69.5C251.27 69.39 251.21 69.3 251.14 69.23C251.07 69.16 250.99 69.1 250.9 69.06C250.81 69.02 250.7 69 250.58 69H250.23V71.12C250.23 71.15 250.22 71.17 250.2 71.2C250.18 71.22 250.15 71.24 250.11 71.26C250.07 71.27 250.01 71.29 249.94 71.3C249.87 71.31 249.78 71.31 249.67 71.31C249.56 71.31 249.47 71.31 249.4 71.3C249.33 71.29 249.27 71.28 249.23 71.26C249.19 71.25 249.16 71.23 249.14 71.2C249.12 71.18 249.11 71.15 249.11 71.12V66.08C249.11 65.95 249.14 65.86 249.21 65.81C249.27 65.75 249.35 65.73 249.45 65.73H250.89C251.04 65.73 251.16 65.73 251.25 65.74C251.35 65.75 251.43 65.75 251.51 65.76C251.73 65.79 251.93 65.85 252.11 65.92C252.29 66 252.44 66.1 252.56 66.22C252.68 66.34 252.78 66.49 252.85 66.66C252.92 66.83 252.95 67.03 252.95 67.25C252.95 67.44 252.93 67.61 252.88 67.76C252.83 67.91 252.76 68.05 252.67 68.17C252.58 68.29 252.47 68.39 252.33 68.48C252.2 68.57 252.04 68.64 251.87 68.69C251.95 68.73 252.03 68.78 252.1 68.84C252.17 68.9 252.24 68.97 252.3 69.05C252.36 69.13 252.43 69.22 252.48 69.33C252.54 69.44 252.59 69.55 252.65 69.68L253.12 70.77C253.16 70.88 253.19 70.96 253.21 71.01C253.22 71.06 253.23 71.1 253.23 71.13Z" fill="#1D1D1B"/>
</g>
<defs>
<clipPath id="clip0_775_455">
<rect width="255.86" height="106.3" fill="white"/>
</clipPath>
</defs>
</svg>
