<svg width="349" height="88" viewBox="0 0 349 88" fill="none" xmlns="http://www.w3.org/2000/svg">
<path d="M266.874 17.3067C183.337 25.5934 89.9606 34.1734 12.7722 19.9467C9.09657 19.2867 7.05455 14.8134 5.34668 14.52C82.2009 28.71 175.577 20.02 258.78 11.77C261.936 11.44 265.797 17.4167 266.874 17.27V17.3067Z" fill="#DE7500"/>
<path d="M83.3145 78.87C166.852 70.5833 260.228 61.9667 337.379 76.1933C341.092 76.9267 343.134 81.3267 344.842 81.6567C267.95 67.4667 174.611 76.1567 91.4083 84.4067C88.2524 84.7 84.3912 78.76 83.3145 78.9067V78.87Z" fill="#2B2A29"/>
<path d="M97.5348 58.7401H50.6055V3.30005H68.2782V48.3267H97.5348V58.7401ZM115.876 54.6334C115.133 54.8901 114.428 55.0001 113.722 55.0001C112.46 55.0001 111.495 54.8534 110.827 54.4867C110.195 54.1201 109.861 53.4601 109.861 52.5067C109.84 51.9242 110.054 51.3571 110.455 50.9301C110.827 50.5634 111.383 50.2334 112.089 50.0501C112.906 49.8301 113.722 49.6834 114.576 49.5734L117.918 49.2801V53.5701C117.308 54.0518 116.616 54.4241 115.876 54.6701V54.6334ZM117.881 58.9601H126.049V44.9534C126.049 42.5334 125.009 40.7367 122.967 39.5634C119.899 38.1806 116.53 37.5757 113.166 37.8034C110.045 37.8503 106.937 38.1941 103.884 38.8301V43.7801H104.552C105.777 43.3401 107.002 42.9734 108.265 42.6801C110.937 42.0478 113.733 42.1364 116.359 42.9367C117.398 43.3767 117.918 44.1467 117.918 45.3201V45.4301C115.579 45.5401 113.425 45.7234 111.383 45.9434C109.341 46.1634 107.596 46.5667 106.148 47.1167C104.855 47.5597 103.703 48.3311 102.807 49.3534C102.064 50.3067 101.693 51.5534 101.693 53.0567C101.693 54.9267 102.436 56.4667 103.921 57.6767C105.443 58.8867 107.337 59.5101 109.638 59.5101C112.006 59.5367 114.338 58.942 116.396 57.7867L117.881 56.7967V58.9967V58.9601ZM163.102 58.9601V48.6934L163.065 46.1267C163.043 45.5157 162.891 44.9161 162.62 44.3667C162.383 43.9359 162.002 43.5991 161.543 43.4134C160.888 43.1856 160.194 43.0859 159.501 43.1201C158.907 43.1201 158.276 43.2301 157.645 43.4501C157.088 43.6701 156.419 43.9634 155.714 44.3667V58.9601H147.546V48.6934C147.546 47.6667 147.546 46.8234 147.472 46.1267C147.434 45.3934 147.286 44.8434 147.063 44.3667C146.817 43.9294 146.423 43.5919 145.949 43.4134C145.307 43.1885 144.626 43.0889 143.944 43.1201C143.276 43.1201 142.645 43.2301 142.014 43.4867C141.383 43.7434 140.751 44.0367 140.157 44.3667V58.9601H131.989V38.4267H140.157V40.6267C141.494 39.7467 142.756 39.0501 143.907 38.5734C145.095 38.0601 146.395 37.8034 147.88 37.8034C149.439 37.8034 150.85 38.0967 152.038 38.7201C153.263 39.3067 154.155 40.1867 154.823 41.3601C156.382 40.2601 157.83 39.3434 159.204 38.7201C161.527 37.6335 164.183 37.4631 166.629 38.2434C167.554 38.5279 168.402 39.0154 169.11 39.6695C169.817 40.3235 170.365 41.1271 170.713 42.0201C171.085 42.9001 171.27 44.1101 171.27 45.5767V58.9601H163.102ZM190.651 54.6334C189.908 54.8901 189.166 55.0001 188.498 55.0001C187.235 55.0001 186.27 54.8534 185.602 54.4867C184.97 54.1201 184.636 53.4601 184.636 52.5067C184.615 51.9242 184.829 51.3571 185.23 50.9301C185.602 50.5634 186.159 50.2334 186.864 50.0501C187.681 49.8301 188.498 49.6834 189.352 49.5734L192.656 49.2801V53.5701C192.057 54.0481 191.378 54.4202 190.651 54.6701V54.6334ZM192.656 58.9601H200.824V44.9534C200.824 42.5334 199.784 40.7367 197.742 39.5634C194.674 38.1806 191.305 37.5757 187.941 37.8034C184.821 37.853 181.713 38.1968 178.659 38.8301V43.7801H179.327C180.515 43.3401 181.777 42.9734 183.04 42.6801C185.712 42.0478 188.508 42.1364 191.134 42.9367C192.173 43.3767 192.693 44.1467 192.693 45.3201V45.4301C190.354 45.5401 188.163 45.7234 186.159 45.9434C184.117 46.1634 182.372 46.5667 180.886 47.1167C179.438 47.6667 178.362 48.4001 177.545 49.3534C176.802 50.3067 176.431 51.5534 176.431 53.0567C176.431 54.9267 177.174 56.4667 178.696 57.6767C180.181 58.8867 182.112 59.5101 184.414 59.5101C185.639 59.5101 186.604 59.4367 187.272 59.2901C188.643 58.9925 189.959 58.4852 191.171 57.7867L192.656 56.7967V58.9967V58.9601ZM224.252 44.4401H223.546C222.462 44.2997 221.372 44.214 220.279 44.1834C218.455 44.332 216.651 44.6638 214.895 45.1734V58.9601H206.802V38.4267H214.97V41.3601C216.025 40.6088 217.143 39.9465 218.311 39.3801C219.887 38.6059 221.64 38.252 223.398 38.3534L224.252 38.4267V44.4401ZM238.694 59.4001C235.353 59.4001 232.977 58.8501 231.454 57.7867C229.969 56.6867 229.227 54.9267 229.227 52.5067V42.8634H226.071V38.3901H229.189V32.5234H237.358V38.3901H245.117V42.8634H237.32V50.1967L237.358 52.0667C237.358 52.6167 237.506 53.0934 237.729 53.5334C237.952 53.9367 238.323 54.2667 238.843 54.5234C239.437 54.7801 240.216 54.8901 241.256 54.8901C241.702 54.8901 242.258 54.8534 242.964 54.7067L244.449 54.3401H245.117V58.8134C242.998 59.1939 240.848 59.3902 238.694 59.4001ZM274.745 38.3901L252.654 86.0567L244.56 86.5334L257.555 59.0334L247.234 38.3901H255.773L261.231 51.2601L266.354 38.4267H274.745V38.3901Z" fill="#E9132F"/>
</svg>
