<svg width="194" height="120" viewBox="0 0 194 120" fill="none" xmlns="http://www.w3.org/2000/svg">
<g clip-path="url(#clip0_775_386)">
<path d="M119.689 40.6071L174.234 9.2045V0L119.689 31.4514V40.6559V40.6071Z" fill="#0D579E"/>
<path d="M119.689 53.4462L174.234 22.0436V12.8391L119.689 44.2905V53.495V53.4462Z" fill="#119760"/>
<path d="M119.689 66.2773L174.234 34.8747V25.6702L119.689 57.1297V66.3342V66.2773Z" fill="#FBBA05"/>
<path d="M119.689 79.1164L174.234 47.7138V38.5093L119.689 69.9607V79.1652V79.1164Z" fill="#E41018"/>
<path d="M59.1444 92.0612C59.0142 91.2806 58.4769 88.0281 54.1621 87.9224C50.0672 87.9224 49.0984 91.3293 48.8786 92.0612H59.1444ZM38.9629 98.3222C38.9629 93.1914 39.834 80.954 54.789 80.4905C70.2895 80.7019 68.9055 96.5821 68.9462 99.0377H48.5367C48.667 100.631 49.3834 107.031 54.8623 110.535C60.1458 114.178 68.0832 110.242 68.0832 110.242V118.195C68.0832 118.195 62.816 120.138 57.4104 119.91C53.9993 119.91 38.7675 119.406 38.971 98.3222H38.9629Z" fill="#070707"/>
<path d="M26.4827 119.162V99.1678H10.5426V119.162H0V69.7573H10.5426V90.8984H26.4827V69.7573H37.0253V119.162H26.4827Z" fill="#070707"/>
<path d="M131.51 98.7044C131.852 82.9136 142.492 80.5556 148.354 80.5719C162.381 80.58 162.511 91.5977 162.511 95.6633H151.895C151.895 95.6633 152.799 88.3209 147.703 88.451C142.794 88.5973 142.118 94.6307 142.126 97.2083C142.126 100.68 143.038 104.478 145.122 107.307C147.214 110.137 150.381 112.096 155.314 112.113C159.051 112.162 162.145 110.771 162.145 110.771V118.057C162.145 118.057 156.641 120 151.032 119.984H151.016C145.651 119.984 131.648 118.423 131.502 98.6963" fill="#070707"/>
<path d="M97.6515 81.385V69.7574L107.763 63.9436V81.385H117.988V89.1991H107.763V105.087C107.592 112.292 110.441 111.918 112.175 112.113C113.746 112.137 116.897 111.21 116.897 111.21V119.228C116.897 119.228 112.305 120.033 109.269 119.992C106.916 119.902 97.3095 120.317 97.6515 109.145V89.1991H85.7575V105.087C85.847 107.933 85.497 112.023 90.1699 112.113C91.3748 112.137 94.8917 111.21 94.8917 111.21V119.228C94.8917 119.228 89.5186 120.073 86.4088 119.992C82.9081 119.764 75.6138 120.073 75.6463 109.145V89.1991H68.8975V81.385H75.6463V69.7574L85.7575 63.9436V81.385H97.6515Z" fill="#070707"/>
<path d="M183.888 119.163V97.7206C183.978 90.3863 183.099 90.37 181.365 90.3944C175.633 90.5164 174.184 99.9811 174.266 102.681H174.225V119.163H164.122V69.7493L174.225 63.9355V85.345C174.657 84.7432 178.116 80.4093 183.612 80.5638C186.396 80.5557 193.91 81.8079 194 93.3623V119.154H183.888V119.163Z" fill="#070707"/>
<path d="M129.792 81.385H119.681V119.171H129.792V81.385Z" fill="#070707"/>
</g>
<defs>
<clipPath id="clip0_775_386">
<rect width="194" height="120" fill="white"/>
</clipPath>
</defs>
</svg>
