<svg width="94" height="95" viewBox="0 0 94 95" fill="none" xmlns="http://www.w3.org/2000/svg">
<g clip-path="url(#clip0_104_529)">
<path d="M46.6047 0.914306C72.109 0.831882 93.1036 21.6734 93.1742 47.2013C93.2449 72.8351 72.8391 93.5471 47.3465 93.9003C21.4418 94.2771 0.388363 73.6358 0.176415 47.8842C-0.0355323 21.8853 20.7 1.0085 46.6047 0.914306ZM46.6635 3.42235C22.7841 3.26928 2.83753 22.9333 2.66091 46.8127C2.48429 71.3868 21.9128 91.2392 46.3221 91.4158C70.6842 91.5925 90.5013 71.9991 90.678 47.5781C90.8428 23.2748 71.2259 3.5872 46.6635 3.42235Z" fill="#3B3C43" stroke="#3B3C43" stroke-width="0.3" stroke-miterlimit="10"/>
<path d="M64.6817 31.3246C65.0703 31.3246 65.4118 31.3246 65.765 31.3246C68.2495 31.3246 70.734 31.3246 73.2303 31.3246C74.3724 31.3246 74.8434 31.8309 74.6315 32.8789C73.8779 36.7057 73.1949 40.5561 72.3001 44.3476C70.6398 51.3654 64.2696 56.4286 57.0281 56.511C50.3399 56.5816 43.6518 56.511 36.9755 56.5345C36.1277 56.5345 35.6685 56.2048 35.4448 55.3924C33.5961 48.8456 31.7003 42.3105 29.8517 35.7637C29.1805 33.3616 30.7584 31.3364 33.2664 31.3128C35.6214 31.2893 37.9763 31.3128 40.3902 31.3128C40.8965 27.4742 42.6274 24.4245 45.8302 22.2815C48.1616 20.7154 50.7638 20.056 53.5545 20.2798C59.3595 20.7508 63.7515 25.0604 64.7053 31.3128L64.6817 31.3246ZM64.6699 33.6207C64.6346 33.8562 64.6111 34.0446 64.5757 34.233C63.4454 41.3568 56.6513 45.9254 49.657 44.2651C44.9588 43.1465 41.3204 39.2373 40.555 34.4096C40.4491 33.7266 40.2136 33.5029 39.5071 33.5147C37.47 33.5618 35.433 33.5147 33.4077 33.5383C32.1596 33.55 31.7003 34.1623 32.03 35.3398C33.7609 41.451 35.5154 47.5503 37.2463 53.6615C37.3758 54.1443 37.5642 54.3444 38.0941 54.3444C44.4172 54.3209 50.7521 54.4151 57.0752 54.2855C63.1157 54.156 68.1553 50.2585 69.9215 44.5477C70.369 43.1112 70.6045 41.604 70.9106 40.1204C71.3463 37.9774 71.7584 35.8343 72.2059 33.6089H64.6699V33.6207ZM52.5301 42.3341C58.1938 42.3341 62.4916 38.0127 62.4798 32.3137C62.468 26.8972 57.9112 22.411 52.483 22.4581C47.0665 22.5052 42.5685 26.9561 42.5568 32.3019C42.5332 37.9656 46.8781 42.3341 52.5301 42.3341Z" fill="#3B3C43" stroke="#3B3C43" stroke-width="0.3" stroke-miterlimit="10"/>
<path d="M22.1038 28.9459C19.4898 28.9459 16.97 28.9459 14.4502 28.9459C14.1911 28.9459 13.8496 29.0401 13.6966 28.9106C13.308 28.5927 12.8017 28.2041 12.7546 27.792C12.7192 27.4741 13.2609 26.9207 13.6612 26.7794C14.1793 26.591 14.8034 26.7087 15.3921 26.7087C17.6882 26.7087 19.9843 26.7087 22.2687 26.7087C23.6463 26.7087 23.8583 26.8618 24.2351 28.1923C27.0375 38.0243 29.8634 47.8446 32.6188 57.6766C32.8896 58.6539 33.2664 58.9718 34.3143 58.96C44.8411 58.9129 55.3796 58.9247 65.9063 58.9365C66.5186 58.9365 67.1426 58.9483 67.7196 59.1131C69.1679 59.537 70.0746 60.8911 70.0392 62.4218C70.0039 63.929 68.9913 65.2243 67.5194 65.5893C67.0602 65.707 66.5657 65.7424 66.0829 65.7424C55.0381 65.7424 43.9933 65.7424 32.9367 65.7424C32.7483 65.7424 32.5481 65.7424 32.3597 65.7424C31.665 65.7188 31.1351 65.4127 31.0998 64.6708C31.0645 63.8701 31.6061 63.5405 32.3479 63.4934C32.6423 63.4698 32.9249 63.4934 33.2193 63.4934C44.0992 63.4934 54.991 63.4934 65.8709 63.4934C67.2604 63.4934 67.8373 63.1637 67.8491 62.3512C67.8727 61.5034 67.2486 61.1266 65.8238 61.1266C54.9086 61.1266 43.9933 61.1266 33.0662 61.1266C31.3706 61.1266 31.3117 61.0795 30.8525 59.4899C28.0266 49.599 25.1888 39.7199 22.3629 29.829C22.2804 29.5464 22.198 29.2756 22.092 28.9342L22.1038 28.9459Z" fill="#3B3C43" stroke="#3B3C43" stroke-width="0.3" stroke-miterlimit="10"/>
<path d="M32.1243 75.5037C29.9812 75.4802 28.2032 73.6669 28.2268 71.5121C28.2503 69.3573 30.0519 67.5439 32.1714 67.5439C34.3262 67.5439 36.1395 69.4161 36.1042 71.6063C36.0688 73.7728 34.2908 75.5155 32.1243 75.5037ZM33.9023 71.5827C33.9258 70.6407 33.1722 69.84 32.2302 69.8047C31.2529 69.7694 30.4876 70.4759 30.4522 71.4532C30.4051 72.4541 31.1823 73.3018 32.1478 73.3136C33.0545 73.3254 33.8787 72.5129 33.9023 71.5945V71.5827Z" fill="#3B3C43" stroke="#3B3C43" stroke-width="0.3" stroke-miterlimit="10"/>
<path d="M68.2967 71.5238C68.2967 73.7257 66.5893 75.4919 64.4228 75.5037C62.2091 75.5272 60.4429 73.7375 60.4546 71.512C60.4664 69.3337 62.2444 67.5557 64.3757 67.5557C66.5187 67.5557 68.2849 69.3454 68.2967 71.5238ZM66.1184 71.5238C66.1184 70.5818 65.3294 69.8047 64.3757 69.8047C63.4101 69.8047 62.6565 70.5465 62.6448 71.512C62.633 72.5011 63.4572 73.3371 64.411 73.3136C65.3294 73.29 66.1184 72.454 66.1184 71.5356V71.5238Z" fill="#3B3C43" stroke="#3B3C43" stroke-width="0.3" stroke-miterlimit="10"/>
<path d="M50.3753 35.7518C52.848 33.2791 55.3325 30.7946 57.8288 28.3218C58.0525 28.0981 58.2762 27.7331 58.5353 27.686C58.9827 27.6153 59.6421 27.5682 59.8894 27.8273C60.1366 28.0863 60.0424 28.734 60.0071 29.1932C59.9953 29.3698 59.7245 29.5346 59.5715 29.6877C56.875 32.3842 54.1903 35.0806 51.4821 37.7653C50.5048 38.7426 50.1045 38.7426 49.1507 37.7888C47.9379 36.5878 46.7251 35.375 45.524 34.1622C44.7116 33.3497 44.5938 32.7021 45.1473 32.184C45.6889 31.6541 46.2776 31.7954 47.1254 32.6314C48.1381 33.6323 49.1389 34.6332 50.1516 35.634C50.1987 35.6811 50.2693 35.6929 50.3753 35.7518Z" fill="#3B3C43" stroke="#3B3C43" stroke-width="0.3" stroke-miterlimit="10"/>
</g>
<defs>
<clipPath id="clip0_104_529">
<rect width="93.3511" height="93.3511" fill="white" transform="translate(0 0.737793)"/>
</clipPath>
</defs>
</svg>
