<svg width="94" height="95" viewBox="0 0 94 95" fill="none" xmlns="http://www.w3.org/2000/svg">
<g clip-path="url(#clip0_104_539)">
<path d="M93.3513 50.3209C93.115 52.0348 92.9378 53.7486 92.6306 55.4506C90.7047 66.2065 85.6124 75.213 77.4364 82.4465C70.7727 88.3445 63.0219 92.0677 54.2433 93.4506C41.9202 95.389 30.495 92.9069 20.2277 85.7797C9.78313 78.5225 3.20213 68.5704 0.874552 56.0534C-1.63025 42.5791 1.27626 30.204 9.54683 19.2591C16.7186 9.77977 26.2534 3.89362 37.9385 1.5888C39.569 1.26967 41.2467 1.12784 42.889 0.903267C43.1844 0.855989 43.4798 0.796891 43.7752 0.737793C45.7246 0.737793 47.6623 0.737793 49.6118 0.737793C49.8481 0.785071 50.0726 0.867808 50.3089 0.891448C58.1778 1.48243 65.4559 3.90544 72.025 8.26687C83.2494 15.725 90.173 26.0908 92.6306 39.376C92.9496 41.0662 93.115 42.7919 93.3513 44.4939V50.3328V50.3209ZM90.433 47.3779C90.433 23.3014 70.8081 3.66905 46.7289 3.64541C22.6261 3.63359 2.95401 23.2659 2.94219 47.3897C2.93038 71.5016 22.5789 91.1694 46.6817 91.1694C70.7963 91.1694 90.433 71.5134 90.4212 47.3897L90.433 47.3779Z" fill="#3B3C43"/>
<path d="M35.7171 42.0118C37.2176 40.3452 38.5881 38.726 40.0532 37.2012C42.6053 34.5536 43.6214 31.2914 44.1412 27.7692C44.283 26.8236 44.5902 25.8663 45.0155 25.0152C46.327 22.4504 49.0209 22.0958 51.0176 24.1879C52.3882 25.6299 53.0262 27.4146 53.2388 29.3648C53.4515 31.386 53.2388 33.3599 52.5181 35.2746C52.0692 36.4566 51.7147 37.674 51.8801 38.986C53.6051 38.7141 55.2356 38.3004 56.8897 38.2295C58.7447 38.1468 60.6705 38.1468 62.4782 38.525C65.1957 39.0924 66.5072 41.2317 66.3182 44.0093C66.2827 44.5057 66.4717 45.014 66.5308 45.5222C66.9207 49.5527 66.4599 53.3941 64.0497 56.8099C63.9197 56.9872 63.837 57.2472 63.8252 57.4718C63.707 59.4339 62.7618 60.9113 61.155 61.9987C59.2764 63.2752 57.1378 63.8426 54.9402 64.1735C49.1745 65.0363 43.4441 64.6818 37.7256 63.7598C37.3121 63.6889 36.7804 63.8308 36.4141 64.0435C34.1338 65.3791 31.8772 65.1427 29.6441 64.0199C27.6119 62.9916 26.6431 61.2777 26.6431 58.9965C26.6431 55.167 26.6431 51.3493 26.6431 47.5197C26.6431 44.4112 28.1081 42.6382 31.121 42.0118C32.6569 41.6927 34.5946 41.7045 35.7052 42.0118H35.7171ZM37.7493 52.7085C37.7493 55.1434 37.7729 57.5664 37.7374 60.0012C37.7374 60.6158 37.9147 60.8286 38.5291 60.9231C43.5623 61.7269 48.6073 62.0342 53.676 61.4314C55.5782 61.2068 57.4568 60.8286 59.1464 59.8475C60.1034 59.292 60.9305 58.571 60.895 57.3773C60.8714 56.2899 60.895 55.3443 61.982 54.7178C62.2538 54.5642 62.4192 54.1387 62.5373 53.7959C62.88 52.7322 63.258 51.6684 63.4707 50.581C63.8015 48.9499 64.0378 47.2952 63.5416 45.6286C63.388 45.1322 63.3289 44.5648 63.388 44.0448C63.5652 42.4609 63.0572 41.5036 61.4858 41.2672C60.0325 41.0544 58.5202 41.0071 57.0551 41.1608C55.1883 41.3499 53.357 41.7872 51.5138 42.1655C50.6395 42.3427 50.0133 42.0709 49.6234 41.3026C49.3871 40.818 49.1745 40.298 49.0563 39.7779C48.6428 37.8868 49.1154 36.102 49.7652 34.3527C50.3205 32.8398 50.5096 31.2914 50.3323 29.6958C50.2024 28.4311 49.8125 27.261 48.9618 26.2918C48.3356 25.5826 47.9457 25.6299 47.544 26.469C47.3077 26.9537 47.1659 27.4855 47.0477 28.0174C46.7524 29.353 46.5397 30.7005 46.2207 32.0243C45.3818 35.4401 43.326 38.0995 40.9157 40.5816C39.8642 41.6572 39.0135 42.9337 38.1628 44.1748C37.8792 44.5885 37.7847 45.1913 37.7729 45.7232C37.7374 48.0634 37.7611 50.4037 37.7611 52.7322L37.7493 52.7085ZM34.8309 53.2404C34.8309 50.6874 34.8191 48.1343 34.8309 45.5813C34.8309 44.9194 34.6419 44.6121 33.9448 44.6948C33.165 44.7776 32.3616 44.7776 31.5936 44.9076C30.1758 45.1558 29.5732 45.8532 29.5614 47.2597C29.5378 51.2429 29.5141 55.2143 29.5968 59.1975C29.6087 59.8357 30.0104 60.6276 30.4948 61.065C31.4518 61.9633 32.716 62.1169 34.0039 61.916C34.5946 61.8214 34.8546 61.5378 34.8427 60.8759C34.8073 58.3228 34.8309 55.7698 34.8309 53.2168V53.2404Z" fill="#3B3C43"/>
</g>
<defs>
<clipPath id="clip0_104_539">
<rect width="93.3511" height="93.3511" fill="white" transform="translate(0 0.737793)"/>
</clipPath>
</defs>
</svg>
