<svg width="94" height="95" viewBox="0 0 94 95" fill="none" xmlns="http://www.w3.org/2000/svg">
<g clip-path="url(#clip0_104_522)">
<path d="M46.5808 94.0886C20.4463 93.8758 -0.224825 72.8961 -0.000138737 46.8339C0.224547 21.1263 21.3805 0.477506 47.243 0.737537C72.1477 0.985748 93.4574 21.1145 93.3509 47.5904C93.2445 73.5698 72.3251 94.0413 46.5808 94.0886ZM3.05086 47.3658C3.01538 71.4541 22.6104 91.0982 46.699 91.1219C70.7404 91.1455 90.3709 71.5841 90.4182 47.5431C90.4655 23.4666 70.8587 3.81063 46.77 3.78699C22.7168 3.76335 3.07451 23.3366 3.05086 47.3658Z" fill="#3B3C43"/>
<path d="M11.1632 47.3779C11.2224 27.781 27.246 11.8246 46.8055 11.8955C66.4123 11.9546 82.365 27.9701 82.3059 47.5197C82.2468 67.1166 66.2113 83.073 46.6636 83.0139C27.0568 82.9548 11.1041 66.9393 11.1632 47.3779ZM79.2904 47.437C79.2785 29.5067 64.6148 14.874 46.6991 14.8977C28.7952 14.9213 14.2024 29.5185 14.1788 47.4015C14.1551 65.32 28.7952 79.9763 46.7227 79.9881C64.6503 79.9999 79.314 65.3436 79.3022 47.4252L79.2904 47.437Z" fill="#3B3C43"/>
<path d="M39.0952 56.1716V52.5429C38.4448 52.5429 37.8063 52.5548 37.1558 52.5429C36.1388 52.5193 35.4648 51.8929 35.4766 51.0182C35.4884 50.1554 36.1743 49.5526 37.1913 49.5289C37.8063 49.5171 38.433 49.5289 39.1425 49.5289V48.3115C39.1425 42.449 39.1425 36.5747 39.1425 30.7122C39.1425 28.892 39.5446 28.4783 41.3303 28.4783C44.9725 28.4783 48.6148 28.4783 52.2453 28.4783C58.6311 28.5019 63.6333 33.0997 64.3428 39.5769C64.9696 45.3094 60.8188 50.9118 54.9297 52.2356C53.9955 52.4484 53.0021 52.5075 52.0324 52.5193C49.1115 52.5548 46.1906 52.5311 43.2815 52.5311H42.2054V56.1597C43.447 56.1597 44.6651 56.1243 45.8713 56.1716C46.3207 56.1834 46.9356 56.2543 47.1603 56.538C47.4796 56.9398 47.7516 57.649 47.6096 58.0863C47.4677 58.5237 46.8292 59.0201 46.3561 59.091C45.3391 59.2446 44.2985 59.1501 43.2578 59.1619C42.9267 59.1619 42.5838 59.1619 42.1344 59.1619C42.1344 61.2067 42.1344 63.1451 42.1344 65.0835C42.1344 65.4617 42.1462 65.84 42.0989 66.2064C41.9688 67.0337 41.3184 67.5893 40.5498 67.5538C39.7693 67.5183 39.1544 66.9274 39.1425 66.0764C39.1071 64.197 39.1307 62.3177 39.1189 60.4266C39.1189 60.0602 39.1189 59.682 39.1189 59.1619C38.1137 59.1619 37.1913 59.1619 36.2571 59.1619C35.8196 59.1619 35.382 59.1737 34.9445 59.1383C34.0575 59.0674 33.5136 58.5236 33.4899 57.7199C33.4544 56.8689 33.9984 56.2188 34.909 56.1716C35.9378 56.1125 36.9785 56.1479 38.0191 56.1479C38.3502 56.1479 38.6932 56.1479 39.0716 56.1479L39.0952 56.1716ZM42.229 31.5041V49.4935C45.9422 49.4935 49.5727 49.4935 53.2031 49.4935C53.5106 49.4935 53.8181 49.3989 54.1255 49.3517C58.3118 48.5716 61.4692 44.6475 61.3628 40.3806C61.2564 35.9482 57.9452 32.036 53.6407 31.6814C50.2468 31.3977 46.8055 31.5514 43.3879 31.5159C43.0213 31.5159 42.6429 31.5159 42.2172 31.5159L42.229 31.5041Z" fill="#3B3C43"/>
</g>
<defs>
<clipPath id="clip0_104_522">
<rect width="93.3511" height="93.3511" fill="white" transform="translate(0 0.737793)"/>
</clipPath>
</defs>
</svg>
