<svg width="94" height="95" viewBox="0 0 94 95" fill="none" xmlns="http://www.w3.org/2000/svg">
<g clip-path="url(#clip0_104_514)">
<path d="M0 44.5056C0.236481 42.8272 0.402018 41.137 0.69762 39.4705C3.97289 20.961 17.4642 6.28108 35.8269 2.12058C53.8823 -1.96899 69.3955 3.08979 81.7989 16.8241C90.0167 25.9134 93.6703 36.8702 93.3274 49.1152C92.819 67.932 80.2263 85.1059 62.4429 91.3466C58.47 92.7413 54.4026 93.6514 50.1932 93.9469C49.9922 93.9587 49.7912 94.0415 49.5902 94.1006H43.7491C43.5481 94.0533 43.3471 93.9706 43.146 93.9469C39.185 93.6632 35.3185 92.9422 31.5939 91.5594C14.65 85.2713 4.37491 73.2508 0.733093 55.5451C0.37837 53.8313 0.236481 52.0701 0 50.3327C0 48.3824 0 46.444 0 44.4938V44.5056ZM90.4423 46.5031C89.8748 22.5094 70.2823 3.3971 46.0311 3.66895C21.8745 3.95262 2.554 23.8332 2.95602 48.2879C3.35804 72.4707 23.2816 91.6776 47.651 91.1575C71.7367 90.6374 90.8798 70.7333 90.4423 46.5149V46.5031Z" fill="#3B3C43"/>
<path d="M22.6077 70.0005C22.6077 67.8493 22.6432 65.6863 22.5959 63.5352C22.5604 61.9159 23.1398 60.5803 24.1922 59.3983C25.6347 57.779 27.432 56.6562 29.3829 55.7697C32.7055 54.2804 36.0517 52.8384 39.3625 51.3374C40.2256 50.9473 40.8996 51.0655 41.609 51.6801C42.9806 52.8739 44.4113 54.0086 45.7829 55.2142C46.3978 55.7579 46.8707 55.7933 47.5092 55.2378C48.9281 53.9968 50.4061 52.8266 51.825 51.5974C52.4517 51.0537 53.0784 50.9591 53.8351 51.2901C57.2405 52.803 60.7167 54.1859 64.0511 55.8406C65.8129 56.7153 67.4328 57.98 68.9463 59.2565C70.2588 60.3675 70.8027 61.9395 70.779 63.7361C70.7199 68.1093 70.779 72.4826 70.7435 76.8558C70.7435 77.3404 70.6253 77.9669 70.3179 78.2624C69.9868 78.5697 69.3247 78.7115 68.8635 78.6406C68.1659 78.5224 67.8585 77.9196 67.8585 77.2104C67.8585 75.4848 67.8585 73.7473 67.8585 72.0216C67.8585 69.2913 67.8112 66.5492 67.8821 63.8188C67.9058 62.6487 67.5392 61.6913 66.6524 61.0294C65.3754 60.072 64.0748 59.0792 62.6441 58.3818C59.8063 56.9989 56.8739 55.8288 54.0007 54.5286C53.4567 54.2804 53.0784 54.3159 52.6172 54.7296C51.5767 55.6633 50.5007 56.5616 49.4011 57.4126C48.9163 57.7908 48.8217 58.1218 49.0109 58.7246C50.1224 62.1286 51.1629 65.5563 52.2862 68.9485C52.6291 69.9768 52.4872 70.7333 51.7186 71.5016C50.5007 72.7308 49.3656 74.0428 48.1832 75.3075C47.19 76.383 46.2086 76.3949 45.239 75.3429C43.9738 73.9837 42.7323 72.6126 41.4671 71.2652C40.9114 70.6742 40.7695 70.0596 41.0178 69.2677C42.1529 65.7809 43.2289 62.2705 44.364 58.7837C44.5532 58.1927 44.4823 57.8618 43.9857 57.4717C42.886 56.6089 41.8219 55.6988 40.7695 54.7769C40.3084 54.375 39.93 54.2568 39.327 54.5405C36.4892 55.8406 33.5805 57.0107 30.7782 58.37C29.3711 59.0555 28.0823 59.9775 26.8053 60.9112C25.883 61.5849 25.4928 62.5541 25.5046 63.7716C25.5519 68.1448 25.5401 72.518 25.5046 76.8913C25.5046 77.4114 25.28 78.0614 24.9253 78.4042C24.6415 78.676 23.8611 78.7942 23.5418 78.5933C23.1044 78.3215 22.6669 77.6832 22.6432 77.1986C22.5486 74.7992 22.6077 72.3998 22.5959 70.0005H22.6077ZM46.788 61.4195L46.5633 61.3958C45.712 64.067 44.8607 66.7264 44.033 69.3977C43.9857 69.5395 44.0566 69.7641 44.1512 69.8823C44.9671 70.7924 45.8066 71.6907 46.6697 72.6126C47.5092 71.7025 48.2896 70.8988 49.0227 70.0477C49.2001 69.8468 49.3065 69.445 49.2237 69.1967C48.4315 66.5964 47.6038 64.0079 46.788 61.4195Z" fill="#3B3C43"/>
<path d="M31.2866 30.2039C31.3694 28.7856 31.3457 27.4145 31.5349 26.0671C32.2089 21.3983 36.2646 17.7106 40.9705 17.5688C44.7661 17.4624 48.5734 17.4624 52.3689 17.5688C57.5479 17.7225 61.8282 22.1075 61.9819 27.2963C62.0174 28.2301 61.9819 29.1756 61.9819 30.1448C62.1711 30.2039 62.313 30.2512 62.4431 30.2748C65.9548 30.9958 68.3078 34.2462 67.7639 37.6266C67.1845 41.2198 64.063 43.631 60.4566 43.2646C59.5343 43.17 59.0732 42.6263 59.0732 41.5744C59.0732 37.863 59.0732 34.1635 59.0732 30.4521C59.0732 29.0929 59.1323 27.6982 58.9077 26.3626C58.3401 22.9467 55.4077 20.4882 51.9314 20.4528C48.467 20.4173 45.0025 20.4173 41.5381 20.4528C37.4824 20.4882 34.3136 23.6322 34.2781 27.6864C34.2426 32.2133 34.2781 36.7402 34.2781 41.2671C34.2781 42.8391 33.8288 43.2882 32.2798 43.2764C28.6971 43.2527 25.9067 40.8061 25.5519 37.3902C25.1854 33.9035 27.5147 30.9722 31.2748 30.2039H31.2866ZM31.3457 33.2297C29.5012 33.6671 28.3543 35.1918 28.4607 36.9529C28.5671 38.5958 29.8086 40.0024 31.3457 40.1797V33.2297ZM62.0529 40.2151C63.8146 39.8487 64.9616 38.3949 64.9261 36.6338C64.8906 34.9554 63.6728 33.5252 62.0529 33.2652V40.2151Z" fill="#3B3C43"/>
<path d="M46.6694 24.2114C49.8738 24.3296 52.6288 25.3934 54.9226 27.6155C56.7908 29.4357 57.855 31.6459 57.5712 34.2344C57.2402 37.2366 56.8618 40.2742 56.0696 43.1819C54.9345 47.3542 52.0376 49.8717 47.6745 50.4982C43.5715 51.0891 39.2794 48.4888 37.6477 44.1865C36.8555 42.0826 36.4889 39.8015 36.1224 37.5676C35.8504 35.9601 35.6376 34.2817 35.8504 32.6861C36.418 28.4665 39.2912 26.1617 43.0867 24.8615C44.2218 24.4715 45.4634 24.4242 46.6576 24.2114H46.6694ZM54.6389 35.0145C54.8044 32.3078 54.0831 30.8422 52.7825 29.6012C49.5545 26.5162 44.1627 26.4217 40.8165 29.4002C39.5868 30.4876 38.6645 31.7878 38.7 33.4662C38.771 36.7165 39.1611 39.9551 40.3199 43.0164C41.4195 45.9122 43.879 47.6378 46.6931 47.6378C49.5545 47.6378 51.9666 45.9122 53.1136 42.9573C54.2132 40.1206 54.3433 37.0948 54.6507 35.0027L54.6389 35.0145Z" fill="#3B3C43"/>
</g>
<defs>
<clipPath id="clip0_104_514">
<rect width="93.3511" height="93.3511" fill="white" transform="translate(0 0.737793)"/>
</clipPath>
</defs>
</svg>
