<svg width="94" height="95" viewBox="0 0 94 95" fill="none" xmlns="http://www.w3.org/2000/svg">
<path d="M43.7664 94.0889C42.0635 93.8525 40.337 93.687 38.6459 93.3679C24.5617 90.7321 13.8004 83.2267 6.42123 70.9697C1.65552 63.0625 -0.390302 54.3987 0.0590692 45.1912C1.06424 24.4242 15.5742 6.8958 35.8078 2.07341C46.6163 -0.503259 57.082 0.65506 67.1219 5.48927C67.2638 5.56019 67.3939 5.61929 67.5358 5.6902C68.4227 6.16299 68.7302 6.94308 68.3517 7.72317C67.9733 8.47962 67.1692 8.69238 66.235 8.29051C64.6149 7.59315 63.0302 6.82488 61.3747 6.24572C36.4818 -2.53623 9.67326 12.2264 4.04429 37.9577C0.886859 52.413 4.47001 65.3082 14.0724 76.5368C14.2498 76.7377 14.439 76.9268 14.6991 77.1987C17.1234 63.1216 25.1411 54.0323 38.7642 49.7654C33.7146 46.6214 30.8765 42.1536 30.6636 36.2202C30.4981 31.6578 32.1182 27.7101 35.3347 24.4597C41.7324 17.9944 52.2808 18.1835 58.4656 24.9207C61.9305 28.7029 63.3141 33.2298 62.5099 38.3004C61.7176 43.3238 58.9622 47.106 54.4685 49.8363C61.0317 51.5856 66.4478 54.8833 70.8115 59.8475C75.1751 64.8236 77.7176 70.627 78.569 77.1987L78.8529 77.3169C80.4138 75.213 82.1758 73.2155 83.5121 70.9697C92.7952 55.427 92.8543 39.8015 83.7132 24.1642C83.6186 24.0106 83.524 23.8569 83.4294 23.6914C82.9445 22.8168 83.1101 22.0012 83.8551 21.5521C84.5883 21.1266 85.3924 21.3157 85.8772 22.1549C86.9534 24.0224 88.065 25.8662 88.9874 27.8165C91.388 32.8516 92.7597 38.1704 93.1854 43.7374C93.2091 44.0093 93.2919 44.2693 93.3392 44.5293V50.3564C93.28 50.6164 93.1973 50.8765 93.1854 51.1483C92.7834 56.3962 91.5772 61.4668 89.3658 66.2301C82.4242 81.1819 70.8115 90.2357 54.6223 93.3797C52.9667 93.6988 51.2756 93.8525 49.5964 94.0889H43.7664ZM47.657 91.1812C48.9223 91.063 51.1101 90.9448 53.2623 90.6257C61.5757 89.3728 68.9194 85.9806 75.2697 80.4845C75.5772 80.2245 75.8137 79.6571 75.7782 79.2671C75.6126 77.636 75.4471 76.0049 75.0923 74.4093C70.8469 55.5334 49.1234 45.9359 32.3784 55.5925C23.3081 60.8286 18.4478 68.8304 17.5373 79.2553C17.4781 79.9172 17.7856 80.2599 18.2231 80.6145C26.4656 87.5408 35.9852 91.0276 47.657 91.1812ZM33.5491 35.7001C33.5491 42.981 39.4027 48.879 46.6518 48.879C53.9127 48.879 59.79 43.0164 59.8019 35.7356C59.8019 28.5847 53.9245 22.6631 46.7819 22.6395C39.4974 22.6158 33.5491 28.4665 33.5491 35.6883V35.7001Z" fill="#3B3C43"/>
<path d="M72.8928 14.7441C73.2121 14.4486 73.4486 14.224 73.6851 13.9994C76.8426 10.8436 80 7.68776 83.1574 4.53193C84.2808 3.40907 84.8958 3.40907 85.9955 4.49647C87.2491 5.73753 88.4907 6.97859 89.7324 8.23146C90.6666 9.17703 90.6785 9.87438 89.7561 10.8081C84.5883 15.9851 79.4087 21.1621 74.2291 26.3391C73.2831 27.2846 72.5853 27.2846 71.6511 26.3391C68.8958 23.5969 66.1404 20.843 63.3969 18.089C62.4745 17.1552 62.4745 16.4579 63.4205 15.5123C64.6977 14.2122 65.9867 12.9238 67.2875 11.6473C68.2217 10.7254 68.9076 10.7372 69.8655 11.671C70.8706 12.6756 71.864 13.6921 72.9046 14.7322L72.8928 14.7441ZM72.81 23.2778L86.6578 9.43706L84.5765 7.27408C84.3163 7.52229 84.0798 7.73504 83.8433 7.97143C80.6622 11.1391 77.493 14.3185 74.3119 17.498C73.2476 18.5618 72.5972 18.5618 71.5447 17.498C70.5632 16.517 69.6053 15.5123 68.742 14.6377L66.4242 16.8952L72.81 23.2778Z" fill="#3B3C43"/>
</svg>
