<svg width="394" height="75" viewBox="0 0 394 75" fill="none" xmlns="http://www.w3.org/2000/svg">
<path d="M230.04 30.7812H227.093V3.59375H230.04V30.7812ZM230.04 0.625H227.093C225.386 0.625 224.146 2.03125 224.146 3.59375V30.7812C224.146 32.5 225.542 33.75 227.093 33.75H230.04C231.746 33.75 232.987 32.3437 232.987 30.7812V3.59375C232.987 1.875 231.591 0.625 230.04 0.625Z" fill="#00A0DF"/>
<path d="M241.984 30.7812H238.882V3.59375H241.829V30.7812H241.984ZM241.984 0.625H238.882C237.176 0.625 235.935 2.03125 235.935 3.59375V30.7812C235.935 32.5 237.331 33.75 238.882 33.75H241.829C243.535 33.75 244.776 32.3437 244.776 30.7812V3.59375C244.931 1.875 243.535 0.625 241.984 0.625Z" fill="#00A0DF"/>
<path d="M253.929 30.7812H250.981V3.59375H253.929V30.7812ZM253.929 0.625H250.981C249.275 0.625 248.034 2.03125 248.034 3.59375V30.7812C248.034 32.5 249.43 33.75 250.981 33.75H253.929C255.635 33.75 256.876 32.3437 256.876 30.7812V3.59375C256.876 1.875 255.635 0.625 253.929 0.625Z" fill="#00A0DF"/>
<path d="M197 12.6562H188.003V3.59375H197V12.6562ZM197 0.625H188.003C186.297 0.625 185.056 2.03125 185.056 3.59375V12.6562C185.056 14.375 186.452 15.625 188.003 15.625H197C198.706 15.625 199.947 14.2187 199.947 12.6562V3.59375C200.102 1.875 198.706 0.625 197 0.625Z" fill="#00A0DF"/>
<path d="M197 30.7813H188.003V21.7187H197V30.7813ZM197 18.75H188.003C186.297 18.75 185.056 20.1562 185.056 21.7187V30.7813C185.056 32.5 186.452 33.75 188.003 33.75H197C198.706 33.75 199.947 32.3438 199.947 30.7813V21.7187C200.102 20 198.706 18.75 197 18.75Z" fill="#00A0DF"/>
<path d="M214.994 12.6562H205.997V3.59375H214.994V12.6562ZM214.994 0.625H205.997C204.291 0.625 203.05 2.03125 203.05 3.59375V12.6562C203.05 14.375 204.446 15.625 205.997 15.625H214.994C216.7 15.625 217.941 14.2187 217.941 12.6562V3.59375C218.096 1.875 216.7 0.625 214.994 0.625Z" fill="#00A0DF"/>
<path d="M214.994 30.7813H205.997V21.7187H214.994V30.7813ZM214.994 18.75H205.997C204.291 18.75 203.05 20.1562 203.05 21.7187V30.7813C203.05 32.5 204.446 33.75 205.997 33.75H214.994C216.7 33.75 217.941 32.3438 217.941 30.7813V21.7187C218.096 20 216.7 18.75 214.994 18.75Z" fill="#00A0DF"/>
<path d="M253.928 70H226.937V42.8125H253.928V70ZM253.928 39.8438H226.937C225.231 39.8438 223.99 41.25 223.99 42.8125V70C223.99 71.7188 225.386 72.9688 226.937 72.9688H253.928C255.634 72.9688 256.875 71.5625 256.875 70V42.8125C256.875 41.0937 255.634 39.8438 253.928 39.8438Z" fill="#00A0DF"/>
<path d="M218.096 39.8438H185.211V42.8125H218.096V39.8438Z" fill="#00A0DF"/>
<path d="M218.096 45.7808H185.211V48.7495H218.096V45.7808Z" fill="#00A0DF"/>
<path d="M218.096 51.875H185.211V54.8436H218.096V51.875Z" fill="#00A0DF"/>
<path d="M218.096 57.9688H185.211V60.9375H218.096V57.9688Z" fill="#00A0DF"/>
<path d="M218.096 69.9995H185.211V72.9683H218.096V69.9995Z" fill="#00A0DF"/>
<path d="M218.096 63.9062H185.211V66.875H218.096V63.9062Z" fill="#00A0DF"/>
<path d="M17.3735 73.75C12.5649 73.75 8.53181 72.0312 5.27433 68.75C2.01685 65.3125 0.310547 61.25 0.310547 56.4062C0.310547 51.5625 2.01685 47.3437 5.27433 44.0625C8.53181 40.625 12.5649 39.0625 17.3735 39.0625C22.3373 39.0625 26.5255 40.7812 29.783 44.0625L31.0239 45.4687V0.625H33.1956H35.3672V72.9688H33.1956H31.0239V67.3437L29.783 68.75C26.5255 72.0312 22.4924 73.75 17.3735 73.75ZM17.994 42.8125C14.2712 42.8125 11.1688 44.0625 8.53181 46.7187C5.89481 49.375 4.65386 52.6562 4.65386 56.4062C4.65386 60.3125 5.89481 63.4375 8.53181 66.0938C11.1688 68.75 14.2712 70 17.994 70C21.7169 70 24.8192 68.75 27.4562 66.0938C30.0932 63.4375 31.3342 60.1562 31.3342 56.4062C31.3342 52.5 30.0932 49.375 27.4562 46.7187C24.8192 44.0625 21.7169 42.8125 17.994 42.8125Z" fill="#706F6F"/>
<path d="M99.4307 0.625H101.602H103.774V72.9688H101.602H99.4307V0.625Z" fill="#706F6F"/>
<path d="M125.801 73.75C120.992 73.75 116.804 72.0313 113.547 68.75C110.134 65.3125 108.583 61.25 108.583 56.4062C108.583 51.5625 110.289 47.3438 113.547 44.0625C116.959 40.625 120.992 39.0625 125.801 39.0625C130.765 39.0625 134.798 40.7813 138.055 44.0625L139.141 45.3125V39.6875H143.329V72.9688H141.158H138.986V67.5C138.676 67.9688 138.366 68.4375 137.9 68.75C134.798 72.0313 130.765 73.75 125.801 73.75ZM125.956 42.8125C122.233 42.8125 119.131 44.0625 116.494 46.7188C114.012 49.375 112.616 52.6562 112.616 56.4062C112.616 60.3125 113.857 63.4375 116.494 66.0938C119.131 68.75 122.233 70 125.956 70C129.679 70 132.781 68.75 135.418 66.0938C138.055 63.4375 139.296 60.1562 139.296 56.4062C139.296 52.5 138.055 49.375 135.418 46.7188C132.937 44.0625 129.679 42.8125 125.956 42.8125Z" fill="#706F6F"/>
<path d="M149.379 39.8437H151.551H153.722V44.6875C154.032 43.9062 154.498 43.125 154.963 42.6562C156.67 40.4687 159.462 39.2187 163.185 39.0625V43.5937C160.393 43.75 158.221 44.6875 156.515 46.4063C154.653 48.2813 153.877 50.9375 153.877 54.2188V73.125H151.706H149.534V39.8437H149.379Z" fill="#706F6F"/>
<path d="M89.1929 47.9688C89.1929 46.4063 88.7276 45.1563 87.7969 44.2188C86.8662 43.2813 85.6252 42.8125 84.2292 42.8125C82.678 42.8125 81.437 43.2813 80.6614 44.2188C79.7307 45.1563 79.2654 46.4063 79.2654 47.9688C79.2654 49.2188 79.7307 50.3125 80.6614 51.0938C81.5922 51.875 83.1433 52.6563 85.315 53.4375C88.5725 54.5313 90.8992 55.9375 92.4504 57.5C93.8465 59.2188 94.6221 61.4063 94.6221 64.0625C94.6221 66.875 93.6914 69.2188 91.6748 71.0938C89.6583 72.9688 87.3315 73.9063 84.3843 73.9063C81.2819 73.9063 78.8 72.9688 76.9386 71.0938C75.0772 69.2188 74.1465 66.5625 74.1465 63.4375H78.3347C78.3347 65.625 78.8 67.1875 79.8859 68.4375C80.9717 69.6875 82.3677 70.3125 84.3843 70.3125C86.2457 70.3125 87.6418 69.8438 88.7276 68.75C89.8134 67.6563 90.2788 66.4063 90.2788 64.5313C90.2788 62.8125 89.8134 61.4063 88.7276 60.3125C87.6418 59.2188 85.9355 58.2813 83.4536 57.5C80.5063 56.5625 78.3347 55.3125 77.0937 53.9063C75.8528 52.5 75.0772 50.625 75.0772 48.4375C75.0772 45.7813 76.0079 43.5938 77.7142 41.875C79.4205 40.1563 81.5922 39.2188 84.2292 39.2188C87.0213 39.2188 89.1929 40 90.8992 41.7188C92.6055 43.2813 93.3811 45.4688 93.3811 48.2813C93.5362 47.9688 89.1929 47.9688 89.1929 47.9688Z" fill="#706F6F"/>
<path d="M67.6318 39.8438H65.4601V59.5312C65.4601 62.8125 64.5294 65.4687 62.8231 67.1875C61.1168 69.0625 58.6349 70 55.5326 70H55.2224C52.12 70 49.7932 69.0625 47.9318 67.1875C46.2255 65.3125 45.2948 62.8125 45.2948 59.5312V39.8438H43.4334H41.2617V59.6875C41.2617 64.0625 42.5027 67.6562 44.9846 70.1562C47.4664 72.6562 51.0342 73.9062 55.5326 73.9062C60.031 73.9062 63.4436 72.6562 66.0806 70.1562C68.5625 67.6562 69.8034 64.2188 69.8034 59.6875V39.8438H67.6318Z" fill="#706F6F"/>
<path d="M308.064 9.53125C308.064 11.0937 307.754 12.5 307.289 13.75C306.823 15 306.048 15.9375 304.962 16.5625C304.031 17.1875 302.79 17.5 301.549 17.5C300.308 17.5 299.067 17.1875 298.137 16.5625C297.206 15.9375 296.43 15 295.81 13.9062C295.189 12.6562 295.034 11.4062 295.034 9.84375V8.59375C295.034 7.03125 295.344 5.625 295.81 4.375C296.43 3.125 297.051 2.1875 298.137 1.5625C299.067 0.9375 300.308 0.625 301.549 0.625C302.79 0.625 304.031 0.9375 304.962 1.5625C305.892 2.1875 306.668 3.125 307.289 4.375C307.754 5.625 308.064 7.03125 308.064 8.59375V9.53125ZM306.048 8.59375C306.048 6.71875 305.737 5.15625 304.962 4.0625C304.186 2.96875 303.1 2.5 301.704 2.5C300.308 2.5 299.222 2.96875 298.447 4.0625C297.671 5.15625 297.206 6.5625 297.206 8.4375V9.6875C297.206 11.5625 297.671 13.125 298.447 14.0625C299.222 15.1562 300.308 15.625 301.704 15.625C303.1 15.625 304.186 15.1562 304.962 14.0625C305.737 12.9687 306.048 11.5625 306.203 9.6875V8.59375H306.048Z" fill="#706F6F"/>
<path d="M320.94 17.1876H318.923V6.71875H313.339V17.1876H311.322V5H321.095V17.1876H320.94Z" fill="#706F6F"/>
<path d="M333.194 6.71875H329.161V17.1876H327.144V6.71875H323.111V5H333.194V6.71875Z" fill="#706F6F"/>
<path d="M334.124 11.0938C334.124 9.84375 334.434 8.90625 334.9 7.8125C335.365 6.875 335.985 6.09375 336.916 5.625C337.692 5.15625 338.622 4.84375 339.708 4.84375C341.415 4.84375 342.656 5.46875 343.741 6.5625C344.827 7.65625 345.293 9.21875 345.293 11.0938V11.25C345.293 12.5 345.137 13.4375 344.672 14.375C344.207 15.3125 343.586 16.0938 342.811 16.5626C342.035 17.0313 340.949 17.3438 339.863 17.3438C338.157 17.3438 336.916 16.7188 335.83 15.625C334.745 14.5313 334.124 13.125 334.124 11.0938ZM336.296 11.25C336.296 12.6563 336.606 13.75 337.226 14.5313C337.847 15.3125 338.622 15.7813 339.708 15.7813C340.794 15.7813 341.57 15.3125 342.19 14.5313C342.811 13.75 343.121 12.5 343.121 11.0938C343.121 9.6875 342.811 8.75 342.19 7.8125C341.57 7.03125 340.794 6.5625 339.708 6.5625C338.622 6.5625 337.847 7.03125 337.226 7.8125C336.606 8.59375 336.296 9.6875 336.296 11.25Z" fill="#706F6F"/>
<path d="M347.93 17.1876V5H352.583C354.134 5 355.375 5.3125 356.306 5.78125C357.237 6.40625 357.547 7.1875 357.547 8.28125C357.547 8.90625 357.392 9.375 357.082 9.84375C356.771 10.3125 356.306 10.625 355.53 10.9375C356.306 11.0938 356.771 11.4062 357.237 11.875C357.702 12.3437 357.857 12.9687 357.857 13.75C357.857 14.8437 357.392 15.7813 356.616 16.2501C355.841 16.8751 354.6 17.1876 353.204 17.1876H347.93ZM350.101 10.1562H352.738C354.6 10.1562 355.686 9.53125 355.686 8.4375C355.686 7.34375 354.755 6.71875 352.893 6.71875H350.101V10.1562ZM350.101 11.875V15.625H353.514C354.445 15.625 355.065 15.4688 355.375 15.1562C355.841 14.8438 355.996 14.375 355.996 13.75C355.996 12.5 355.065 11.875 353.359 11.875H350.101Z" fill="#706F6F"/>
<path d="M363.132 9.21875H366.234C367.63 9.21875 368.716 9.53125 369.492 10.3125C370.267 11.0938 370.733 12.0312 370.733 13.125C370.733 14.375 370.267 15.3125 369.492 16.0938C368.716 16.8751 367.63 17.1876 366.234 17.1876H361.115V5H363.132V9.21875ZM363.132 10.9375V15.4688H366.234C367.01 15.4688 367.63 15.3125 368.096 14.8438C368.561 14.375 368.716 13.9062 368.716 13.125C368.716 12.5 368.561 11.875 368.096 11.4063C367.63 11.25 367.01 10.9375 366.234 10.9375H363.132ZM375.076 17.1876H373.059V5H375.076V17.1876Z" fill="#706F6F"/>
<path d="M386.4 5H388.416V17.1875H386.4V8.4375L380.815 17.3437H378.799V5H380.815V13.9062L386.4 5ZM387.02 0.625C387.02 1.5625 386.71 2.34375 386.089 2.8125C385.469 3.4375 384.693 3.59375 383.607 3.59375C382.522 3.59375 381.746 3.28125 381.126 2.8125C380.505 2.1875 380.195 1.5625 380.195 0.625H381.901C381.901 1.09375 382.056 1.5625 382.367 1.875C382.677 2.1875 382.987 2.34375 383.607 2.34375C384.073 2.34375 384.538 2.1875 384.848 1.875C385.159 1.5625 385.314 1.09375 385.314 0.625H387.02Z" fill="#706F6F"/>
<path d="M305.893 28.4375H308.065V44.8438H305.893V32.1875L297.827 44.8438H295.655V28.4375H297.827V41.0936L305.893 28.4375Z" fill="#706F6F"/>
<path d="M321.404 44.8437H319.388V39.6875H313.804V44.8437H311.787V32.6562H313.804V37.9687H319.388V32.6562H321.404V44.8437Z" fill="#706F6F"/>
<path d="M333.814 34.375H329.781V44.8437H327.765V34.375H323.731V32.6562H333.814V34.375Z" fill="#706F6F"/>
<path d="M339.864 45.1562C338.157 45.1562 336.916 44.6875 335.83 43.5938C334.745 42.5 334.279 41.0937 334.279 39.2187V38.9062C334.279 37.6562 334.434 36.5625 334.9 35.625C335.365 34.6875 335.986 33.9062 336.761 33.4375C337.537 32.9687 338.467 32.6562 339.398 32.6562C340.949 32.6562 342.19 33.125 343.121 34.2188C344.052 35.3125 344.362 36.7187 344.362 38.75V39.6875H336.141C336.141 40.9375 336.451 41.875 337.227 42.6562C337.847 43.4375 338.778 43.75 339.708 43.75C340.484 43.75 341.104 43.5937 341.57 43.2812C342.035 42.9687 342.501 42.6562 342.966 42.0312L344.207 42.9688C343.431 44.375 341.88 45.1562 339.864 45.1562ZM339.708 34.2188C338.933 34.2188 338.157 34.5313 337.537 35.1563C336.916 35.7813 336.606 36.5625 336.451 37.6562H342.501V37.5C342.501 36.4063 342.19 35.625 341.725 35C341.26 34.5312 340.484 34.2188 339.708 34.2188Z" fill="#706F6F"/>
<path d="M357.237 38.9058C357.237 40.7808 356.772 42.187 355.996 43.437C355.22 44.5308 353.979 45.1558 352.583 45.1558C351.187 45.1558 349.946 44.687 349.171 43.7495V49.687H347.154V32.6558H349.016L349.171 34.062C349.946 32.9683 351.187 32.4995 352.739 32.4995C354.135 32.4995 355.376 33.1245 356.151 34.2183C356.927 35.312 357.392 36.8745 357.392 38.7495V38.9058H357.237ZM355.065 38.7495C355.065 37.3433 354.755 36.2495 354.135 35.4683C353.514 34.687 352.739 34.2183 351.808 34.2183C350.567 34.2183 349.636 34.8433 349.016 35.937V41.7183C349.636 42.812 350.567 43.437 351.808 43.437C352.739 43.437 353.514 42.9683 354.135 42.187C354.91 41.4058 355.065 40.312 355.065 38.7495Z" fill="#706F6F"/>
<path d="M369.647 44.8437H367.63V39.6875H362.046V44.8437H360.029V32.6562H362.046V37.9687H367.63V32.6562H369.647V44.8437Z" fill="#706F6F"/>
<path d="M378.023 45.1562C376.316 45.1562 375.075 44.6875 373.99 43.5938C372.904 42.5 372.438 41.0937 372.438 39.2187V38.9062C372.438 37.6562 372.594 36.5625 373.059 35.625C373.524 34.6875 374.145 33.9062 374.92 33.4375C375.696 32.9687 376.627 32.6562 377.557 32.6562C379.109 32.6562 380.349 33.125 381.28 34.2188C382.211 35.3125 382.521 36.7187 382.521 38.75V39.6875H374.3C374.3 40.9375 374.61 41.875 375.386 42.6562C376.006 43.4375 376.937 43.75 377.868 43.75C378.643 43.75 379.264 43.5937 379.729 43.2812C380.194 42.9687 380.66 42.6562 381.125 42.0312L382.366 42.9688C381.59 44.375 380.039 45.1562 378.023 45.1562ZM377.712 34.2188C376.937 34.2188 376.161 34.5313 375.541 35.1563C374.92 35.7813 374.61 36.5625 374.455 37.6562H380.505V37.5C380.505 36.4063 380.194 35.625 379.729 35C379.264 34.5312 378.643 34.2188 377.712 34.2188Z" fill="#706F6F"/>
<path d="M394 34.375H389.967V44.8437H387.95V34.375H383.917V32.6562H394V34.375Z" fill="#706F6F"/>
<path d="M302.17 69.8438L306.203 60.4688H308.84V72.6562H306.824V63.7498L302.946 72.6562H301.55L297.517 63.5938V72.6562H295.5V60.4688H298.137L302.17 69.8438Z" fill="#706F6F"/>
<path d="M319.698 72.5C319.543 72.1875 319.543 71.875 319.388 71.25C318.457 72.1875 317.216 72.8125 315.975 72.8125C314.734 72.8125 313.804 72.5 313.028 71.7188C312.253 71.0938 311.942 70.1563 311.942 69.0625C311.942 67.8125 312.408 66.875 313.338 66.0937C314.269 65.4687 315.665 65 317.372 65H319.388V64.0625C319.388 63.2812 319.233 62.8125 318.768 62.3438C318.302 61.875 317.682 61.7188 316.906 61.7188C316.131 61.7188 315.51 61.875 315.045 62.3438C314.579 62.6563 314.269 63.125 314.269 63.75H312.253C312.253 63.125 312.408 62.5 312.873 62.0313C313.338 61.4063 313.959 61.0937 314.579 60.625C315.355 60.3125 316.131 60.1562 317.061 60.1562C318.457 60.1562 319.543 60.4688 320.319 61.25C321.094 61.875 321.56 62.9687 321.56 64.2187V69.8438C321.56 70.9375 321.715 71.875 322.025 72.5V72.6562H319.698V72.5ZM316.286 70.9375C316.906 70.9375 317.527 70.7812 318.147 70.4687C318.768 70.1562 319.078 69.6875 319.388 69.2187V66.7188H317.837C315.355 66.7188 314.114 67.5 314.114 68.9062C314.114 69.5312 314.269 70 314.734 70.4687C315.045 70.7812 315.665 70.9375 316.286 70.9375Z" fill="#706F6F"/>
<path d="M332.573 62.0313H326.989V72.5H324.973V60.3125H332.573V62.0313Z" fill="#706F6F"/>
<path d="M341.726 72.5C341.571 72.1875 341.571 71.875 341.415 71.25C340.485 72.1875 339.244 72.8125 338.003 72.8125C336.762 72.8125 335.831 72.5 335.056 71.7188C334.28 71.0938 333.97 70.1563 333.97 69.0625C333.97 67.8125 334.435 66.875 335.366 66.0937C336.296 65.4687 337.693 65 339.399 65H341.415V64.0625C341.415 63.2812 341.26 62.8125 340.795 62.3438C340.33 61.875 339.709 61.7188 338.934 61.7188C338.158 61.7188 337.537 61.875 337.072 62.3438C336.607 62.6563 336.296 63.125 336.296 63.75H334.28C334.28 63.125 334.435 62.5 334.9 62.0313C335.366 61.4063 335.986 61.0937 336.607 60.625C337.382 60.3125 338.158 60.1562 339.089 60.1562C340.485 60.1562 341.571 60.4688 342.346 61.25C343.122 61.875 343.587 62.9687 343.587 64.2187V69.8438C343.587 70.9375 343.742 71.875 344.052 72.5V72.6562H341.726V72.5ZM338.313 70.9375C338.934 70.9375 339.554 70.7812 340.174 70.4687C340.795 70.1562 341.105 69.6875 341.415 69.2187V66.7188H339.864C337.382 66.7188 336.141 67.5 336.141 68.9062C336.141 69.5312 336.297 70 336.762 70.4687C337.072 70.7812 337.693 70.9375 338.313 70.9375Z" fill="#706F6F"/>
<path d="M353.359 63.75C353.359 63.125 353.204 62.6562 352.739 62.3437C352.273 62.0312 351.653 61.875 351.032 61.875C350.257 61.875 349.636 62.0313 349.171 62.5C348.706 62.8125 348.395 63.2812 348.395 63.9062H346.379C346.379 62.8125 346.844 62.0313 347.62 61.25C348.55 60.625 349.636 60.3125 350.877 60.3125C352.273 60.3125 353.359 60.625 354.135 61.25C354.91 61.875 355.376 62.8125 355.376 63.9062C355.376 64.5312 355.22 65 354.91 65.4687C354.6 65.9375 354.135 66.25 353.514 66.5625C354.91 67.0312 355.686 67.9687 355.686 69.375C355.686 70.4687 355.22 71.4062 354.445 72.0312C353.514 72.6562 352.428 72.9688 351.032 72.9688C349.636 72.9688 348.55 72.6563 347.62 71.875C346.689 71.25 346.224 70.3125 346.224 69.0625H348.24C348.24 69.6875 348.55 70.1563 349.016 70.625C349.481 71.0938 350.257 71.25 351.032 71.25C351.808 71.25 352.428 71.0938 352.894 70.625C353.359 70.3125 353.669 69.8438 353.669 69.2188C353.669 68.5938 353.514 68.125 353.049 67.8125C352.583 67.5 351.963 67.3438 351.187 67.3438H349.016V65.625H351.187C352.739 65.4688 353.359 64.8438 353.359 63.75Z" fill="#706F6F"/>
<path d="M366.234 60.3125H368.25V72.5H366.234V63.5938L360.649 72.5H358.633V60.3125H360.649V69.2188L366.234 60.3125Z" fill="#706F6F"/>
<path d="M381.436 72.5H379.419V67.3438H373.835V72.5H371.818V60.3125H373.835V65.625H379.419V60.3125H381.436V72.5Z" fill="#706F6F"/>
</svg>
