<svg width="257" height="88" viewBox="0 0 257 88" fill="none" xmlns="http://www.w3.org/2000/svg">
<path fill-rule="evenodd" clip-rule="evenodd" d="M74.1853 76.0409L37.2414 86.9874V64.8426L74.1853 76.0409ZM0.339526 10.9588L37.323 22.1671V0L0.339526 10.9588ZM0.000976562 33.8911V50.2391L74.5271 72.8205V56.4759L0.000976562 33.8911ZM74.5249 53.1086L0.000976562 30.5249V14.1769L74.5249 36.7617V53.1086ZM84.1411 62.3419L93.6028 60.9149C94.0053 62.7251 94.818 64.1063 96.0542 65.042C97.2805 65.9811 98.9975 66.4567 101.22 66.4567C103.66 66.4567 105.494 66.0145 106.718 65.1233C107.557 64.5118 107.969 63.6752 107.969 62.6449C107.969 61.9331 107.739 61.346 107.293 60.8804C106.822 60.4404 105.77 60.0327 104.143 59.6607C96.5351 58.0098 91.7138 56.4938 89.6736 55.127C86.855 53.2277 85.4456 50.5788 85.4456 47.1981C85.4456 44.1571 86.6609 41.5895 89.1013 39.5209C91.5406 37.439 95.322 36.3986 100.442 36.3986C105.321 36.3986 108.952 37.1917 111.324 38.7523C113.695 40.324 115.323 42.6421 116.215 45.7166L107.327 47.334C106.947 45.9672 106.227 44.9134 105.16 44.1905C104.096 43.4553 102.583 43.0933 100.614 43.0933C98.1285 43.0933 96.3509 43.433 95.2757 44.1225C94.5655 44.6082 94.2104 45.242 94.2104 46.0106C94.2104 46.6801 94.5192 47.2326 95.15 47.6971C95.998 48.3187 98.9303 49.1887 103.959 50.3193C108.975 51.4377 112.48 52.8178 114.475 54.4586C116.444 56.1217 117.43 58.4275 117.43 61.3794C117.43 64.602 116.067 67.3846 113.33 69.7038C110.603 72.0208 106.571 73.1759 101.22 73.1759C96.363 73.1759 92.5265 72.2023 89.6847 70.2585C86.855 68.3225 85.0111 65.6758 84.1411 62.3419ZM120.724 72.3817H130.153V23.8112H120.724V72.3817ZM132.665 54.2904C132.665 58.3362 133.444 61.7637 134.98 64.5797C136.528 67.3969 138.782 69.5311 141.749 70.9948C144.718 72.4507 147.82 73.1759 151.099 73.1759C156.378 73.1759 160.754 71.4326 164.236 67.926C167.709 64.4216 169.449 60.0093 169.449 54.6948C169.449 49.4159 167.73 45.0515 164.284 41.5895C160.833 38.1285 156.413 36.3986 151.029 36.3986C147.535 36.3986 144.372 37.1661 141.543 38.6944C138.715 40.2093 136.528 42.4282 134.98 45.31C133.444 48.2051 132.665 51.2004 132.665 54.2904ZM142.336 54.7861C142.336 58.2816 143.17 60.9495 144.853 62.803C146.527 64.6577 148.6 65.5856 151.064 65.5856C153.528 65.5856 155.587 64.6577 157.25 62.803C158.922 60.9495 159.759 58.2582 159.759 54.7182C159.759 51.2817 158.922 48.6228 157.25 46.7692C155.587 44.9134 153.528 43.9877 151.064 43.9877C148.6 43.9877 146.527 44.9134 144.853 46.7692C143.17 48.6228 142.336 51.304 142.336 54.7861ZM188.208 37.2028V44.6204H181.771V58.7985C181.771 61.6746 181.825 63.3466 181.952 63.8212C182.079 64.2979 182.355 64.6811 182.79 64.9975C183.223 65.3038 183.765 65.4642 184.383 65.4642C185.264 65.4642 186.521 65.1568 188.185 64.5686L188.986 71.7846C186.788 72.7103 184.312 73.1759 181.526 73.1759C179.834 73.1759 178.299 72.8896 176.933 72.3371C175.572 71.7712 174.575 71.0372 173.932 70.1416C173.292 69.2504 172.858 68.0385 172.605 66.5113C172.411 65.4397 172.306 63.2453 172.306 59.9536V44.6204H167.978V37.2028H172.306V30.2029L181.771 24.7737V37.2028H188.208ZM212.107 61.1878C211.603 62.9523 210.835 64.2289 209.826 65.032C208.82 65.8229 207.582 66.2206 206.105 66.2206C203.938 66.2206 202.12 65.4508 200.663 63.9147C199.208 62.3853 198.453 60.2377 198.384 57.4785H222.016C222.142 50.3416 220.676 45.0515 217.616 41.5895C214.548 38.1285 210.365 36.3986 205.064 36.3986C200.343 36.3986 196.435 38.0483 193.354 41.3511C190.261 44.6539 188.714 49.2221 188.714 55.059C188.714 59.9313 189.896 63.9816 192.242 67.1819C195.223 71.1842 199.804 73.1759 206.001 73.1759C209.919 73.1759 213.184 72.2937 215.784 70.5047C218.394 68.7302 220.298 66.1392 221.512 62.7373L212.107 61.1878ZM212.647 51.7796C212.576 49.0739 211.877 47.0276 210.537 45.6274C209.198 44.2239 207.559 43.5232 205.635 43.5232C203.574 43.5232 201.879 44.2696 200.537 45.7511C199.197 47.2204 198.533 49.2343 198.555 51.7796H212.647ZM218.518 72.3817L231.37 54.2559L219.055 37.2028H230.57L236.882 46.8706L243.526 37.2028H254.602L242.517 53.8605L255.702 72.3817H244.133L236.882 61.4819L229.561 72.3817H218.518Z" fill="#707277"/>
</svg>
