<svg width="258" height="45" viewBox="0 0 258 45" fill="none" xmlns="http://www.w3.org/2000/svg">
<path d="M115.477 0L105.334 21.7052V0H92.7834L79.9602 27.4523L73.418 41.4681H79.9602H82.652L96.0999 12.6756V41.4568V41.4681H105.334L118.782 12.6756V41.4681H128.005V0H115.477Z" fill="#005BBF"/>
<path d="M54.5867 0H42.0474L31.916 21.7052V0H19.3768L0 41.4681H9.23407L22.682 12.6756V41.4568V41.4681H31.916L45.3639 12.6756V41.4681L45.841 40.4346L54.5867 21.7052V0Z" fill="#005BBF"/>
<path d="M79.961 0H67.4217L48.0449 41.4681H70.7269L79.961 21.7165V0ZM70.7269 33.1086H61.1748L70.7269 12.6756V33.1086Z" fill="#005BBF"/>
<path d="M146.258 6.63309C146.258 8.45037 144.929 9.24543 142.919 9.24543H140.545V0H142.555C144.657 0 145.883 0.772346 145.883 2.31704C145.883 3.45284 145.179 4.12296 144.248 4.35012C145.327 4.54321 146.258 5.09975 146.258 6.63309ZM141.806 0.954074V3.94123H142.964C144.009 3.94123 144.622 3.38469 144.622 2.44198C144.622 1.38568 143.964 0.965432 142.68 0.965432H141.806V0.954074ZM144.963 6.61037C144.963 5.37235 144.236 4.86124 143.066 4.86124H141.794V8.25728H142.93C144.168 8.25728 144.963 7.8484 144.963 6.61037Z" fill="#005BBF"/>
<path d="M152.3 2.77088L151.766 3.49779C151.346 3.15705 150.948 2.98668 150.426 2.98668C149.415 2.98668 148.756 3.7931 148.756 5.74668C148.756 7.67755 149.426 8.40446 150.426 8.40446C150.948 8.40446 151.346 8.22273 151.766 7.89335L152.334 8.63162C151.789 9.12002 151.153 9.41533 150.38 9.41533C148.597 9.41533 147.473 8.15458 147.473 5.75804C147.473 3.41829 148.597 1.99854 150.369 1.99854C151.13 1.99854 151.721 2.23705 152.3 2.77088Z" fill="#005BBF"/>
<path d="M158.434 6.1215H154.311C154.39 7.84792 155.072 8.44989 156.014 8.44989C156.673 8.44989 157.15 8.24545 157.684 7.81384L158.218 8.5294C157.593 9.07458 156.889 9.41533 155.957 9.41533C154.117 9.41533 153.05 8.07508 153.05 5.75804C153.05 3.47508 154.061 1.99854 155.798 1.99854C157.502 1.99854 158.456 3.24792 158.456 5.48545C158.456 5.72397 158.445 5.95113 158.434 6.1215ZM157.286 5.13335C157.286 3.67952 156.832 2.91854 155.821 2.91854C154.969 2.91854 154.39 3.53187 154.311 5.281H157.286V5.13335Z" fill="#005BBF"/>
<path d="M169.155 8.29128V11.2784H168.269L168.087 9.25671H163.987L163.794 11.2784H162.908V8.29128H163.34C163.805 7.91647 164.135 7.55301 164.294 5.03153L164.487 2.18066H168.53V8.29128H169.155ZM167.338 3.08931H165.532L165.418 4.90659C165.271 7.18955 164.975 7.79153 164.317 8.29128H167.326L167.338 3.08931Z" fill="#005BBF"/>
<path d="M175.697 2.16943V9.23413H174.482V3.13487H172.551L172.358 5.7245C172.153 8.35956 171.937 8.90474 170.54 9.39314L170.245 8.47314C170.983 8.16647 171.063 7.75758 171.211 5.62227L171.449 2.18079L175.697 2.16943Z" fill="#005BBF"/>
<path d="M182.241 2.16943V9.23413H181.025V6.48548H179.685L178.345 9.23413H177.084L178.606 6.20153C177.822 5.84943 177.436 5.2361 177.436 4.32746C177.436 2.93042 178.39 2.16943 180.128 2.16943H182.241ZM181.037 5.62227V3.06672H180.094C179.162 3.06672 178.685 3.43017 178.685 4.32746C178.685 5.2361 179.128 5.63363 180.026 5.63363H181.037V5.62227Z" fill="#005BBF"/>
<path d="M191.985 2.77088L191.452 3.49779C191.031 3.15705 190.634 2.98668 190.111 2.98668C189.1 2.98668 188.442 3.7931 188.442 5.74668C188.442 7.67755 189.112 8.40446 190.111 8.40446C190.634 8.40446 191.031 8.22273 191.452 7.89335L192.019 8.63162C191.486 9.12002 190.838 9.41533 190.066 9.41533C188.271 9.41533 187.158 8.15458 187.158 5.75804C187.158 3.41829 188.283 1.99854 190.055 1.99854C190.815 1.99854 191.406 2.23705 191.985 2.77088Z" fill="#005BBF"/>
<path d="M198.494 5.68989C198.494 7.98421 197.403 9.40397 195.609 9.40397C193.803 9.40397 192.735 8.041 192.735 5.70125C192.735 3.35014 193.826 1.99854 195.62 1.99854C197.415 1.99854 198.494 3.29335 198.494 5.68989ZM193.996 5.71261C193.996 7.63212 194.575 8.46125 195.609 8.46125C196.631 8.46125 197.222 7.63212 197.222 5.68989C197.222 3.77039 196.643 2.96397 195.62 2.96397C194.598 2.96397 193.996 3.77039 193.996 5.71261Z" fill="#005BBF"/>
<path d="M204.037 3.90743C204.037 4.73656 203.582 5.22496 202.639 5.46348C203.741 5.62249 204.366 6.11088 204.366 7.17854C204.366 8.66644 203.219 9.40471 201.697 9.40471C200.618 9.40471 199.845 9.04125 199.221 8.50743L199.823 7.80323C200.379 8.23483 200.856 8.45064 201.629 8.45064C202.469 8.45064 203.094 8.12125 203.094 7.14446C203.094 6.25854 202.48 5.98595 201.47 5.98595H200.686L200.754 5.10002H201.345C202.276 5.10002 202.798 4.7252 202.798 3.95286C202.798 3.21459 202.299 2.90792 201.617 2.90792C200.936 2.90792 200.493 3.12372 200.004 3.44175L199.437 2.77162C200.084 2.24916 200.811 1.97656 201.776 1.97656C203.014 1.99928 204.037 2.71483 204.037 3.90743Z" fill="#005BBF"/>
<path d="M211.509 8.29128V11.2784H210.623L210.43 9.25671H206.33L206.137 11.2784H205.251V8.29128H205.683C206.148 7.91647 206.478 7.55301 206.637 5.03153L206.818 2.18066H210.873V8.29128H211.509ZM209.692 3.08931H207.886L207.784 4.90659C207.636 7.18955 207.341 7.79153 206.682 8.29128H209.692V3.08931Z" fill="#005BBF"/>
<path d="M218.075 8.58619L217.813 9.40397C217.155 9.29039 216.734 9.02915 216.575 8.34767C216.11 9.08594 215.428 9.42668 214.656 9.42668C213.384 9.42668 212.611 8.56347 212.611 7.28002C212.611 5.78076 213.645 4.97434 215.462 4.97434H216.382V4.34965C216.382 3.35014 216.007 2.95261 215.087 2.95261C214.565 2.95261 213.997 3.08891 213.361 3.32742L213.066 2.47557C213.827 2.16891 214.565 1.99854 215.269 1.99854C216.859 1.99854 217.575 2.81631 217.575 4.29286V7.62076C217.575 8.23409 217.757 8.44989 218.075 8.58619ZM216.382 7.40496V5.73533H215.598C214.44 5.73533 213.849 6.201 213.849 7.20051C213.849 8.06372 214.247 8.50668 214.94 8.50668C215.598 8.49533 216.053 8.10915 216.382 7.40496Z" fill="#005BBF"/>
<path d="M223.379 6.09931H220.812V9.24548H219.597V2.16943H220.812V5.14524H223.379V2.16943H224.594V9.23412H223.379V6.09931Z" fill="#005BBF"/>
<path d="M231.626 9.24548H230.467V5.6677C230.467 4.63412 230.569 3.90721 230.649 3.47561L227.877 9.23412H226.571V2.16943H227.718V5.64499C227.718 6.65585 227.616 7.4282 227.548 7.91659L230.297 2.16943H231.614V9.24548H231.626Z" fill="#005BBF"/>
<path d="M238.179 2.16943V9.23413H236.975V6.48548H235.623L234.283 9.23413H233.011L234.533 6.20153C233.749 5.84943 233.363 5.2361 233.363 4.32746C233.363 2.93042 234.317 2.16943 236.055 2.16943H238.179ZM236.975 5.62227V3.06672H236.032C235.101 3.06672 234.624 3.43017 234.624 4.32746C234.624 5.2361 235.067 5.63363 235.964 5.63363H236.975V5.62227Z" fill="#005BBF"/>
<path d="M147.348 25.3513H146.189L145.951 21.819C145.883 20.9785 145.883 20.2629 145.894 19.4224L144.44 24.5449H143.372L141.964 19.4451C141.975 20.2516 141.975 20.9898 141.919 21.819L141.703 25.3513H140.556L141.112 18.2866H142.589L143.906 23.3864L145.281 18.2866H146.791L147.348 25.3513Z" fill="#005BBF"/>
<path d="M154.004 22.2392H149.881C149.96 23.9656 150.63 24.5676 151.585 24.5676C152.243 24.5676 152.72 24.3631 153.254 23.9315L153.788 24.6471C153.175 25.1923 152.459 25.533 151.528 25.533C149.688 25.533 148.62 24.1928 148.62 21.8757C148.62 19.5928 149.631 18.1162 151.369 18.1162C153.072 18.1162 154.027 19.3656 154.027 21.6031C154.027 21.8303 154.015 22.0574 154.004 22.2392ZM152.857 21.2397C152.857 19.7858 152.402 19.0249 151.391 19.0249C150.54 19.0249 149.96 19.6382 149.881 21.3873H152.857V21.2397Z" fill="#005BBF"/>
<path d="M160.955 21.9773C160.955 24.3966 159.842 25.521 158.138 25.521C156.457 25.521 155.287 24.3852 155.287 21.4549C155.287 18.4336 155.798 17.0934 157.752 16.3097C158.695 15.9462 159.137 15.7418 159.762 15.3442L160.262 16.1507C159.774 16.5028 159.183 16.7981 158.286 17.1615C157.173 17.6158 156.639 18.1156 156.48 20.0805C156.911 19.2968 157.593 18.7403 158.592 18.7403C159.989 18.7289 160.955 19.8647 160.955 21.9773ZM159.671 22.0341C159.671 20.285 159.16 19.6944 158.32 19.6944C157.593 19.6944 156.945 20.1487 156.559 21.08V21.8524C156.559 23.7378 157.15 24.5556 158.149 24.5556C159.001 24.5556 159.671 24.1126 159.671 22.0341Z" fill="#005BBF"/>
<path d="M167.611 22.2392H163.499C163.579 23.9656 164.249 24.5676 165.203 24.5676C165.861 24.5676 166.339 24.3631 166.872 23.9315L167.406 24.6471C166.793 25.1923 166.077 25.533 165.146 25.533C163.306 25.533 162.238 24.1928 162.238 21.8757C162.238 19.5928 163.249 18.1162 164.987 18.1162C166.691 18.1162 167.633 19.3656 167.633 21.6031C167.645 21.8303 167.633 22.0574 167.611 22.2392ZM166.475 21.2397C166.475 19.7858 166.021 19.0249 165.01 19.0249C164.158 19.0249 163.59 19.6382 163.499 21.3873H166.475V21.2397Z" fill="#005BBF"/>
<path d="M174.108 18.2863V25.351H172.893V19.2403H170.962L170.769 21.83C170.564 24.465 170.349 25.0102 168.952 25.4986L168.656 24.5672C169.395 24.2606 169.474 23.8517 169.622 21.7164L169.86 18.2749H174.108V18.2863Z" fill="#005BBF"/>
<path d="M181.138 25.3513H179.98V21.7735C179.98 20.74 180.093 20.013 180.162 19.5814L177.39 25.34H176.084V18.2866H177.231V21.7735C177.231 22.7844 177.129 23.5567 177.072 24.0451L179.821 18.298H181.138V25.3513Z" fill="#005BBF"/>
<path d="M192.201 25.3513H191.043V21.7735C191.043 20.74 191.156 20.013 191.236 19.5814L188.464 25.34H187.158V18.2866H188.305V21.7622C188.305 22.773 188.214 23.5454 188.146 24.0338L190.895 18.2866H192.213L192.201 25.3513Z" fill="#005BBF"/>
<path d="M201.56 19.2407H199.027V25.3513H197.812V18.2866H202.764V25.3513H201.548L201.56 19.2407Z" fill="#005BBF"/>
<path d="M210.147 21.7958C210.147 24.0674 209.261 25.5326 207.671 25.5326C206.944 25.5326 206.377 25.2146 205.979 24.6921V28.0541L204.764 28.2017V18.2862H205.831L205.899 19.2402C206.365 18.5133 207.013 18.1158 207.819 18.1158C209.375 18.1044 210.147 19.456 210.147 21.7958ZM208.875 21.8072C208.875 19.8422 208.387 19.0699 207.49 19.0699C206.819 19.0699 206.342 19.5355 205.968 20.1148V23.6926C206.308 24.2264 206.774 24.5672 207.376 24.5672C208.33 24.5558 208.875 23.738 208.875 21.8072Z" fill="#005BBF"/>
<path d="M216.814 22.2392H212.702C212.782 23.977 213.452 24.5676 214.406 24.5676C215.065 24.5676 215.53 24.3631 216.075 23.9315L216.609 24.6471C215.996 25.2036 215.28 25.533 214.349 25.533C212.509 25.533 211.441 24.1928 211.441 21.8757C211.441 19.5928 212.452 18.1162 214.19 18.1162C215.894 18.1162 216.836 19.3656 216.836 21.6145C216.848 21.8303 216.836 22.0574 216.814 22.2392ZM215.678 21.2397C215.678 19.7858 215.224 19.0249 214.213 19.0249C213.361 19.0249 212.782 19.6382 212.702 21.3873H215.678V21.2397Z" fill="#005BBF"/>
<path d="M223.925 24.3972V27.3844H223.039L222.857 25.3513H218.757L218.564 27.3844H217.678V24.3972H218.109C218.586 24.0224 218.904 23.659 219.063 21.1375L219.256 18.2866H223.3V24.3972H223.925ZM222.107 19.1953H220.301L220.199 21.0125C220.052 23.2955 219.756 23.8975 219.097 24.3972H222.107V19.1953Z" fill="#005BBF"/>
<path d="M231.954 25.3507H230.796L230.557 21.8183C230.489 20.9665 230.489 20.2623 230.5 19.4218L229.047 24.5443H227.979L226.57 19.4445C226.582 20.2509 226.582 20.9892 226.525 21.8297L226.309 25.3621H225.162L225.719 18.2974H227.195L228.513 23.3971L229.887 18.2974H231.398L231.954 25.3507Z" fill="#005BBF"/>
<path d="M238.61 22.2392H234.498C234.578 23.977 235.248 24.5676 236.202 24.5676C236.861 24.5676 237.338 24.3631 237.872 23.9315L238.417 24.6471C237.792 25.2036 237.088 25.533 236.157 25.533C234.317 25.533 233.249 24.1928 233.249 21.8757C233.249 19.5928 234.26 18.1162 235.986 18.1162C237.701 18.1162 238.644 19.3656 238.644 21.6145C238.633 21.8303 238.621 22.0574 238.61 22.2392ZM237.463 21.2397C237.463 19.7858 237.009 19.0249 235.998 19.0249C235.146 19.0249 234.567 19.6382 234.487 21.3873H237.463V21.2397Z" fill="#005BBF"/>
<path d="M244.629 19.2521H242.664V25.3513H241.449V19.2521H239.382V18.2866H244.766L244.629 19.2521Z" fill="#005BBF"/>
<path d="M251.183 21.8072C251.183 24.1015 250.093 25.5213 248.31 25.5213C246.504 25.5213 245.425 24.147 245.425 21.8186C245.425 19.4675 246.515 18.1045 248.321 18.1045C250.104 18.1045 251.183 19.3993 251.183 21.8072ZM246.686 21.8186C246.686 23.7381 247.265 24.5672 248.298 24.5672C249.321 24.5672 249.911 23.7267 249.911 21.7959C249.911 19.8763 249.332 19.0699 248.31 19.0699C247.276 19.0813 246.686 19.8877 246.686 21.8186Z" fill="#005BBF"/>
<path d="M257.827 23.2273C257.827 24.6812 256.737 25.3513 255.102 25.3513H252.796V18.3547C253.5 18.2184 254.25 18.1162 254.977 18.1162C256.567 18.1162 257.487 18.8545 257.487 20.0244C257.487 20.7853 257.066 21.2965 256.169 21.5123C257.26 21.6258 257.827 22.1937 257.827 23.2273ZM254.023 19.0703V21.1942H255.158C255.851 21.1942 256.317 20.8989 256.317 20.1039C256.317 19.3429 255.885 19.0021 254.988 19.0021C254.625 19.0021 254.329 19.0249 254.023 19.0703ZM256.589 23.2046C256.589 22.296 256.101 22.0007 255.215 22.0007H254.023V24.4767H255.113C255.953 24.4653 256.589 24.17 256.589 23.2046Z" fill="#005BBF"/>
<path d="M145.599 41.4676H144.44V37.8899C144.44 36.8563 144.554 36.1294 144.633 35.6978L141.862 41.4563H140.556V34.3916H141.703V37.8672C141.703 38.878 141.612 39.6504 141.544 40.1388L144.292 34.3916H145.61V41.4676H145.599Z" fill="#005BBF"/>
<path d="M151.369 38.3218H148.802V41.468H147.587V34.4033H148.802V37.3678H151.369V34.4033H152.584V41.468H151.369V38.3218Z" fill="#005BBF"/>
<path d="M159.036 35.3688H157.071V41.468H155.856V35.3688H153.8V34.4033H159.183L159.036 35.3688Z" fill="#005BBF"/>
<path d="M165.192 38.3446H161.08C161.16 40.0824 161.841 40.673 162.784 40.673C163.443 40.673 163.908 40.4686 164.453 40.037L164.987 40.7525C164.363 41.3091 163.658 41.6385 162.727 41.6385C160.887 41.6385 159.819 40.2982 159.819 37.9812C159.819 35.6982 160.83 34.2217 162.568 34.2217C164.283 34.2217 165.214 35.4711 165.214 37.72C165.214 37.9471 165.203 38.1743 165.192 38.3446ZM164.045 37.3565C164.045 35.9027 163.59 35.1417 162.579 35.1417C161.727 35.1417 161.148 35.755 161.069 37.5042H164.045V37.3565Z" fill="#005BBF"/>
<path d="M172.165 37.9017C172.165 40.1733 171.279 41.6385 169.689 41.6385C168.962 41.6385 168.394 41.3204 167.997 40.798V44.16L166.793 44.2962V34.3921H167.849L167.917 35.3461C168.394 34.6192 169.03 34.2217 169.837 34.2217C171.404 34.2217 172.165 35.5619 172.165 37.9017ZM170.905 37.913C170.905 35.9481 170.416 35.1758 169.519 35.1758C168.849 35.1758 168.372 35.6414 167.997 36.2207V39.7985C168.338 40.3323 168.803 40.673 169.405 40.673C170.348 40.673 170.905 39.8439 170.905 37.913Z" fill="#005BBF"/>
<path d="M178.629 39.0601C178.629 40.7411 177.516 41.468 176.005 41.468H173.858V34.4033H175.074V36.709H175.857C177.845 36.709 178.629 37.6063 178.629 39.0601ZM177.379 39.0488C177.379 38.0833 177.005 37.5836 175.869 37.5836H175.062V40.5707H175.926C176.823 40.5594 177.379 40.1732 177.379 39.0488Z" fill="#005BBF"/>
<path d="M185.124 38.3446H181.001C181.081 40.0824 181.751 40.673 182.705 40.673C183.364 40.673 183.841 40.4686 184.375 40.037L184.92 40.7525C184.295 41.3091 183.591 41.6385 182.66 41.6385C180.82 41.6385 179.752 40.2982 179.752 37.9812C179.752 35.6982 180.763 34.2217 182.501 34.2217C184.204 34.2217 185.158 35.4711 185.158 37.72C185.158 37.9471 185.136 38.1743 185.124 38.3446ZM183.989 37.3565C183.989 35.9027 183.534 35.1417 182.523 35.1417C181.671 35.1417 181.104 35.755 181.013 37.5042H183.989V37.3565Z" fill="#005BBF"/>
<path d="M192.11 37.9017C192.11 40.1733 191.224 41.6385 189.634 41.6385C188.907 41.6385 188.339 41.3204 187.942 40.798V44.16L186.727 44.2962V34.3921H187.794L187.862 35.3461C188.328 34.6192 188.975 34.2217 189.782 34.2217C191.338 34.2217 192.11 35.5619 192.11 37.9017ZM190.838 37.913C190.838 35.9481 190.35 35.1758 189.452 35.1758C188.782 35.1758 188.305 35.6414 187.931 36.2207V39.7985C188.271 40.3323 188.737 40.673 189.339 40.673C190.293 40.673 190.838 39.8439 190.838 37.913Z" fill="#005BBF"/>
<path d="M198.777 40.8095L198.516 41.6272C197.857 41.5137 197.437 41.2524 197.278 40.5709C196.801 41.3092 196.131 41.65 195.347 41.65C194.086 41.65 193.303 40.7867 193.303 39.5033C193.303 38.004 194.336 37.1976 196.154 37.1976H197.074V36.5729C197.074 35.5848 196.699 35.1759 195.779 35.1759C195.245 35.1759 194.688 35.3122 194.052 35.5507L193.757 34.6988C194.507 34.3922 195.245 34.2104 195.961 34.2104C197.551 34.2104 198.266 35.0282 198.266 36.5048V39.8327C198.278 40.4574 198.459 40.6732 198.777 40.8095ZM197.085 39.6282V37.9586H196.301C195.143 37.9586 194.552 38.4243 194.552 39.4238C194.552 40.287 194.961 40.73 195.642 40.73C196.301 40.7186 196.767 40.3324 197.085 39.6282Z" fill="#005BBF"/>
</svg>
