<svg width="39" height="34" viewBox="0 0 39 34" fill="currentColor" xmlns="http://www.w3.org/2000/svg">
<g clip-path="url(#clip0_284_138)">
<path d="M38.9841 1.27491C38.6778 0.326058 38.0289 -0.0250584 37.0817 2.1383e-05C35.6105 0.041821 34.1353 0.0083813 32.6642 0.0125613C31.7613 0.0125613 31.2454 0.413837 30.9915 1.31253C30.7658 2.10672 30.5199 2.89673 30.3264 3.69928C30.2458 4.0295 30.1168 4.12564 29.7904 4.12564C22.2129 4.1131 14.6313 4.11728 7.05381 4.11728C5.26423 4.11728 3.47465 4.11728 1.68507 4.11728C0.403343 4.11728 -0.261703 5.04941 0.101051 6.33266C1.81002 12.3978 3.52302 18.4671 5.24005 24.5322C5.49801 25.4476 6.01392 25.8447 6.94096 25.8447C13.2649 25.8447 19.5849 25.8447 25.9089 25.8447C26.8521 25.8447 27.3639 25.4434 27.63 24.4988C29.5888 17.5475 31.5517 10.6004 33.5025 3.64495C33.6033 3.28129 33.7444 3.15171 34.1192 3.16425C35.1067 3.19351 36.1023 3.14335 37.0898 3.18515C38.0369 3.22277 38.6818 2.85911 38.9922 1.91026V1.27909L38.9841 1.27491ZM24.9617 22.6805H24.5506C19.1415 22.6805 13.7365 22.6763 8.32748 22.6888C7.98085 22.6888 7.85187 22.5802 7.75917 22.2458C6.65479 18.2957 5.53831 14.3498 4.42184 10.4039C4.13164 9.37149 3.84547 8.34322 3.55123 7.29405H29.3027L24.9617 22.6805Z" fill="currentColor"/>
<path d="M18.4805 31.0487C18.4765 32.2358 19.3834 33.1847 20.52 33.1931C21.6486 33.1972 22.5837 32.24 22.5917 31.0696C22.5998 29.9034 21.6687 28.9337 20.5442 28.9295C19.4035 28.9253 18.4886 29.8658 18.4846 31.0487H18.4805Z" fill="currentColor"/>
<path d="M12.3097 28.9253C11.1771 28.9337 10.2622 29.8951 10.2662 31.0696C10.2703 32.2442 11.2013 33.1931 12.3339 33.1889C13.4665 33.1805 14.3815 32.2191 14.3774 31.0446C14.3694 29.87 13.4423 28.9211 12.3097 28.9253Z" fill="currentColor"/>
</g>
<defs>
<clipPath id="clip0_284_138">
<rect width="38.9838" height="33.1889" fill="currentColor" transform="matrix(-1 0 0 1 38.9839 0)"/>
</clipPath>
</defs>
</svg>
