<svg width="16" height="20" viewBox="0 0 16 20" fill="none" xmlns="http://www.w3.org/2000/svg">
<g clip-path="url(#clip0_104_427)">
<path d="M2.16682 9.97187C3.3037 10.7147 4.41075 11.4366 5.51779 12.1608C8.80609 14.3079 12.0944 16.4549 15.3767 18.6066C15.5498 18.7184 15.7079 18.8791 15.7825 19.0397C15.8929 19.2819 15.7169 19.5451 15.4394 19.6708C15.1529 19.8012 14.8277 19.7803 14.5293 19.5893C13.7535 19.091 12.9866 18.5856 12.2167 18.0826C8.37342 15.5747 4.53309 13.0644 0.689773 10.5564C0.05121 10.1395 0.048225 9.79256 0.692756 9.3734C5.27012 6.38803 9.8445 3.39801 14.4248 0.410317C14.5591 0.321828 14.7203 0.240324 14.8874 0.203065C15.2365 0.128547 15.5737 0.265939 15.7318 0.515108C15.887 0.759619 15.8273 1.0344 15.5289 1.23001C14.7322 1.76095 13.9235 2.2849 13.1179 2.80886C9.5282 5.15383 5.93554 7.49881 2.34586 9.84379C2.29513 9.87639 2.24739 9.91365 2.16384 9.97187L2.16682 9.97187Z" fill="black"/>
</g>
<defs>
<clipPath id="clip0_104_427">
<rect width="19.5725" height="15.606" fill="white" transform="translate(15.8154 0.184265) rotate(90)"/>
</clipPath>
</defs>
</svg>
