<svg width="17" height="20" viewBox="0 0 17 20" fill="none" xmlns="http://www.w3.org/2000/svg">
<g clip-path="url(#clip0_104_433)">
<path d="M14.1369 9.96917C13 9.22633 11.893 8.50444 10.7859 7.78022C7.49762 5.63318 4.20932 3.48614 0.926989 1.33444C0.75392 1.22266 0.595771 1.06198 0.521173 0.901304C0.410767 0.659122 0.58682 0.395981 0.864326 0.270233C1.15078 0.139828 1.47603 0.160786 1.77443 0.351736C2.55025 0.850073 3.31712 1.3554 4.08698 1.85839C7.93029 4.36638 11.7706 6.87669 15.6139 9.38468C16.2525 9.80151 16.2555 10.1485 15.611 10.5676C11.0336 13.553 6.45921 16.543 1.87887 19.5307C1.74459 19.6192 1.58346 19.7007 1.41635 19.738C1.06723 19.8125 0.730048 19.6751 0.5719 19.4259C0.416735 19.1814 0.476414 18.9066 0.774808 18.711C1.57152 18.1801 2.38017 17.6561 3.18583 17.1322C6.77551 14.7872 10.3682 12.4422 13.9579 10.0973C14.0086 10.0646 14.0563 10.0274 14.1399 9.96917L14.1369 9.96917Z" fill="black"/>
</g>
<defs>
<clipPath id="clip0_104_433">
<rect width="19.5725" height="15.606" fill="white" transform="translate(0.488281 19.7568) rotate(-90)"/>
</clipPath>
</defs>
</svg>
