<svg width="154" height="36" viewBox="0 0 154 36" fill="none" xmlns="http://www.w3.org/2000/svg">
<g clip-path="url(#clip0_3_658)">
<path d="M48.0919 5.56473C47.8098 4.48913 47.2595 3.50856 46.4958 2.72066C45.7321 1.93277 44.7817 1.36505 43.7393 1.07404C39.9227 0.000244141 24.5636 0.000244141 24.5636 0.000244141C24.5636 0.000244141 9.20387 0.0328304 5.38786 1.10662C4.34544 1.39768 3.39511 1.96542 2.6315 2.75331C1.86789 3.5412 1.31764 4.52175 1.03556 5.59731C-0.118842 12.594 -0.566705 23.2547 1.06714 29.9712C1.34923 31.0467 1.89947 32.0273 2.66308 32.8152C3.4267 33.6031 4.37703 34.1708 5.41944 34.4619C9.23576 35.5357 24.5952 35.5357 24.5952 35.5357C24.5952 35.5357 39.9545 35.5357 43.7709 34.4619C44.8133 34.1708 45.7636 33.6031 46.5272 32.8152C47.2908 32.0273 47.8411 31.0467 48.1232 29.9712C49.3404 22.9648 49.7158 12.3107 48.0916 5.56504L48.0919 5.56473Z" fill="#FF0000"/>
<path d="M19.6748 25.3826L32.4165 17.768L19.6748 10.1531V25.3826Z" fill="white"/>
<path d="M147.755 10.3162C149.426 10.3162 150.688 10.6414 151.571 11.2596C152.454 11.8781 153.085 12.8542 153.463 14.1887C153.842 15.5228 153.999 17.3449 153.999 19.688V23.4956H145.894V24.6668L146.02 27.8885C146.115 28.6045 146.273 29.1252 146.525 29.4505C146.777 29.776 147.187 29.9387 147.723 29.9387C148.449 29.9387 148.953 29.646 149.205 29.0604C149.489 28.4744 149.615 27.4981 149.647 26.1639L153.842 26.4243C153.873 26.6195 153.873 26.8799 153.873 27.2051C153.873 29.2553 153.337 30.785 152.233 31.7936C151.129 32.8022 149.615 33.323 147.628 33.323C145.232 33.323 143.56 32.5421 142.614 31.0128C141.668 29.4831 141.163 27.0748 141.163 23.8534V19.9158C141.27 14.3839 142.213 10.3323 147.755 10.3162ZM89.4393 10.7392V27.0425C89.4393 28.0189 89.5338 28.7348 89.7546 29.1578C90.2024 30.0625 91.3631 29.8313 91.9939 29.3856C92.358 29.1317 92.6515 28.784 92.8454 28.377V10.7389H97.6708V32.9648H93.8861L93.4761 30.2313H93.3817C92.341 32.2815 90.7953 33.3227 88.7454 33.3227C85.5902 33.3146 84.8181 30.969 84.6344 28.5868L84.6223 28.4189C84.5996 28.0581 84.5863 27.6967 84.5823 27.3352V10.7392H89.439H89.4393ZM114.324 10.7392V27.0425C114.324 28.0189 114.418 28.7348 114.639 29.1578C115.087 30.0625 116.247 29.8313 116.878 29.3856C117.242 29.1317 117.536 28.784 117.73 28.377V10.7389H122.555V32.9648H118.77L118.36 30.2313H118.266C117.225 32.2815 115.679 33.3227 113.63 33.3227C110.474 33.3146 109.702 30.969 109.519 28.5868L109.507 28.4189C109.484 28.0581 109.471 27.6967 109.467 27.3352V10.7392H114.324ZM75.4359 10.3162C77.0129 10.3162 78.3059 10.6414 79.2522 11.3248C80.1981 12.0082 80.9236 13.0497 81.3652 14.4813C81.8067 15.9132 82.0275 17.833 82.0275 20.2087V23.4301C82.0275 25.8058 81.8067 27.6933 81.3652 29.1249C80.9236 30.5572 80.2297 31.5984 79.2522 32.2818C78.2746 32.9326 76.9497 33.2904 75.3098 33.2904C73.6065 33.323 72.2819 32.9651 71.3043 32.3143C70.3268 31.631 69.6326 30.5895 69.2229 29.1578C68.8127 27.7259 68.6235 25.8384 68.6235 23.463V20.241C68.6235 17.8653 68.8442 15.9129 69.3174 14.481C69.7905 13.0168 70.5157 11.9753 71.5251 11.3248C72.5342 10.6737 73.8273 10.3159 75.4359 10.3159V10.3162ZM130.125 1.39966V13.1146H130.156C130.598 12.2686 131.165 11.5852 131.954 11.0644C132.69 10.5535 133.558 10.2816 134.445 10.2836C135.612 10.2836 136.495 10.6088 137.158 11.227C137.82 11.8781 138.293 12.8868 138.577 14.2861C138.852 15.6417 139.008 17.5165 139.018 19.8807L139.018 20.1113V23.6256C139.018 26.9122 138.608 29.353 137.851 30.915C137.063 32.477 135.865 33.2581 134.224 33.2581C133.31 33.2581 132.49 33.0303 131.733 32.6073C131.064 32.2048 130.509 31.6277 130.124 30.9339L130.061 30.8172H129.967L129.462 32.9326H125.457V1.39997H130.125V1.39966ZM110.822 2.53862V6.57342H106.029V32.9648H101.298V6.57373H96.4725V2.53893H110.823L110.822 2.53862ZM58.8147 2.53862L58.8177 2.55104C58.8637 2.76238 59.5014 5.68738 60.2028 9.09528L60.2581 9.36528L60.3418 9.77338L60.3977 10.0474L60.4257 10.1849L60.4816 10.4605L60.5096 10.5986L60.5652 10.8751L60.6465 11.2795C61.1202 13.6393 61.5723 16.006 61.8427 17.703H61.969C62.228 16.1808 62.6042 14.2327 63.0055 12.2437L63.1108 11.7242C63.1637 11.4641 63.2166 11.2041 63.2702 10.9446L63.3526 10.5421C63.8974 7.9063 64.4586 5.27411 65.0361 2.64569L65.0451 2.6038L65.0595 2.53862H69.8849L64.3024 23.0726V32.9326H59.5402V23.1049H59.5086L53.9893 2.53831H58.8147V2.53862ZM75.3411 13.7653C74.6788 13.7653 74.2372 14.1235 73.9536 14.872C73.6697 15.6203 73.5437 16.7592 73.5437 18.3541V25.2853C73.5437 26.9125 73.6697 28.1163 73.922 28.8326C74.1744 29.5482 74.6475 29.9064 75.3411 29.9064C76.0034 29.9064 76.4766 29.5482 76.7605 28.8326C77.0444 28.1163 77.1705 26.9125 77.1705 25.2853V18.3538C77.1705 16.7592 77.0441 15.5877 76.7605 14.8717C76.4766 14.1235 76.0034 13.7653 75.3411 13.7653ZM130.976 14.4165C130.592 14.7827 130.318 15.2342 130.155 15.7987L130.125 15.9132V28.5393C130.516 29.2227 131.071 29.6783 132.048 29.7109C132.553 29.7109 132.963 29.5157 133.279 29.1252C133.594 28.7348 133.814 28.0837 133.941 27.1726C134.062 26.298 134.125 25.0932 134.13 23.5589V20.4691C134.13 18.7119 134.067 17.3778 133.972 16.434C133.846 15.4902 133.688 14.8069 133.405 14.4165C132.856 13.6027 131.67 13.6127 130.976 14.4165ZM147.66 13.6679C147.124 13.7005 146.745 13.8631 146.525 14.1561C146.273 14.4813 146.115 14.9695 146.02 15.6855C145.927 16.3868 145.895 18.8386 145.894 18.9366V20.5343H149.426V19.1253V19.1523C149.424 19.6448 149.414 18.8665 149.393 17.9109L149.39 17.7825C149.37 16.9427 149.341 16.0063 149.3 15.6855C149.205 14.9369 149.048 14.4161 148.796 14.1235C148.543 13.8305 148.165 13.6679 147.66 13.6679H147.66Z" fill="#282828"/>
</g>
<defs>
<clipPath id="clip0_3_658">
<rect width="154" height="36" fill="white" transform="translate(0 0.000244141)"/>
</clipPath>
</defs>
</svg>
