<?xml version="1.0" encoding="UTF-8"?><svg xmlns="http://www.w3.org/2000/svg" viewBox="0 0 349.78 60.61"><defs><style>.d{fill:#fff;}.e{fill:#4680c2;}</style></defs><g id="a"/><g id="b"><g id="c"><g><g><path class="e" d="M30.28,0c4.9,.12,9.8,.16,14.69,.39,1.99,.09,4.01,.45,5.94,.96,5.08,1.34,7.81,4.89,8.74,9.92,.33,1.79,.63,3.61,.64,5.42,.04,9.48,.03,18.97-.09,28.45-.02,1.89-.41,3.82-.88,5.66-1.34,5.25-4.93,8.13-10.14,8.95-2.97,.47-5.99,.72-9,.77-6.75,.11-13.51,.13-20.26-.01-3.16-.07-6.35-.36-9.44-.96-5.58-1.08-8.72-4.75-9.61-10.26-.45-2.78-.72-5.62-.76-8.43-.11-7-.13-14.01,0-21.02,.06-3.06,.36-6.16,.93-9.16C2.09,5.05,5.73,1.82,11.29,.96c3.34-.52,6.74-.66,10.13-.81,2.95-.13,5.91-.03,8.86-.03v-.12Zm20.3,43.68c-1.7-5.76-5.13-9.82-10.23-12.64,4.52-3.12,7.58-7.06,8.73-12.54-1.83,0-3.46,.08-5.08-.03-1.06-.07-1.51,.29-1.89,1.28-1.3,3.42-3.4,6.22-6.71,7.95-.69,.36-1.49,.53-2.41,.85v-1.26c0-2.61-.02-5.22,.01-7.82,.01-.73-.19-1.01-.95-.98-1.44,.05-2.89,.01-4.34,.02q-1.25,0-1.25,1.21c0,5,0,9.99,0,14.99,0,.36-.03,.72-.06,1.21-.45-.15-.78-.24-1.08-.37-1.57-.66-2.85-1.7-3.93-3-2.17-2.62-3.26-5.71-3.79-9.01-.27-1.64-.39-3.29-.59-5.03-1.97,0-3.91,.03-5.85-.02-.76-.02-1.04,.24-.92,.97,.45,2.91,.66,5.88,1.39,8.73,2.49,9.76,10.37,15.64,20.43,15.51,.76-.01,.96-.27,.95-1-.04-2.29-.02-4.59-.01-6.88,0-.34,.04-.67,.06-1.09,2.29,.2,4.21,1.04,5.92,2.39,1.95,1.54,3.29,3.52,4.21,5.81,.12,.3,.45,.72,.7,.73,2.16,.06,4.32,.03,6.7,.03Z"/><path class="d" d="M50.57,43.68c-2.38,0-4.54,.02-6.7-.03-.24,0-.58-.43-.7-.73-.92-2.29-2.26-4.27-4.21-5.81-1.71-1.35-3.63-2.19-5.92-2.39-.02,.42-.06,.75-.06,1.09,0,2.29-.03,4.59,.01,6.88,.01,.72-.19,.98-.95,1-10.06,.14-17.94-5.75-20.43-15.51-.72-2.84-.94-5.81-1.39-8.73-.11-.74,.16-.99,.92-.97,1.94,.05,3.89,.02,5.85,.02,.2,1.74,.33,3.4,.59,5.03,.54,3.3,1.62,6.39,3.79,9.01,1.08,1.3,2.36,2.34,3.93,3,.31,.13,.63,.22,1.08,.37,.02-.49,.06-.85,.06-1.21,0-5,0-9.99,0-14.99q0-1.21,1.25-1.21c1.45,0,2.89,.04,4.34-.02,.76-.03,.96,.25,.95,.98-.04,2.61-.01,5.22-.01,7.82v1.26c.92-.32,1.72-.49,2.41-.85,3.31-1.73,5.42-4.53,6.71-7.95,.37-.99,.83-1.35,1.89-1.28,1.62,.11,3.25,.03,5.08,.03-1.15,5.48-4.2,9.43-8.73,12.54,5.1,2.82,8.53,6.88,10.23,12.64Z"/></g><g><path d="M349.67,35.06h-22.79c.53,5.02,5.11,8.15,10.27,7.12,1.98-.39,3.7-1.22,5.08-2.74,.27-.29,.84-.5,1.24-.45,1.71,.19,3.4,.5,5.13,.77-2.22,6.38-10.53,9.86-18.12,7.76-7.91-2.18-11.69-9.9-10.16-17.53,1.58-7.88,8.46-12.72,17.23-11.38,8.1,1.23,13.04,8.05,12.13,16.45Zm-6.79-5.1c-1.28-3.96-4.74-6.31-8.6-5.96-3.49,.31-6.47,2.9-6.83,5.96h15.43Z"/><path d="M101.91,32.6c2.63,1.25,4.23,3.22,4.58,5.99,.41,3.27-.95,5.85-3.83,7.37-1.53,.81-3.32,1.45-5.03,1.51-5.18,.19-10.38,.07-15.67,.07V19.01c.11-.06,.19-.15,.26-.14,5.24,.06,10.49,0,15.73,.23,2.57,.11,4.8,1.32,6.45,3.42,2.01,2.55,2.2,7.62-2.5,10.09Zm-13.67,9.65c2.97,0,5.88,.1,8.78-.03,1.88-.08,3.18-1.57,3.23-3.28,.05-1.77-1.15-3.37-2.97-3.46-2.99-.15-5.98-.04-9.03-.04v6.81Zm0-18.03v6.06c2.61,0,5.16,.04,7.7-.01,1.91-.04,3.17-1.23,3.21-2.85,.04-1.66-1.41-3.14-3.26-3.18-2.5-.06-5.01-.01-7.64-.01Z"/><path d="M153.68,48.08c-7.81,0-13.74-4.63-15.07-11.78-1.88-10.09,5.26-18.27,15.6-17.87,7.57,.29,13.29,4.87,14.54,11.63,1.85,9.99-4.87,18.02-15.08,18.02Zm-8.58-14.82c0,2.39,.57,4.6,2.24,6.39,2.51,2.68,5.67,3.2,9.03,2.26,3.43-.95,5.28-3.51,5.75-6.91,.49-3.53-.14-6.87-3.24-9.15-2.9-2.12-6.14-2.26-9.3-.71-3.29,1.62-4.46,4.6-4.49,8.11Z"/><path d="M233.91,26.24c.61-2.4,2-4.16,3.91-5.47,3.61-2.46,7.6-3.01,11.75-1.79,4.57,1.34,7.04,4.83,7.33,9.25,.43,6.33,.11,12.7,.11,19.14h-4.45c-.4-1.32-.81-2.68-1.28-4.21-1.74,2.45-3.85,4.14-6.67,4.66-4.01,.75-7.72,.07-10.41-3.24-4.36-5.35-1.47-12.5,5.65-14,1.9-.4,3.89-.46,5.84-.57,1.73-.09,3.46-.02,5.36-.02-.16-2.27-.82-4.21-2.77-5.34-2.19-1.27-4.47-1-6.6,.33-.38,.24-.83,.52-1.01,.9-.7,1.4-1.81,1.32-3.07,1.05-1.19-.26-2.39-.45-3.69-.68Zm16.98,8.68c-3.07,.17-6.15,.18-9.19,.55-1.98,.24-2.96,1.56-2.99,3.16-.03,1.77,.95,3.14,2.86,3.66,5.47,1.49,9.43-2.27,9.32-7.36Z"/><path d="M199.77,47.41h-6.27v-11.35h-12.73v11.31h-6.39V18.9h6.28v11.24h12.79v-11.24h6.32v28.51Z"/><path d="M118.59,36.37v10.98h-6.42V18.94h6.35v10.78c1.04,.38,1.66,.09,2.27-.61,2.7-3.15,5.46-6.24,8.15-9.4,.56-.66,1.12-.93,1.98-.9,2,.06,4.01,.02,6.39,.02-4.11,4.72-8.03,9.22-12.02,13.79,4.32,4.89,8.59,9.73,13.08,14.83-2.87,0-5.49,.03-8.09-.04-.35,0-.73-.48-1.02-.8-2.77-3.15-5.49-6.33-8.3-9.45-.5-.56-1.31-.83-1.98-1.24l-.39,.45Z"/><path d="M270.74,30.14c.64-.37,1.42-.6,1.88-1.12,2.71-3.02,5.37-6.08,7.99-9.18,.65-.77,1.33-1.08,2.34-1.04,1.94,.08,3.89,.02,6.17,.02-4.12,4.73-8.03,9.2-12.03,13.79,4.29,4.86,8.58,9.73,13.09,14.84-2.85,0-5.43,.03-8-.03-.36,0-.76-.43-1.04-.75-2.81-3.17-5.63-6.34-8.38-9.57-.64-.76-1.28-1.1-2.37-.76v11.03h-6.35V18.9h6.27v10.8l.43,.44Z"/><path d="M307.89,47.41h-6.28V24.74h-9.83v-5.83h25.92v5.79h-9.81v22.72Z"/><path d="M203.68,24.73v-5.8h25.95v5.75h-9.73v22.67h-6.33V24.73h-9.88Z"/></g></g></g></g></svg>